<svg width="50" height="50" xmlns="http://www.w3.org/2000/svg">
 <title>dd</title>

 <g>
  <title>Layer 1</title>
  <g stroke="null" id="svg_16">
   <path stroke="null" id="svg_1" d="m47.45732,37.99277l0,5.3826l-44.41033,0l0,-5.3826c0,-0.7805 0.65149,-1.41344 1.45488,-1.41344l41.50058,0a1.45565,1.41419 0 0 1 1.45488,1.41344z" fill="#fff"/>
   <path stroke="null" id="svg_2" d="m3.04699,41.4773l44.41033,0l0,1.89881l-44.41033,0l0,-1.89881z" fill="#e6e6ef"/>
   <path stroke="null" id="svg_3" d="m42.18292,16.74178l3.53657,19.83756l-40.94007,0l3.53657,-19.83756a1.97145,1.91529 0 0 1 1.94292,-1.58871l29.98031,0c0.95989,0 1.78024,0.67039 1.94369,1.58871z" fill="#5c9efe"/>
   <path stroke="null" id="svg_4" d="m33.6865,41.45333l0,1.92278l-16.86947,0l0,-1.92278c0,-0.60373 0.50346,-1.09285 1.12489,-1.09285l14.62046,0c0.62065,0 1.12412,0.48912 1.12412,1.09285z" fill="#ff564c"/>
   <path stroke="null" id="svg_5" d="m31.62948,10.10529l4.83571,0l0,5.04778l-4.83571,0l0,-5.04778zm11.22806,-0.71309l0,-6.53761a0.73399,0.71309 0 0 0 -0.73399,-0.71309l-16.15321,0a0.73399,0.71309 0 0 0 -0.73399,0.71309l0,6.53761c0,0.39399 0.32845,0.71309 0.73399,0.71309l16.15321,0a0.73399,0.71309 0 0 0 0.73399,-0.71309z" fill="#fff"/>
   <path stroke="null" id="svg_6" d="m27.36354,7.66717l0,-3.08679c0,-0.16629 0.13878,-0.30186 0.31071,-0.30186l12.74693,0c0.17116,0 0.31071,0.13483 0.31071,0.30186l0,3.08679c0,0.16629 -0.13878,0.30186 -0.31071,0.30186l-12.7477,0a0.31071,0.30186 0 0 1 -0.30994,-0.30186z" fill="#ff564c"/>
   <path stroke="null" id="svg_7" d="m39.33639,18.43386l0,3.52123a0.54972,0.53407 0 0 1 -0.54972,0.53407l-10.63979,0a0.54972,0.53407 0 0 1 -0.54972,-0.53407l0,-3.52123c0,-0.29512 0.24595,-0.53407 0.54972,-0.53407l10.63979,0c0.30377,0 0.54972,0.23894 0.54972,0.53407zm-15.93502,-9.41168l0,11.57266l-11.4185,0l0,-11.57266c0,-0.09738 0.03855,-0.18726 0.11565,-0.25467l1.06398,-1.00371a0.36237,0.35205 0 0 1 0.50886,0l0.91749,0.86889c0.13878,0.13483 0.37008,0.13483 0.50886,0l0.91749,-0.86889a0.36854,0.35804 0 0 1 0.50886,0l0.91749,0.86889c0.14649,0.12734 0.37008,0.12734 0.50886,0l0.91749,-0.86889a0.36237,0.35205 0 0 1 0.50886,0l0.91749,0.8614c0.13878,0.13483 0.37008,0.13483 0.50886,0l0.91749,-0.8614a0.36237,0.35205 0 0 1 0.50886,0l1.05627,1.00371c0.0771,0.06741 0.11565,0.1573 0.11565,0.25467z" fill="#fff"/>
   <path stroke="null" id="svg_8" d="m16.38528,7.6814c-0.21588,2.95871 -1.9275,5.51293 -4.40241,6.97356l0,-5.63278c0,-0.09738 0.03855,-0.18726 0.11565,-0.25467l1.06398,-1.00371a0.36237,0.35205 0 0 1 0.50886,0l0.91749,0.86889c0.13878,0.13483 0.37008,0.13483 0.50886,0l0.91749,-0.86889c0.10023,-0.09738 0.24672,-0.11985 0.37008,-0.08239z" fill="#e6e6ef"/>
   <path stroke="null" id="svg_9" d="m33.3303,25.28607l0,2.42015a0.72011,0.6996 0 0 1 -0.7178,0.70335l-2.717,0a0.72474,0.7041 0 0 1 -0.7178,-0.70335l0,-2.42015c0,-0.38725 0.32536,-0.69736 0.7178,-0.69736l2.717,0a0.71472,0.69436 0 0 1 0.7178,0.69736zm-12.0114,0l0,2.42015a0.72011,0.6996 0 0 1 -0.7178,0.70335l-2.71083,0a0.72551,0.70485 0 0 1 -0.72397,-0.70335l0,-2.42015c0,-0.38725 0.32536,-0.69736 0.72397,-0.69736l2.71083,0a0.71549,0.69511 0 0 1 0.7178,0.69736zm18.01748,5.48671l0,2.41415a0.72011,0.6996 0 0 1 -0.7178,0.70335l-2.717,0a0.72474,0.7041 0 0 1 -0.7178,-0.70335l0,-2.41415a0.72474,0.7041 0 0 1 0.7178,-0.70335l2.717,0a0.71934,0.69885 0 0 1 0.7178,0.70335zm-24.02357,0l0,2.41415a0.72011,0.6996 0 0 1 -0.7178,0.70335l-2.71083,0a0.72551,0.70485 0 0 1 -0.72397,-0.70335l0,-2.41415c0,-0.38725 0.32536,-0.70335 0.72397,-0.70335l2.71083,0a0.72011,0.6996 0 0 1 0.7178,0.70335zm6.00609,0l0,2.41415a0.72011,0.6996 0 0 1 -0.7178,0.70335l-2.71083,0a0.72551,0.70485 0 0 1 -0.72397,-0.70335l0,-2.41415c0,-0.38725 0.32536,-0.70335 0.72397,-0.70335l2.71083,0a0.72011,0.6996 0 0 1 0.7178,0.70335zm18.01748,-5.48671l0,2.42015a0.72011,0.6996 0 0 1 -0.7178,0.70335l-2.717,0a0.72474,0.7041 0 0 1 -0.7178,-0.70335l0,-2.42015c0,-0.38725 0.32536,-0.69736 0.7178,-0.69736l2.717,0a0.71472,0.69436 0 0 1 0.7178,0.69736zm-6.00609,5.48671l0,2.41415a0.72011,0.6996 0 0 1 -0.7178,0.70335l-2.717,0a0.72474,0.7041 0 0 1 -0.7178,-0.70335l0,-2.41415a0.72474,0.7041 0 0 1 0.7178,-0.70335l2.717,0a0.71934,0.69885 0 0 1 0.7178,0.70335zm-18.01748,-5.48671l0,2.42015a0.72011,0.6996 0 0 1 -0.7178,0.70335l-2.71083,0a0.72551,0.70485 0 0 1 -0.72397,-0.70335l0,-2.42015c0,-0.38725 0.32536,-0.69736 0.72397,-0.69736l2.71083,0a0.71549,0.69511 0 0 1 0.7178,0.69736zm12.01217,5.48671l0,2.41415a0.72011,0.6996 0 0 1 -0.7178,0.70335l-2.71083,0a0.72551,0.70485 0 0 1 -0.72397,-0.70335l0,-2.41415c0,-0.38725 0.32536,-0.70335 0.72397,-0.70335l2.71083,0a0.72011,0.6996 0 0 1 0.7178,0.70335zm0,-5.48671l0,2.42015a0.72011,0.6996 0 0 1 -0.7178,0.70335l-2.71083,0a0.72551,0.70485 0 0 1 -0.72397,-0.70335l0,-2.42015c0,-0.38725 0.32536,-0.69736 0.72397,-0.69736l2.71083,0a0.71549,0.69511 0 0 1 0.7178,0.69736z" fill="#fff"/>
   <path stroke="null" id="svg_10" d="m49.43879,43.37612l-48.37327,0a0.48573,0.47189 0 0 0 -0.48573,0.47189l0,2.87481c0,0.26067 0.21742,0.47189 0.48573,0.47189l48.37327,0a0.48573,0.47189 0 0 0 0.48573,-0.47189l0,-2.87481a0.4865,0.47264 0 0 0 -0.48573,-0.47189z" fill="#febc00"/>
   <path stroke="null" id="svg_11" d="m13.86026,7.017c0,3.55719 -2.97452,6.44698 -6.63599,6.44698c-3.67227,0 -6.64756,-2.88979 -6.64756,-6.44698a6.64601,6.45672 0 0 1 6.64756,-6.45822c3.66148,0.00075 6.63599,2.89054 6.63599,6.45822z" fill="#fff"/>
   <path stroke="null" id="svg_12" d="m15.9566,12.91419l3.4695,0a0.57825,0.56178 0 0 0 0,-1.12356l-3.4695,0a0.57825,0.56178 0 0 0 0,1.12356zm-1.42326,2.47258l6.31757,0a0.57825,0.56178 0 0 0 0,-1.12356l-6.31757,0a0.57825,0.56178 0 0 0 0,1.12356zm0,2.47258l6.31757,0a0.57825,0.56178 0 0 0 0,-1.12356l-6.31757,0a0.57825,0.56178 0 0 0 0,1.12356z" fill="#525987"/>
   <path stroke="null" id="svg_13" d="m49.43879,42.81434l-1.40322,0l0,-4.82157a2.02773,1.96997 0 0 0 -1.82418,-1.95424l-3.45947,-19.39562a2.53659,2.46434 0 0 0 -2.51346,-2.05237l-3.19502,0l0,-3.92347l5.08089,0c0.7232,0 1.31147,-0.57152 1.31147,-1.27486l0,-6.53687c0,-0.7026 -0.58827,-1.27486 -1.31147,-1.27486l-16.15321,0c-0.7232,0 -1.31224,0.57152 -1.31224,1.27486l0,6.53761c0,0.7026 0.58904,1.27486 1.31224,1.27486l5.08011,0l0,3.92347l-7.07315,0l0,-5.57285c0,-0.23969 -0.10794,-0.47939 -0.28527,-0.65166l-1.05627,-1.00371c-0.37008,-0.35205 -0.94833,-0.35205 -1.31841,0l-0.771,0.72657l-0.76329,-0.72657c-0.37008,-0.35205 -0.94833,-0.35205 -1.31841,0l-0.76329,0.72657l-0.771,-0.72657c-0.37008,-0.35205 -0.94833,-0.35205 -1.31841,0l-0.771,0.72657l-0.43176,-0.41197c0.02313,-0.21722 0.03084,-0.43444 0.03084,-0.65915c0,-3.87253 -3.2382,-7.0185 -7.21655,-7.0185c-3.98607,0 -7.22426,3.14597 -7.22426,7.0185c0,3.86504 3.2382,7.01101 7.22426,7.01101c1.55742,0 2.99919,-0.47939 4.17882,-1.30333l0,1.86511l-1.14108,0a2.53659,2.46434 0 0 0 -2.51346,2.05237l-3.45947,19.39487a2.02927,1.97147 0 0 0 -1.8211,1.95424l0,4.82157l-1.40245,0c-0.58673,0 -1.06398,0.46366 -1.06398,1.03293l0,2.87481a1.06398,1.03367 0 0 0 1.06398,1.03293l48.37327,0a1.06398,1.03367 0 0 0 1.06321,-1.03293l0,-2.87481a1.06398,1.03367 0 0 0 -1.06321,-1.03293zm-23.62342,-33.42213l0,-6.53687c0,-0.08314 0.07016,-0.15131 0.15574,-0.15131l16.15321,0c0.08558,0 0.15497,0.06741 0.15497,0.15131l0,6.53761c0,0.08314 -0.06939,0.15131 -0.15497,0.15131l-16.15321,0a0.15651,0.15205 0 0 1 -0.15574,-0.15205zm6.39236,1.27486l3.67921,0l0,3.92347l-3.67921,0l0,-3.92347zm-18.02134,-1.63515c0.37008,0.34456 0.94833,0.35205 1.31841,0l0.76329,-0.72657l0.771,0.72657c0.36237,0.34456 0.95604,0.34456 1.31841,0l0.771,-0.72657l0.76329,0.72657c0.37008,0.35205 0.94833,0.34456 1.31841,0l0.76329,-0.72657l0.8481,0.80147l0,10.92099l-10.262,0l0,-8.29936a7.22889,7.02299 0 0 0 1.58826,-2.73399l0.03855,0.03745zm-6.96212,3.87253c-3.34614,0 -6.06777,-2.64411 -6.06777,-5.88745c0,-3.25083 2.72163,-5.89494 6.06777,-5.89494c3.33843,0 6.06006,2.64411 6.06006,5.89494l0,0.09738c-0.0478,3.21712 -2.77945,5.79007 -6.06006,5.79007zm1.66536,3.93246c0.11565,-0.65166 0.68619,-1.12356 1.37238,-1.12356l1.14108,0l0,4.31821l-0.2074,0a0.57825,0.56178 0 0 0 0,1.12356l13.0376,0a0.57825,0.56178 0 0 0 0,-1.12356l-0.2552,0l0,-4.31821c13.01447,0.0015 12.98594,0 16.26038,0c0.67848,0 1.25673,0.47189 1.37238,1.12356l3.42324,19.18065l-39.56769,0l3.42324,-19.18065zm-5.26515,21.15587a0.87894,0.8539 0 0 1 0.8774,-0.85166c18.70367,0.00075 -31.66957,0.00375 41.50058,0c0.48342,0 0.87663,0.38201 0.87663,0.85166l0,4.82157l-12.61355,0l0,-1.361a1.70545,1.65687 0 0 0 -1.70314,-1.65463l-14.62046,0a1.70545,1.65687 0 0 0 -1.70314,1.65463l0,1.361l-12.61432,0l0,-4.82157zm29.48456,4.82157l-15.71374,0l0,-1.361a0.54741,0.53182 0 0 1 0.54664,-0.53107l14.62046,0a0.54741,0.53182 0 0 1 0.54664,0.53107l0,1.361zm16.23648,3.81785l-48.18746,0l0,-2.69429l48.18746,0l0,2.69429z" fill="#525987"/>
   <path stroke="null" id="svg_14" d="m7.22272,2.84635a4.23895,4.11822 0 1 1 -0.00771,8.23719a4.23895,4.11822 0 0 1 0.00771,-8.23719" fill="#84d189"/>
   <path stroke="null" id="svg_15" d="m6.62751,8.28662a0.57517,0.55878 0 0 1 -0.47262,-0.23819l-0.73939,-1.01869a0.57825,0.56178 0 0 1 0.94602,-0.64717l0.39629,0.54605l1.44948,-1.05839a0.57825,0.56178 0 0 1 0.69467,0.8981l-1.92596,1.40595a0.58673,0.57002 0 0 1 -0.34849,0.11236z" fill="#fff"/>
  </g>
 </g>
</svg>