<svg width="66" height="64" xmlns="http://www.w3.org/2000/svg">

 <g>
  <title>Layer 1</title>
  <path id="svg_1" d="m61.553,50.722l0,7.186l-57.601,0l0,-7.186c0,-1.042 0.845,-1.887 1.887,-1.887l53.827,0a1.888,1.888 0 0 1 1.887,1.887z" fill="#fff"/>
  <path id="svg_2" d="m3.952,55.374l57.601,0l0,2.535l-57.601,0l0,-2.535z" fill="#e6e6ef"/>
  <path id="svg_3" d="m54.712,22.351l4.587,26.484l-53.1,0l4.587,-26.484a2.557,2.557 0 0 1 2.52,-2.121l38.885,0c1.245,0 2.309,0.895 2.521,2.121z" fill="#5c9efe"/>
  <path id="svg_4" d="m43.692,55.342l0,2.567l-21.88,0l0,-2.567c0,-0.806 0.653,-1.459 1.459,-1.459l18.963,0c0.805,0 1.458,0.653 1.458,1.459z" fill="#ff564c"/>
  <path id="svg_5" d="m41.024,13.491l6.272,0l0,6.739l-6.272,0l0,-6.739zm14.563,-0.952l0,-8.728a0.952,0.952 0 0 0 -0.952,-0.952l-20.951,0a0.952,0.952 0 0 0 -0.952,0.952l0,8.728c0,0.526 0.426,0.952 0.952,0.952l20.951,0a0.952,0.952 0 0 0 0.952,-0.952z" fill="#fff"/>
  <path id="svg_6" d="m35.491,10.236l0,-4.121c0,-0.222 0.18,-0.403 0.403,-0.403l16.533,0c0.222,0 0.403,0.18 0.403,0.403l0,4.121c0,0.222 -0.18,0.403 -0.403,0.403l-16.534,0a0.403,0.403 0 0 1 -0.402,-0.403z" fill="#ff564c"/>
  <path id="svg_7" d="m51.02,24.61l0,4.701a0.713,0.713 0 0 1 -0.713,0.713l-13.8,0a0.713,0.713 0 0 1 -0.713,-0.713l0,-4.701c0,-0.394 0.319,-0.713 0.713,-0.713l13.8,0c0.394,0 0.713,0.319 0.713,0.713zm-20.668,-12.565l0,15.45l-14.81,0l0,-15.45c0,-0.13 0.05,-0.25 0.15,-0.34l1.38,-1.34a0.47,0.47 0 0 1 0.66,0l1.19,1.16c0.18,0.18 0.48,0.18 0.66,0l1.19,-1.16a0.478,0.478 0 0 1 0.66,0l1.19,1.16c0.19,0.17 0.48,0.17 0.66,0l1.19,-1.16a0.47,0.47 0 0 1 0.66,0l1.19,1.15c0.18,0.18 0.48,0.18 0.66,0l1.19,-1.15a0.47,0.47 0 0 1 0.66,0l1.37,1.34c0.1,0.09 0.15,0.21 0.15,0.34z" fill="#fff"/>
  <path id="svg_8" d="m21.252,10.255c-0.28,3.95 -2.5,7.36 -5.71,9.31l0,-7.52c0,-0.13 0.05,-0.25 0.15,-0.34l1.38,-1.34a0.47,0.47 0 0 1 0.66,0l1.19,1.16c0.18,0.18 0.48,0.18 0.66,0l1.19,-1.16c0.13,-0.13 0.32,-0.16 0.48,-0.11z" fill="#e6e6ef"/>
  <path id="svg_9" d="m43.23,33.758l0,3.231a0.934,0.934 0 0 1 -0.931,0.939l-3.524,0a0.94,0.94 0 0 1 -0.931,-0.939l0,-3.231c0,-0.517 0.422,-0.931 0.931,-0.931l3.524,0a0.927,0.927 0 0 1 0.931,0.931zm-15.579,0l0,3.231a0.934,0.934 0 0 1 -0.931,0.939l-3.516,0a0.941,0.941 0 0 1 -0.939,-0.939l0,-3.231c0,-0.517 0.422,-0.931 0.939,-0.931l3.516,0a0.928,0.928 0 0 1 0.931,0.931zm23.369,7.325l0,3.223a0.934,0.934 0 0 1 -0.931,0.939l-3.524,0a0.94,0.94 0 0 1 -0.931,-0.939l0,-3.223a0.94,0.94 0 0 1 0.931,-0.939l3.524,0a0.933,0.933 0 0 1 0.931,0.939zm-31.159,0l0,3.223a0.934,0.934 0 0 1 -0.931,0.939l-3.516,0a0.941,0.941 0 0 1 -0.939,-0.939l0,-3.223c0,-0.517 0.422,-0.939 0.939,-0.939l3.516,0a0.934,0.934 0 0 1 0.931,0.939zm7.79,0l0,3.223a0.934,0.934 0 0 1 -0.931,0.939l-3.516,0a0.941,0.941 0 0 1 -0.939,-0.939l0,-3.223c0,-0.517 0.422,-0.939 0.939,-0.939l3.516,0a0.934,0.934 0 0 1 0.931,0.939zm23.369,-7.325l0,3.231a0.934,0.934 0 0 1 -0.931,0.939l-3.524,0a0.94,0.94 0 0 1 -0.931,-0.939l0,-3.231c0,-0.517 0.422,-0.931 0.931,-0.931l3.524,0a0.927,0.927 0 0 1 0.931,0.931zm-7.79,7.325l0,3.223a0.934,0.934 0 0 1 -0.931,0.939l-3.524,0a0.94,0.94 0 0 1 -0.931,-0.939l0,-3.223a0.94,0.94 0 0 1 0.931,-0.939l3.524,0a0.933,0.933 0 0 1 0.931,0.939zm-23.369,-7.325l0,3.231a0.934,0.934 0 0 1 -0.931,0.939l-3.516,0a0.941,0.941 0 0 1 -0.939,-0.939l0,-3.231c0,-0.517 0.422,-0.931 0.939,-0.931l3.516,0a0.928,0.928 0 0 1 0.931,0.931zm15.58,7.325l0,3.223a0.934,0.934 0 0 1 -0.931,0.939l-3.516,0a0.941,0.941 0 0 1 -0.939,-0.939l0,-3.223c0,-0.517 0.422,-0.939 0.939,-0.939l3.516,0a0.934,0.934 0 0 1 0.931,0.939zm0,-7.325l0,3.231a0.934,0.934 0 0 1 -0.931,0.939l-3.516,0a0.941,0.941 0 0 1 -0.939,-0.939l0,-3.231c0,-0.517 0.422,-0.931 0.939,-0.931l3.516,0a0.928,0.928 0 0 1 0.931,0.931z" fill="#fff"/>
  <path id="svg_10" d="m64.123,57.909l-62.741,0a0.63,0.63 0 0 0 -0.63,0.63l0,3.838c0,0.348 0.282,0.63 0.63,0.63l62.741,0a0.63,0.63 0 0 0 0.63,-0.63l0,-3.838a0.631,0.631 0 0 0 -0.63,-0.63z" fill="#febc00"/>
  <path id="svg_11" d="m17.977,9.368c0,4.749 -3.858,8.607 -8.607,8.607c-4.763,0 -8.622,-3.858 -8.622,-8.607a8.62,8.62 0 0 1 8.622,-8.622c4.749,0.001 8.607,3.859 8.607,8.622z" fill="#fff"/>
  <path id="svg_12" d="m20.696,17.241l4.5,0a0.75,0.75 0 0 0 0,-1.5l-4.5,0a0.75,0.75 0 0 0 0,1.5zm-1.846,3.301l8.194,0a0.75,0.75 0 0 0 0,-1.5l-8.194,0a0.75,0.75 0 0 0 0,1.5zm0,3.301l8.194,0a0.75,0.75 0 0 0 0,-1.5l-8.194,0a0.75,0.75 0 0 0 0,1.5z" fill="#525987"/>
  <path stroke="null" id="svg_13" d="m64.123,57.159l-1.82,0l0,-6.437a2.63,2.63 0 0 0 -2.366,-2.609l-4.487,-25.894a3.29,3.29 0 0 0 -3.26,-2.74l-4.144,0l0,-5.238l6.59,0c0.938,0 1.701,-0.763 1.701,-1.702l0,-8.727c0,-0.938 -0.763,-1.702 -1.701,-1.702l-20.951,0c-0.938,0 -1.702,0.763 -1.702,1.702l0,8.728c0,0.938 0.764,1.702 1.702,1.702l6.589,0l0,5.238l-9.174,0l0,-7.44c0,-0.32 -0.14,-0.64 -0.37,-0.87l-1.37,-1.34c-0.48,-0.47 -1.23,-0.47 -1.71,0l-1,0.97l-0.99,-0.97c-0.48,-0.47 -1.23,-0.47 -1.71,0l-0.99,0.97l-1,-0.97c-0.48,-0.47 -1.23,-0.47 -1.71,0l-1,0.97l-0.56,-0.55c0.03,-0.29 0.04,-0.58 0.04,-0.88c0,-5.17 -4.2,-9.37 -9.36,-9.37c-5.17,0 -9.37,4.2 -9.37,9.37c0,5.16 4.2,9.36 9.37,9.36c2.02,0 3.89,-0.64 5.42,-1.74l0,2.49l-1.48,0a3.29,3.29 0 0 0 -3.26,2.74l-4.487,25.893a2.632,2.632 0 0 0 -2.362,2.609l0,6.437l-1.819,0c-0.761,0 -1.38,0.619 -1.38,1.379l0,3.838a1.38,1.38 0 0 0 1.38,1.379l62.741,0a1.38,1.38 0 0 0 1.379,-1.379l0,-3.838a1.38,1.38 0 0 0 -1.379,-1.379zm-30.64,-44.62l0,-8.727c0,-0.111 0.091,-0.202 0.202,-0.202l20.951,0c0.111,0 0.201,0.09 0.201,0.202l0,8.728c0,0.111 -0.09,0.202 -0.201,0.202l-20.951,0a0.203,0.203 0 0 1 -0.202,-0.203zm8.291,1.702l4.772,0l0,5.238l-4.772,0l0,-5.238zm-23.374,-2.183c0.48,0.46 1.23,0.47 1.71,0l0.99,-0.97l1,0.97c0.47,0.46 1.24,0.46 1.71,0l1,-0.97l0.99,0.97c0.48,0.47 1.23,0.46 1.71,0l0.99,-0.97l1.1,1.07l0,14.58l-13.31,0l0,-11.08a9.376,9.376 0 0 0 2.06,-3.65l0.05,0.05zm-9.03,5.17c-4.34,0 -7.87,-3.53 -7.87,-7.86c0,-4.34 3.53,-7.87 7.87,-7.87c4.33,0 7.86,3.53 7.86,7.87l0,0.13c-0.062,4.295 -3.605,7.73 -7.86,7.73zm2.16,5.25c0.15,-0.87 0.89,-1.5 1.78,-1.5l1.48,0l0,5.765l-0.269,0a0.75,0.75 0 0 0 0,1.5l16.91,0a0.75,0.75 0 0 0 0,-1.5l-0.331,0l0,-5.765c16.88,0.002 16.843,0 21.09,0c0.88,0 1.63,0.63 1.78,1.5l4.44,25.607l-51.32,0l4.44,-25.607zm-6.829,28.244a1.14,1.14 0 0 1 1.138,-1.137c24.259,0.001 -41.076,0.005 53.827,0c0.627,0 1.137,0.51 1.137,1.137l0,6.437l-16.36,0l0,-1.817a2.212,2.212 0 0 0 -2.209,-2.209l-18.963,0a2.212,2.212 0 0 0 -2.209,2.209l0,1.817l-16.361,0l0,-6.437zm38.242,6.437l-20.381,0l0,-1.817a0.71,0.71 0 0 1 0.709,-0.709l18.963,0a0.71,0.71 0 0 1 0.709,0.709l0,1.817zm21.059,5.097l-62.5,0l0,-3.597l62.5,0l0,3.597z" fill="#525987"/>
  <path id="svg_14" d="m9.368,3.8a5.498,5.498 0 1 1 -0.01,10.997a5.498,5.498 0 0 1 0.01,-10.997" fill="#84d189"/>
  <path id="svg_15" d="m8.596,11.063a0.746,0.746 0 0 1 -0.613,-0.318l-0.959,-1.36a0.75,0.75 0 0 1 1.227,-0.864l0.514,0.729l1.88,-1.413a0.75,0.75 0 0 1 0.901,1.199l-2.498,1.877a0.761,0.761 0 0 1 -0.452,0.15z" fill="#fff"/>
 </g>
</svg>