<svg width="50" height="48" xmlns="http://www.w3.org/2000/svg" data-name="Layer 1">

 <g>
  <title>Layer 1</title>
  <g id="svg_9">
   <path id="svg_1" d="m29,45l-20,0a5.006,5.006 0 0 1 -5,-5l0,-32a5.006,5.006 0 0 1 5,-5l20,0a5.006,5.006 0 0 1 5,5l0,4.52a1,1 0 0 1 -2,0l0,-4.52a3,3 0 0 0 -3,-3l-20,0a3,3 0 0 0 -3,3l0,32a3,3 0 0 0 3,3l20,0a3,3 0 0 0 3,-3l0,-10.52a1,1 0 0 1 2,0l0,10.52a5.006,5.006 0 0 1 -5,5z" fill="#232323"/>
   <path id="svg_2" d="m27,36l-16,0a3,3 0 0 1 -3,-3l0,-23a3,3 0 0 1 3,-3l16,0a3,3 0 0 1 3,3l0,4a1,1 0 0 1 -2,0l0,-4a1,1 0 0 0 -1,-1l-16,0a1,1 0 0 0 -1,1l0,23a1,1 0 0 0 1,1l16,0a1,1 0 0 0 1,-1l0,-5a1,1 0 0 1 2,0l0,5a3,3 0 0 1 -3,3zm-6,4l-4,0a1,1 0 0 1 0,-2l4,0a1,1 0 0 1 0,2z" fill="#232323"/>
   <path id="svg_3" d="m36,18a1,1 0 0 1 -1,-1l0,-2a1,1 0 0 1 2,0l0,2a1,1 0 0 1 -1,1zm0,10a1,1 0 0 1 -1,-1l0,-2a1,1 0 0 1 2,0l0,2a1,1 0 0 1 -1,1z" fill="#7fbde7"/>
   <path id="svg_4" d="m36,26l-2,0a1,1 0 0 1 0,-2l2,0a1,1 0 0 0 0,-2a3,3 0 0 1 0,-6l2,0a1,1 0 0 1 0,2l-2,0a1,1 0 0 0 0,2a3,3 0 0 1 0,6z" fill="#7fbde7"/>
   <path id="svg_5" d="m36,31a10,10 0 1 1 10,-10a10.011,10.011 0 0 1 -10,10zm0,-18a8,8 0 1 0 8,8a8.009,8.009 0 0 0 -8,-8z" fill="#7fbde7"/>
   <path id="svg_6" d="m36,31a10,10 0 1 1 10,-10a10.011,10.011 0 0 1 -10,10zm0,-18a8,8 0 1 0 8,8a8.009,8.009 0 0 0 -8,-8z" fill="#7fbde7"/>
   <path id="svg_7" d="m30.36,15l-8.36,0a1,1 0 0 1 0,-2l8.36,0a1,1 0 0 1 0,2zm-3.06,4.67l-8.3,0a1,1 0 0 1 0,-2l8.3,0a1,1 0 0 1 0,2zm0,4.66l-8.3,0a1,1 0 0 1 0,-2l8.3,0a1,1 0 0 1 0,2zm3.06,4.67l-8.36,0a1,1 0 0 1 0,-2l8.36,0a1,1 0 0 1 0,2z" fill="#7fbde7"/>
  </g>
 </g>
</svg>