<svg width="50" height="50" xmlns="http://www.w3.org/2000/svg" xml:space="preserve" version="1.1">

 <g>
  <title>Layer 1</title>
  <g stroke="null" id="svg_41">
   <path stroke="null" id="svg_1" fill="#FFDC64" d="m10.37452,48.12269c2.40847,-0.48114 4.35735,-2.4465 4.86304,-4.90265c0.44868,-2.17883 -0.19331,-4.20907 -1.45951,-5.65568l15.27567,-23.43679c0.96042,-1.47362 0.57123,-3.46447 -0.86949,-4.44682l-17.01364,26.10314c-1.14658,-0.40858 -2.43523,-0.50599 -3.79025,-0.11025c-2.31195,0.67531 -4.09319,2.70348 -4.46231,5.13357c-0.67315,4.43314 3.09739,8.18609 7.45649,7.3155zm-4.39961,-6.28702c0,-1.771 1.40369,-3.20675 3.13515,-3.20675s3.13515,1.43574 3.13515,3.20675s-1.40369,3.20675 -3.13515,3.20675s-3.13515,-1.43574 -3.13515,-3.20675z"/>
   <path stroke="null" id="svg_2" fill="#FFC850" d="m20.12802,22.04092l-5.83281,8.94906c0.67352,0.82878 1.57564,1.45562 2.60774,1.77982l5.83281,-8.94906c-0.67352,-0.82869 -1.57555,-1.45562 -2.60774,-1.77982z"/>
   <path stroke="null" id="svg_3" fill="#FFDC64" d="m34.11292,40.80719c-0.36902,-2.43009 -2.15035,-4.45826 -4.46231,-5.13357c-1.35492,-0.39583 -2.64367,-0.29842 -3.79025,0.11025l-4.54196,-6.96861c0.20596,-0.42723 0.33227,-0.90153 0.33227,-1.40996c0,-1.771 -1.40369,-3.20675 -3.13515,-3.20675c-0.06609,0 -0.12805,0.01584 -0.19322,0.01997l-9.47549,-14.5378c-1.44072,0.98235 -1.82991,2.97321 -0.86949,4.44682l7.73522,11.86789c-0.20596,0.42723 -0.33227,0.90153 -0.33227,1.40996c0,1.771 1.40369,3.20675 3.13515,3.20675c0.06609,0 0.12805,-0.01584 0.19322,-0.01997l4.54425,6.97198c-1.2662,1.44671 -1.90819,3.47685 -1.45951,5.65568c0.50578,2.45616 2.45457,4.4216 4.86304,4.90265c4.3591,0.87078 8.12964,-2.88217 7.45649,-7.31531zm-6.19203,4.23522c-1.73147,0 -3.13515,-1.43574 -3.13515,-3.20675s1.40369,-3.20675 3.13515,-3.20675s3.13515,1.43574 3.13515,3.20675s-1.4036,3.20675 -3.13515,3.20675z"/>
   <path stroke="null" id="svg_4" d="m11.96272,40.30505c-0.39295,0.1036 -0.62934,0.51349 -0.52806,0.91541c0.05032,0.19951 0.0758,0.40652 0.0758,0.61521c0,1.35371 -1.07683,2.45512 -2.40031,2.45512s-2.40031,-1.10142 -2.40031,-2.45512s1.07674,-2.45512 2.40022,-2.45512c0.20367,0 0.40578,0.02606 0.60056,0.07725c0.39295,0.10341 0.79369,-0.13847 0.89479,-0.5404c0.10119,-0.40202 -0.13538,-0.81181 -0.52833,-0.91522c-0.3144,-0.08278 -0.63979,-0.12479 -0.96702,-0.12479c-2.13386,0 -3.8699,1.77569 -3.8699,3.95827s1.73605,3.95827 3.8699,3.95827s3.8699,-1.77569 3.8699,-3.95827c0,-0.33517 -0.04116,-0.66837 -0.12237,-0.99051c-0.10128,-0.40202 -0.50212,-0.64352 -0.89488,-0.54011z"/>
   <path stroke="null" id="svg_5" d="m30.77355,40.30505c-0.39295,0.1036 -0.62934,0.51349 -0.52806,0.91541c0.05032,0.19951 0.0758,0.40652 0.0758,0.61521c0,1.35371 -1.07683,2.45512 -2.40031,2.45512s-2.40031,-1.10142 -2.40031,-2.45512s1.07683,-2.45512 2.40031,-2.45512c0.20367,0 0.40578,0.02606 0.60065,0.07725c0.39304,0.10341 0.79369,-0.13847 0.89479,-0.54058c0.10119,-0.40192 -0.13538,-0.81181 -0.52842,-0.91522c-0.3144,-0.08278 -0.63979,-0.12479 -0.96702,-0.12479c-2.13386,0 -3.8699,1.77569 -3.8699,3.95827s1.73605,3.95827 3.8699,3.95827s3.8699,-1.77569 3.8699,-3.95827c0,-0.33517 -0.04116,-0.66837 -0.12237,-0.99051c-0.10138,-0.40183 -0.5023,-0.64334 -0.89497,-0.53993z"/>
   <path stroke="null" id="svg_6" d="m34.83906,40.69187c-0.41357,-2.72345 -2.37098,-4.97681 -4.98651,-5.74081c-1.23146,-0.35973 -2.46796,-0.37576 -3.68356,-0.04885l-4.01867,-6.16551c0.15628,-0.43417 0.23511,-0.88035 0.23511,-1.3313c0,-0.47046 -0.08103,-0.92188 -0.22897,-1.34077l7.50864,-11.52015c0.57343,-0.87969 0.77756,-1.93517 0.5748,-2.97189s-0.788,-1.93067 -1.64805,-2.51719c-0.16206,-0.11063 -0.36068,-0.15085 -0.5517,-0.11166c-0.19111,0.0391 -0.35931,0.15422 -0.46728,0.32007l-9.05733,13.89634l-9.05743,-13.89634c-0.22503,-0.34529 -0.68131,-0.43877 -1.0189,-0.20841c-0.86014,0.58643 -1.44539,1.48037 -1.64815,2.51719c-0.20266,1.03682 0.00137,2.0922 0.5748,2.97189l7.51478,11.52972c-0.15628,0.43417 -0.23511,0.88035 -0.23511,1.3313c0,0.47046 0.08103,0.92188 0.22897,1.34068l-4.01234,6.15614c-1.21551,-0.32692 -2.45201,-0.31098 -3.68356,0.04885c-2.61571,0.764 -4.57303,3.01746 -4.98651,5.74081c-0.35931,2.36578 0.3924,4.66499 2.06227,6.30802c1.32697,1.30561 3.03964,2.00201 4.84545,2.00192c0.46738,0 0.94117,-0.04669 1.4157,-0.14147c2.68959,-0.53711 4.87624,-2.74154 5.44124,-5.48533c0.43099,-2.09295 -0.02942,-4.19613 -1.26455,-5.858l3.82352,-5.86616l3.82352,5.86616c-1.23522,1.66188 -1.69563,3.76486 -1.26455,5.858c0.56499,2.74379 2.75155,4.94822 5.44124,5.48543c0.4748,0.09478 0.94832,0.14147 1.4157,0.14147c1.80562,0 3.51857,-0.6964 4.84545,-2.00192c1.66959,-1.64322 2.42121,-3.94243 2.06199,-6.30821l0,0zm-6.51422,-29.87185c0.23502,0.30161 0.39808,0.65824 0.47407,1.04741c0.12576,0.64306 -0.00092,1.29774 -0.35656,1.84338l-7.13879,10.95266c-0.38589,-0.41036 -0.85767,-0.73531 -1.38508,-0.94597l8.40636,-12.89749zm-15.09427,27.24553c1.19223,1.36224 1.66171,3.18453 1.28792,4.9996c-0.44501,2.16083 -2.16685,3.89687 -4.28485,4.31988c-1.83202,0.36601 -3.64029,-0.16923 -4.96066,-1.46837c-1.31991,-1.29877 -1.9136,-3.1189 -1.62881,-4.99397c0.3209,-2.11302 1.90342,-3.93193 3.93792,-4.52623c1.12082,-0.32748 2.24687,-0.29476 3.3468,0.09722c0.31632,0.1126 0.66729,-0.00769 0.85318,-0.29279l3.94543,-6.05339c0.38598,0.41045 0.85776,0.7354 1.38517,0.94607l-3.94589,6.05395c-0.18598,0.28501 -0.15967,0.66274 0.0638,0.91803zm18.52742,7.85111c-1.32037,1.29914 -3.12846,1.83429 -4.96066,1.46837c-2.118,-0.42311 -3.83993,-2.15914 -4.28485,-4.31998c-0.37379,-1.81497 0.09569,-3.63726 1.28792,-4.9995c0.22347,-0.25529 0.24987,-0.63302 0.06389,-0.91822l-4.54425,-6.97198c-0.13676,-0.20982 -0.36664,-0.3347 -0.61128,-0.3347c-0.01512,0 -0.03025,0.00047 -0.04537,0.00141c-0.04675,0.00291 -0.09249,0.00872 -0.13813,0.01519c-0.00752,0.00113 -0.01503,0.00225 -0.02246,0.00319c-1.31771,-0.00713 -2.38757,-1.10573 -2.38757,-2.45512c0,-0.36217 0.08625,-0.72462 0.25637,-1.0776c0.11604,-0.24048 0.09789,-0.52614 -0.04757,-0.74928l-7.73541,-11.86779c-0.35564,-0.54565 -0.48223,-1.20033 -0.35656,-1.84338c0.07599,-0.38908 0.23896,-0.74581 0.47407,-1.04741l9.00472,13.81552c0.14519,0.22276 0.39524,0.34961 0.65666,0.33329c0.04675,-0.00291 0.09249,-0.00872 0.13822,-0.01519c0.00752,-0.00113 0.01503,-0.00225 0.02246,-0.00319c1.31771,0.00713 2.38757,1.10573 2.38757,2.45512c0,0.36208 -0.08625,0.72462 -0.25637,1.0776c-0.11604,0.24048 -0.09789,0.52614 0.04757,0.74928l4.54196,6.96861c0.18589,0.2852 0.53686,0.40558 0.85318,0.29279c1.09983,-0.39189 2.22579,-0.4247 3.3468,-0.09722c2.03459,0.59421 3.6171,2.41312 3.93792,4.52623c0.28479,1.87488 -0.3089,3.69511 -1.62881,4.99397z"/>
   <path stroke="null" id="svg_7" d="m18.52341,26.65378l-0.00788,0c-0.40578,0 -0.7309,0.33648 -0.7309,0.75162s0.33291,0.75162 0.73869,0.75162c0.40578,0 0.73484,-0.33648 0.73484,-0.75162s-0.32897,-0.75162 -0.73475,-0.75162z"/>
   <path stroke="null" id="svg_8" d="m34.9749,1l-1.56758,0c-0.40578,0 -0.73484,0.33648 -0.73484,0.75162s0.32897,0.75162 0.73484,0.75162l1.56758,0c0.40578,0 0.73484,-0.33648 0.73484,-0.75162s-0.32897,-0.75162 -0.73484,-0.75162z"/>
   <path stroke="null" id="svg_9" d="m24.00195,2.50315l1.56758,0c0.40578,0 0.73484,-0.33648 0.73484,-0.75162s-0.32906,-0.75153 -0.73484,-0.75153l-1.56758,0c-0.40578,0 -0.73484,0.33648 -0.73484,0.75162s0.32906,0.75153 0.73484,0.75153z"/>
   <path stroke="null" id="svg_10" d="m18.51543,4.90821c0.40578,0 0.73484,-0.33648 0.73484,-0.75162l0,-1.65344l1.61652,0c0.40578,0 0.73484,-0.33648 0.73484,-0.75162s-0.32906,-0.75153 -0.73484,-0.75153l-2.35137,0c-0.40578,0 -0.73484,0.33648 -0.73484,0.75162l0,2.40506c0.00009,0.41505 0.32906,0.75153 0.73484,0.75153z"/>
   <path stroke="null" id="svg_11" d="m28.70468,2.50315l1.56758,0c0.40578,0 0.73484,-0.33648 0.73484,-0.75162s-0.32906,-0.75153 -0.73493,-0.75153l-1.56758,0c-0.40578,0 -0.73484,0.33648 -0.73484,0.75162s0.32906,0.75153 0.73493,0.75153z"/>
   <path stroke="null" id="svg_12" d="m39.67763,1l-1.56758,0c-0.40578,0 -0.73484,0.33648 -0.73484,0.75162s0.32897,0.75162 0.73484,0.75162l1.56758,0c0.40578,0 0.73484,-0.33648 0.73484,-0.75162s-0.32897,-0.75162 -0.73484,-0.75162z"/>
   <path stroke="null" id="svg_13" d="m34.9749,28.25715l-1.56758,0c-0.40578,0 -0.73484,0.33648 -0.73484,0.75162c0,0.41505 0.32897,0.75162 0.73484,0.75162l1.56758,0c0.40578,0 0.73484,-0.33648 0.73484,-0.75162c0,-0.41505 -0.32897,-0.75162 -0.73484,-0.75162z"/>
   <path stroke="null" id="svg_14" d="m24.78574,28.25715c-0.40578,0 -0.73484,0.33648 -0.73484,0.75162c0,0.41505 0.32897,0.75162 0.73484,0.75162l0.78379,0c0.40578,0 0.73484,-0.33648 0.73484,-0.75162c0,-0.41505 -0.32897,-0.75162 -0.73484,-0.75162l-0.78379,0z"/>
   <path stroke="null" id="svg_15" d="m30.27217,28.25715l-1.56758,0c-0.40578,0 -0.73484,0.33648 -0.73484,0.75162c0,0.41505 0.32897,0.75162 0.73484,0.75162l1.56758,0c0.40578,0 0.73484,-0.33648 0.73484,-0.75162c0,-0.41505 -0.32888,-0.75162 -0.73484,-0.75162z"/>
   <path stroke="null" id="svg_16" d="m39.67763,28.25715l-1.56758,0c-0.40578,0 -0.73484,0.33648 -0.73484,0.75162c0,0.41505 0.32897,0.75162 0.73484,0.75162l1.56758,0c0.40578,0 0.73484,-0.33648 0.73484,-0.75162c-0.00009,-0.41505 -0.32897,-0.75162 -0.73484,-0.75162z"/>
   <path stroke="null" id="svg_17" d="m45.16415,16.23195c-0.40578,0 -0.73484,0.33648 -0.73484,0.75162l0,1.60337c0,0.41505 0.32897,0.75162 0.73484,0.75162s0.73484,-0.33648 0.73484,-0.75162l0,-1.60337c-0.00009,-0.41514 -0.32897,-0.75162 -0.73484,-0.75162z"/>
   <path stroke="null" id="svg_18" d="m45.16415,6.61181c-0.40578,0 -0.73484,0.33648 -0.73484,0.75162l0,1.60337c0,0.41505 0.32897,0.75162 0.73484,0.75162s0.73484,-0.33648 0.73484,-0.75162l0,-1.60347c-0.00009,-0.41505 -0.32897,-0.75153 -0.73484,-0.75153z"/>
   <path stroke="null" id="svg_19" d="m45.16415,11.42183c-0.40578,0 -0.73484,0.33648 -0.73484,0.75162l0,1.60337c0,0.41505 0.32897,0.75162 0.73484,0.75162s0.73484,-0.33648 0.73484,-0.75162l0,-1.60337c-0.00009,-0.41505 -0.32897,-0.75162 -0.73484,-0.75162z"/>
   <path stroke="null" id="svg_20" d="m18.51543,19.33847c0.40578,0 0.73484,-0.33648 0.73484,-0.75162l0,-1.60337c0,-0.41505 -0.32897,-0.75162 -0.73484,-0.75162c-0.40578,0 -0.73484,0.33648 -0.73484,0.75162l0,1.60337c0.00009,0.41514 0.32906,0.75162 0.73484,0.75162z"/>
   <path stroke="null" id="svg_21" d="m18.51543,9.71833c0.40578,0 0.73484,-0.33648 0.73484,-0.75162l0,-1.60337c0,-0.41505 -0.32897,-0.75162 -0.73484,-0.75162c-0.40578,0 -0.73484,0.33648 -0.73484,0.75162l0,1.60337c0.00009,0.41505 0.32906,0.75162 0.73484,0.75162z"/>
   <path stroke="null" id="svg_22" d="m18.51543,14.52835c0.40578,0 0.73484,-0.33648 0.73484,-0.75162l0,-1.60337c0,-0.41505 -0.32897,-0.75162 -0.73484,-0.75162c-0.40578,0 -0.73484,0.33648 -0.73484,0.75162l0,1.60337c0.00009,0.41514 0.32906,0.75162 0.73484,0.75162z"/>
   <path stroke="null" id="svg_23" d="m45.16415,21.04207c-0.40578,0 -0.73484,0.33648 -0.73484,0.75162l0,1.60337c0,0.41505 0.32897,0.75162 0.73484,0.75162s0.73484,-0.33648 0.73484,-0.75162l0,-1.60347c-0.00009,-0.41505 -0.32897,-0.75153 -0.73484,-0.75153z"/>
   <path stroke="null" id="svg_24" d="m45.16415,1l-2.35137,0c-0.40578,0 -0.73484,0.33648 -0.73484,0.75162s0.32897,0.75162 0.73484,0.75162l1.61652,0l0,1.65344c0,0.41505 0.32897,0.75162 0.73484,0.75162s0.73484,-0.33648 0.73484,-0.75162l0,-2.40506c-0.00009,-0.41514 -0.32897,-0.75162 -0.73484,-0.75162z"/>
   <path stroke="null" id="svg_25" d="m45.16415,25.85209c-0.40578,0 -0.73484,0.33648 -0.73484,0.75162l0,1.65344l-1.61652,0c-0.40578,0 -0.73484,0.33648 -0.73484,0.75162c0,0.41505 0.32897,0.75162 0.73484,0.75162l2.35137,0c0.40578,0 0.73484,-0.33648 0.73484,-0.75162l0,-2.40506c-0.00009,-0.41505 -0.32897,-0.75162 -0.73484,-0.75162z"/>
   <g stroke="null" id="svg_26"/>
   <g stroke="null" id="svg_27"/>
   <g stroke="null" id="svg_28"/>
   <g stroke="null" id="svg_29"/>
   <g stroke="null" id="svg_30"/>
   <g stroke="null" id="svg_31"/>
   <g stroke="null" id="svg_32"/>
   <g stroke="null" id="svg_33"/>
   <g stroke="null" id="svg_34"/>
   <g stroke="null" id="svg_35"/>
   <g stroke="null" id="svg_36"/>
   <g stroke="null" id="svg_37"/>
   <g stroke="null" id="svg_38"/>
   <g stroke="null" id="svg_39"/>
   <g stroke="null" id="svg_40"/>
  </g>
 </g>
</svg>