<svg xmlns="http://www.w3.org/2000/svg" width="500" height="500" version="1.0" viewBox="0 0 375 375"><defs><clipPath id="a"><path d="M23.746 51H210v323.79H23.746Zm0 0"/></clipPath></defs><path fill="#545454" d="M267.191 164.969c4.22 2.472 7.993 6.183 10.348 11.77a15.041 15.041 0 0 1 .082 11.577 15.151 15.151 0 0 1-2.125 3.653l34.473 112.117-8.434-103.422v-63.203c3.406 7.656 6.563 19.262 8.223 36.527.55 5.758 3.328 10.696 8.027 14.27 6.664 5.074 16.496 6.433 25.125 6.433 7.13 0 13.43-.93 16.453-1.46 6.387-1.126 2.317-24.258-4.074-23.137-2.078.36-4.262.625-6.43.8l1.41-7.453a3.31 3.31 0 0 0-3.23-3.37 3.31 3.31 0 0 0-3.375 3.23l-1.453 7.578.043.27c-3.984-.028-7.395-.403-9.281-1.11-3.176-30.793-11.504-51.8-24.758-62.46-5.817-4.677-11.36-6.356-15.285-6.911a11.317 11.317 0 0 0-2.743-.348h-42.87ZM307.047 318.629c-3.621 1.086-7.512-1.156-8.852-5.11-.039-.117-.074-.234-.113-.351l-33.855-115.445c-.207.007-.41.027-.614.027h-.004c-5.261 0-10.046-2.668-12.796-7.055-.864-.191-2.52-.41-5.583-.41-5.664 0-12.902.742-17.226 1.188-2.012.207-3.973.402-5.895.582v8.613L209.586 354.25c-.816 9.996 6.625 18.754 16.617 19.57 9.992.813 18.754-6.625 19.57-16.62l10.91-133.75h10.282L277.87 357.2c.817 10 9.578 17.433 19.57 16.62 9.993-.816 17.434-9.574 16.622-19.57l-3.165-38.766c-.867 1.536-2.222 2.653-3.851 3.145ZM233.871 82.227l23.152 78.937a37.63 37.63 0 0 1 6.016 1.79l-23.027-74.895a36.785 36.785 0 0 1-6.14-5.832ZM227.402 47.055 215.215 7.418c-.711-2.316-3.695-1.418-3.016.906l13.504 46.043c.317-2.527.89-4.976 1.7-7.312Zm0 0"/><path fill="#545454" d="M269.492 196.555c-.62.265-1.258.468-1.898.644l33.73 115.02c.68 2.328 2.817 3.754 4.754 3.172 1.934-.582 2.93-2.95 2.215-5.266l-35.512-115.492a15.15 15.15 0 0 1-3.289 1.922ZM227.66 188.113c7.031-.722 21.422-2.203 25.461-.195 2.04 4.05 6.164 6.457 10.492 6.457a11.64 11.64 0 0 0 4.563-.93c5.976-2.523 8.777-9.414 6.254-15.39-7.434-17.606-30.578-15.227-49.18-13.309-2.3.234-5.074.52-7.73.73-1.204.098-2.372.176-3.465.231 1.933-14.012 4.93-23.59 8.054-30.004v25.965c.973-.098 1.918-.195 2.793-.285 6.063-.621 12.934-1.328 19.5-1.328 1.977 0 5.2.004 8.918.484l-17.597-60.008c-.149-.023-.293-.058-.446-.074-1.71-.207-10.77-.852-20.59 7.016-9.445 7.57-16.382 20.418-20.753 38.289-1.832 7.488-3.223 15.84-4.145 25.09v.02c-.027.245-.023.487-.035.733-.008.157-.024.317-.024.47-.136 4.452 1.43 8.546 4.516 11.62 4.793 4.778 11.594 5.805 19.973 5.516 4.117-.145 8.605-.602 13.441-1.098ZM228.785 58.914c0 18.25 14.793 33.04 33.04 33.04 18.245 0 33.034-14.79 33.034-33.04 0-18.246-14.789-33.039-33.035-33.039-18.246 0-33.039 14.793-33.039 33.04ZM282.43 69.09c-4.27 6.918-11.899 11.555-20.606 11.555-8.71 0-16.34-4.637-20.61-11.555Zm0 0"/><g clip-path="url(#a)"><path fill="#545454" d="M27.05 183.855c.9 4.38 4.134 7.68 8.134 8.883L49.422 368.93c.195 2.414 2 4.246 4.012 4.07 2.011-.176 3.468-2.293 3.238-4.707L40.21 193.109c.234-.03.469-.058.703-.105l39.945-8.195a11.744 11.744 0 0 0 9.332-10.399c1.778-18.75 5.317-30.87 9.04-38.512v64.985L86.702 354.465c-.812 9.996 6.629 18.754 16.621 19.57 9.992.813 18.754-6.62 19.57-16.617l10.907-133.75h10.281l10.91 133.75c.817 9.996 9.578 17.434 19.57 16.617 9.993-.816 17.434-9.574 16.618-19.57l-12.524-153.582v-75.149l16.36 2.368c3.777-9.067 8.52-16.309 14.207-21.684l-39.465-5.711a11.665 11.665 0 0 0-1.317-.113c-.375-.035-.75-.055-1.132-.055h-56.727c-.238 0-.469.02-.7.035-3.734.094-10.722 1.2-18.14 7.168-12.262 9.871-20.3 28.61-23.949 55.762l-29.79 6.11-10.956-116.63c-.227-2.41-3.332-2.14-3.137.278l9.512 117.68c-4.711 2.288-7.473 7.542-6.371 12.913Zm0 0"/></g><path fill="#545454" d="M138.945 92.172c18.25 0 33.04-14.793 33.04-33.043 0-18.246-14.79-33.04-33.04-33.04-18.246 0-33.039 14.794-33.039 33.04 0 18.25 14.793 33.043 33.04 33.043Zm20.61-23.082c-4.274 6.918-11.899 11.555-20.61 11.555-8.707 0-16.336-4.637-20.61-11.555Zm0 0"/></svg>