<svg xmlns="http://www.w3.org/2000/svg" width="500" height="500" version="1.0" viewBox="0 0 375 375"><defs><clipPath id="a"><path d="M196.55 40.02H342.8V145H196.55Zm0 0"/></clipPath><clipPath id="b"><path d="M234 129h71v64.77h-71Zm0 0"/></clipPath></defs><path fill="#545454" d="M327.906 128.594c-4.219 1.484-10.719 3.437-19.433 5.097-.586.957-1.301 2.004-2.082 3.075 10.187-1.786 17.687-4.016 22.394-5.672 3.55-1.25 5.938-4.547 5.938-8.2V73.938c0-2.136-1.012-4.12-2.774-5.445-14.422-10.828-30.582-15.789-41.597-18.039-11.75-2.406-20.086-2.336-20.68-2.328-.598-.008-8.934-.078-20.684 2.328-11.015 2.25-27.172 7.211-41.597 18.04-1.762 1.323-2.774 3.308-2.774 5.445v48.957c0 3.652 2.387 6.949 5.938 8.199 5.047 1.777 13.308 4.21 24.648 6.054-.683-1.12-1.297-2.152-1.797-2.992-10-1.754-17.355-3.937-21.969-5.562-2.496-.88-4.167-3.168-4.167-5.7V73.938c0-1.292.625-2.507 1.714-3.324 25.864-19.418 57.907-19.836 60.496-19.836h.168l.024.004.02-.004c.331 0 33.8-.332 60.663 19.836 1.09.817 1.715 2.032 1.715 3.325v48.957c0 2.53-1.672 4.82-4.164 5.699"/><g clip-path="url(#a)"><path fill="#545454" d="M339.55 64.008c-16.179-12.7-34.312-18.512-46.667-21.156-13.13-2.805-22.477-2.735-23.211-2.723-.738-.012-10.086-.082-23.215 2.723-12.355 2.644-30.484 8.457-46.668 21.156a8.349 8.349 0 0 0-3.234 6.61v55.26c0 4.407 2.77 8.384 6.886 9.9 6.864 2.523 19.02 6.183 36.22 8.359a143.022 143.022 0 0 1-2.724-4.184c-15.14-2.156-25.925-5.426-32.187-7.73-2.637-.97-4.406-3.52-4.406-6.344V70.617c0-1.418.648-2.738 1.781-3.629 15.582-12.222 33.082-17.843 45.02-20.406 11.867-2.55 20.746-2.668 22.265-2.668h.227l.035.004.031-.004c.094 0 9.5-.125 22.492 2.668 11.938 2.563 29.438 8.184 45.02 20.406 1.133.89 1.785 2.211 1.785 3.63v55.26a6.78 6.78 0 0 1-4.41 6.345c-6.016 2.21-16.203 5.32-30.418 7.472a161.118 161.118 0 0 1-3.527 4.32c16.69-2.19 28.523-5.761 35.253-8.238 4.122-1.515 6.887-5.492 6.887-9.898V70.617c0-2.586-1.176-5-3.234-6.61"/></g><g clip-path="url(#b)"><path fill="#545454" d="M288.777 156.074c-.683-.648-1.324-1.3-1.824-2.262 1.45-1.414 3.067-4.511 4.899-8.03 1.628-3.118 3.445-6.598 4.945-8.313-3.215 5.453-5.922 11.785-8.02 18.605Zm-5.707 29.293c.266-.277.535-.562.805-.847a106.257 106.257 0 0 0-.117 5.457 107.775 107.775 0 0 0-2.164-3.051c.492-.524.984-1.043 1.476-1.559Zm-7.972 6.133-.91-1.059c-.887-1.039-1.782-2.082-2.672-3.125a420.376 420.376 0 0 1 4.136-4.988c1.2 1.488 2.364 2.977 3.477 4.457-1.43 1.547-2.817 3.117-4.031 4.715Zm-9.41.09c-1.528-1.528-2.817-2.942-4.067-4.309-.086-.09-.168-.183-.25-.273a317.107 317.107 0 0 1 3.422-4.676c1.414 1.676 2.836 3.348 4.254 5.012a241.68 241.68 0 0 0-3.36 4.246Zm-28.06-58.184c0-.777.634-1.41 1.411-1.41h61.262a1.41 1.41 0 1 1 0 2.82h-61.262c-.777 0-1.41-.632-1.41-1.41Zm48.54 18.453c-.29-1.39-.398-3.625-.504-5.812-.133-2.738-.281-5.781-.762-8.578h9.508c-1.383 1.969-2.824 4.734-4.234 7.437-1.36 2.61-2.86 5.477-4.008 6.953Zm.394 12.578c-1.125-1.292-2.48-2.714-3.898-4.195l-.414-.433c1.148-1.5 2.277-2.993 3.39-4.48.63.976 1.356 1.671 2.024 2.3.176.164.344.324.508.488-.59 2.07-1.129 4.18-1.61 6.32Zm-4.21 9.86c1-1.215 2.003-2.461 3.015-3.738a116.214 116.214 0 0 0-.906 6.504c-.61-.825-1.32-1.754-2.11-2.766Zm-12.356 1.215a426.68 426.68 0 0 1 4.442 5.316 500.985 500.985 0 0 0-4.172 5.024 757.04 757.04 0 0 1-4.305-5.075 586.609 586.609 0 0 1 4.035-5.265Zm-9.422-1.227c.594-.812 1.2-1.644 1.817-2.492.671-.926 1.363-1.871 2.062-2.824 1.113 1.324 2.23 2.636 3.34 3.945.316.371.637.746.953 1.121a548.555 548.555 0 0 0-4.035 5.254 466.677 466.677 0 0 1-4.137-5.004Zm-3.734 7.973a146.74 146.74 0 0 0-.2-2.684c.891-1.168 1.817-2.41 2.778-3.71a567.048 567.048 0 0 0 4.125 4.98 326.67 326.67 0 0 0-3.48 4.738 101.988 101.988 0 0 0-3.223-3.324Zm.137 2.824c.691.715 1.34 1.402 1.96 2.074-.636.899-1.265 1.797-1.882 2.7.004-1.606-.02-3.196-.078-4.774Zm1.203-10.738a271.55 271.55 0 0 1-1.809 2.445c-.21-1.926-.473-3.82-.785-5.687.851 1.078 1.719 2.16 2.594 3.242Zm.273-12.696c1.54 1.95 3.133 3.895 4.746 5.825a769.516 769.516 0 0 0-2.34 3.207c-.511.707-1.02 1.402-1.52 2.086a311.602 311.602 0 0 1-4.507-5.715l-.176-.809a344.124 344.124 0 0 1 3.797-4.594Zm-4.871-6.511c1.16 1.66 2.395 3.324 3.68 4.988-1.07 1.277-2.145 2.559-3.145 3.777a89.764 89.764 0 0 0-1.804-6.394c.394-.676.812-1.461 1.269-2.371Zm-4.367-6.95c1.347 2.61 2.254 4.336 3.074 5.282a56.083 56.083 0 0 1-.805 1.61c-2.257-6.333-5.175-12.11-8.722-17.18 2.472 2.55 4.656 6.788 6.453 10.288Zm5.23-2.925c-.187 2.613-.382 5.3-1.047 6.558-.683-.972-1.601-2.757-2.496-4.5-1.668-3.242-3.656-7.097-5.984-9.851h10.492c-.582 2.574-.789 5.312-.965 7.793Zm12.157-2.106c-.668 3.528-1.41 7.457-2.422 9.031-.957-1.406-1.805-4.734-2.563-7.726-.597-2.367-1.215-4.793-1.984-6.992h8.14c-.437 1.82-.808 3.777-1.171 5.687Zm11.87-.23c-.886 3.43-1.87 7.23-2.949 9.039-.78-1.703-1.418-5.125-2.035-8.457-.37-2-.754-4.047-1.207-6.04h7.684c-.527 1.731-1.016 3.618-1.492 5.458Zm-3.097 22.637c-1.078-1.329-2.176-2.676-3.262-4.016-.36-.438-.715-.879-1.074-1.317a109.952 109.952 0 0 1 4.352-5.214c1.28 1.613 2.808 3.273 4.367 4.922a1080.25 1080.25 0 0 1-4.383 5.625Zm-.016 3.085a.414.414 0 0 0 .04-.046 559.57 559.57 0 0 1 4.527 5.664 710.258 710.258 0 0 1-4.25 5.086 408.707 408.707 0 0 0-4.492-5.372c1.394-1.789 2.793-3.566 4.175-5.332Zm-11.175-13.878a1174.59 1174.59 0 0 0 4.433 5.48 304.87 304.87 0 0 0-4.265 5.652 258.003 258.003 0 0 1-4.657-5.734 466.524 466.524 0 0 0 4.489-5.398Zm5.543-17.301h.605c.488 2.086.898 4.261 1.293 6.383.879 4.742 1.523 7.964 2.586 9.648-1.418 1.566-2.895 3.336-4.395 5.223a882.094 882.094 0 0 1-4.246-5.254c1.36-1.875 2.082-5.668 2.895-9.961.387-2.043.785-4.145 1.262-6.04Zm-16.243 15.726.016.024-.063.043Zm1.164.157c1.22-1.524 1.434-4.415 1.688-7.954.18-2.546.39-5.378 1.016-7.93h.265c.848 2.274 1.516 4.903 2.164 7.458.961 3.785 1.754 6.918 3.008 8.558-1.324 1.63-2.816 3.407-4.281 5.153a127.338 127.338 0 0 1-3.86-5.285Zm14.59 18.335c-1.207-1.421-2.425-2.851-3.633-4.289a302.836 302.836 0 0 1 4.239-5.636c.265.328.535.656.8.98l3.532 4.348-.305.39c-1.308 1.665-2.625 3.34-3.937 5.028-.235-.274-.465-.547-.696-.82Zm12.055-10.136c1.793 1.87 3.484 3.644 4.687 5.144a244.82 244.82 0 0 1-4.824 6.07 582.49 582.49 0 0 0-4.558-5.695 1133.19 1133.19 0 0 0 4.484-5.746c.07.078.14.149.211.227Zm1.684-24.082c.507 2.765.66 5.883.796 8.668.16 3.32.286 5.84.899 7.316a337.29 337.29 0 0 1-3.742 4.965c-1.535-1.625-3.016-3.254-4.239-4.813 1.461-1.886 2.47-5.78 3.614-10.207.523-2.02 1.062-4.093 1.64-5.93Zm1.07 44.105c-.77.828-1.57 1.668-2.348 2.485-.418.437-.836.882-1.254 1.324a187.1 187.1 0 0 0-3.55-4.535c.066-.082.136-.168.207-.246 1.32-1.575 2.66-3.168 4.015-4.809 1.29 1.664 2.348 3.082 3.059 4.133a76.023 76.023 0 0 0-.13 1.648ZM300.3 137.47a4.07 4.07 0 0 0 4.062-4.063 4.07 4.07 0 0 0-4.062-4.062h-61.262a4.07 4.07 0 0 0-4.062 4.062 4.07 4.07 0 0 0 4.062 4.063h1.082c10.3 13.804 15.629 33.515 14.996 55.52l.946.027.789.523a203.05 203.05 0 0 1 3.394-4.953c1.465 1.601 2.977 3.258 4.871 5.11l.66-.68.754.578a239.269 239.269 0 0 1 3.77-4.785l2.449 2.863 1.68 1.96.718-.616.774.55c1.25-1.754 2.765-3.507 4.355-5.234a90.003 90.003 0 0 1 3.672 5.398l1.164-.726.586-.02c-.64-19.894 4.453-41.082 13.313-55.515h1.289"/></g><path fill="#545454" d="M261.23 123.117v1.918h-16.875V89.367h50.63v35.668h-16.876v-1.918Zm16.88 5.164v-.594h19.527V86.715h-55.934v40.972h19.527v.594h2.653v-2.511h11.578v2.511h2.648"/><path fill="#545454" fill-rule="evenodd" d="M127.86 84.55c-.962 1.735-3.141 13.427-8.481 19.75-4.012.735-6.621 4.02-7.64 6.325-1.65 3.754-.712 8.73-.489 9.648.223.899 1.223 3.387.04 7.508-1.18 4.121-.548 5.406-.446 8.793.078 3.387-5.852 18.301-5.852 18.301s-3.828 2.652-4.765 3.305c-.918.632-.184 1.367-.184 1.367s-5.852 6.14-7.215 7.426c-1.367 1.285-3.2 1.468-9.781 6.957-6.582 5.488-17.363 24.257-17.363 24.257s-.653-.078-4.524.184c-3.87.266-3.344 1.348-3.832 1.43-.508.062-1.078.062-2.812-.266-1.73-.305-3.036-1.324-4.848-2.02-1.793-.714-2.102-.511-2.469.305-.367.797 1.57 1.207 3.242 2.02 1.672.797 4.871 2.898 4.871 2.898s-.917.532-1.082.614c-.164.101-1.16.222-2.628.183-1.465-.043-4.157.121-5.887.266-1.735.14-2.426.406-2.672 1.265-.266.836.57.528 2.59.426 2.015-.12 6.273.203 6.273.203l.45.715s-2.63.55-4.157 1.367c-1.527.817-2.015.45-3.015.676-.977.223-2.426.262-2.813.734-.387.446-.57 1.04-.164 1.04.41 0 4.566-.305 5.016-.204.445.102-1.47.508-2.426 1.04-.957.53-1.223.777-1.305 1.53-.101.755.633.47 2.567-.019 1.918-.492 6.296-1.328 7.539-1.676 1.246-.343 1.652-.039 3.304-.691 1.649-.633 11.106-4.512 12.696-6.02 1.609-1.511.773-1.039 3.648-4.265 2.89-3.203 13.164-10.586 16.32-13.098 3.16-2.508 5.34-6.59 7.36-8.914 2.015-2.347 8.945-5.183 8.945-5.183s-.183 1.449-.203 1.675c-.023.223-.45 2.243-1.531 4.528-1.098 2.285-.856 10.406-.856 10.406s-.734 1.875-1.976 2.793c-1.223.898-1.04.715-2.2 1.879-1.14 1.14-.878 1.101-1.609 1.508-.734.41-.918.675-2.469 3.386-1.547 2.696-2.527 11.793-2.445 14.282.102 2.468-.082 3.57-.16 5.406-.106 1.836.16 2.836.16 3.55 0 .735-.262 1.551-.996 2.489-.715.898-.715 2.57-1 3.387-.266.816-7.54 16.793-7.95 17.527-.406.734.31.55.716.773.406.227-3.79 13.914-7.54 19.055-3.75 5.121-9.152 7.613-16.18 15.02C52.603 287.816 44 306.117 44 306.117s-.406.14-1.04.324c-.628.164-8.23 10.528-8.23 10.528s-.917-.266-2.343.265c-1.426.551-2.793 1.102-5.075 1.246-2.304.122-3.792-.511-4.445-.593-.648-.102-1.18.449-3.422 2.777-2.261 2.344-1.61 12.32-1.61 12.32s1 5.856.817 9.875c-.183 4.02-3.382 7.141-1.367 14.465 2.02 7.324 9.781 10.914 12.797 9.344 3.016-1.55 2.203-3.836 2.832-9.711.633-5.855 6.766-19.586 7.031-20.219.266-.652 2.75-2.754 3.465-4.039.735-1.285-1.183-2.836-1.183-2.836s8.785-12.527 9.152-13.097c.367-.551.367-.817.324-1.145-.058-.305.184-.894 4.567-5.3 4.382-4.387 28.917-26.282 32.562-29.747 3.648-3.492 3.281-4.96 4.117-5.96.817-.997 1-.813 3.934-3.755 2.933-2.914 12.246-15.648 12.246-15.648s2.652-.445 4.484-1.285c1.836-.817 17.649-23.258 18.18-23.176.547.102 21.496 5.14 21.496 5.14l2.059-4.894s1.468.164 7.277-.246c5.805-.406 14.855-1.102 15.324-.957.446.121 3.137 3.387 10.555 9.14 7.418 5.774 21.906 9.547 22.273 10.079.368.527 14.551 8.3 14.551 8.566s.266 1.512 2.016 2.98c1.754 1.47 2.937 1.919 4.015 3.286 1.102 1.367 3.118 4.16 4.301 4.812 1.18.633 4.117-2.469 6.215-6.304 2.121-3.832 1.938-7.508 2.75-9.61.816-2.12 4.016-5.668 5.848-10.71 1.836-5.04-.04-9.079-1.692-11.63-1.648-2.57-2.87-1.058-4.523.594-1.649 1.652-3.871 8.914-4.625 9.649-.711.714-.895 1.367-2.383 2.652-1.469 1.285-2.102 1.144-4.117 1.144-2.02 0-2.344-.328-4.707-.144-2.363.183-1.04.367-1.957.266-.918-.083-10.004-5.344-10.004-5.344s-1.735-1.469-9.703-7.426c-7.946-5.961-15.344-11.184-16.098-12.102-.734-.894-2.75-2.836-5.48-4.855-2.754-2.02-5.586-1.836-6.32-2.203-.712-.367-9.231-3.102-11.981-3.938-2.73-.836-2.363-1.734-6.848-3.304-4.484-1.551-20.031-4.121-20.031-4.121s-.184-.653.367-2.204c.55-1.55.45-3.671-.184-6.406-.632-2.754-.082-6.039.368-11.262.449-5.222 3.465-15.382.734-27.277-2.754-11.914-2.406-21.238-2.406-21.238s.144.039 1.222-.918c1.079-.961.856-2.672 1.16-3 .31-.324.532-2.04.551-2.488.02-.45-.039-1.43-.039-1.43s.426-.527.489-1.223c.062-.715-.489-2.02-.489-2.02s1.63-1.773 1.16-2.12c-.449-.348-4.117-3.407-4.378-3.778-.29-.367-.184-4.199-1.145-5.547-.957-1.347-2.422-3.062-2.422-3.062s.184-2.242-.183-2.895c-.368-.632 5.703-20.812 5.703-20.812s1-2.488 2.855-6.774c1.832-4.304 5.848-31.867 6.153-32.273.164-.227 1.507-.594 2.773-1.102a18.55 18.55 0 0 0 5.34.793c9.965 0 18.054-8.097 18.054-18.074 0-9.976-8.09-18.078-18.058-18.078-7.762 0-14.387 4.918-16.934 11.793a1.71 1.71 0 0 0-.304.45c-.141.284-.266.98-.325 1.652-.125.492-.226 1-.308 1.511l-.16.02c-.164.02-.918 1.367-1.184 2.918-.246 1.55 1.184 5.773 1.078 6.672-.078.898 3.16 6.629 3.242 7.261.102.633-2.28 7.692-7.949 18.118-5.683 10.445-5.847 22.156-5.847 22.156s.183 1.531-1.079 3.918Zm0 0"/></svg>