<svg xmlns="http://www.w3.org/2000/svg" width="500" height="500" version="1.0" viewBox="0 0 375 375"><path fill="#545454" d="M364.742 180.313c.445 58.988-18.387 103.98-56.406 140.59-28.066 26.995-61.805 43.234-100.504 47.765-53.422 6.27-100.527-8.996-140.687-44.652-29.801-26.47-48.907-59.54-55.875-98.774C0 161.785 16.777 106.078 60.918 59.117c25.523-27.168 57.23-44.062 93.832-50.922 43.445-8.133 84.367-.36 121.898 22.887 44.778 27.738 72.442 67.988 83.793 119.27 2.63 11.773 3.477 23.925 4.301 29.96Zm-354.09 9.21c.32 14.524 1.696 28.793 5.254 42.684 13.559 52.914 44.864 91.977 93.516 116.645 34.058 17.253 70.3 22.21 107.879 15.203 33.887-6.313 63.586-21.368 88.387-45.356 45.964-44.484 63.312-98.816 52.953-161.55-6.946-42.137-27.43-77.41-59.559-105.59C270.02 26.066 236.066 11.434 197.41 8.617c-29.144-2.117-57.273 3.028-83.285 16.281C46.918 59.094 14.34 115.375 10.652 189.523Zm0 0"/><path fill="#545454" d="M51.957 283.55c-2.754 0-5.293.192-7.773-.081-1.227-.13-2.797-.828-3.41-1.781-.422-.676.234-2.391.867-3.325 1.187-1.754 2.714-3.281 4.597-5.48-2.73.254-4.617.738-6.375.484-1.23-.168-2.328-1.375-3.472-2.117.847-.762 1.629-1.652 2.582-2.223 1.886-1.101 3.855-2.03 5.824-2.984 1.844-.89 3.73-1.738 5.805-2.691-1.04-.442-2.266-.762-3.22-1.438-.741-.508-1.503-1.441-1.589-2.246-.063-.57.871-1.461 1.547-1.863 1.95-1.184 4.215-1.946 5.953-3.368 6.863-5.652 14.7-5.523 22.621-3.683 2.965.7 4.617.023 6.629-2.05 8.535-8.767 17.305-17.302 25.883-26.024 1.039-1.059 1.972-2.563 2.27-3.98 3.831-19.27 7.558-38.56 11.245-57.848 1.016-5.332 2.692-10.352 5.91-14.797.614-.848.657-2.14.825-3.262.105-.785-.106-1.59-.063-2.371.235-3.961-.234-7.645-1.61-11.54-2.628-7.515.15-14.25 5.063-20.136 1.715-2.055 3.516-4.066 5.485-5.887 6.883-6.308 9.597-13.824 7.605-23.097-1.504-7.075.34-13.192 6.184-17.828.445-.34.828-.848 1.058-1.356 2.672-5.719 4.872-11.71 8.051-17.129 6.395-10.949 16.625-15.097 28.871-13.87 11.184 1.124 19.188 7.007 23.278 17.784.445 1.207 1.504 2.332 2.543 3.114 11.035 8.449 14.78 21.109 10.015 34.238-.55 1.48-1.078 2.984-1.758 4.426-2.582 5.523-1.671 10.375 2.543 14.757 1.778 1.864 3.496 3.832 5 5.926 6.141 8.598 7.774 17.68 2.329 27.504 13.113 5.422 16.69 16.559 18.746 29.074 2.879 17.508 6.355 34.934 9.933 52.34.551 2.625 3.094 4.828 4.895 7.496 7.199-4.851 13.789-9.847 22.98-9.21-.719-6.227-1.312-12.22-2.14-18.169-1.586-11.347-4.215-22.422-9.192-32.84-.445-.953-.043-2.285-.043-3.449 1.059.274 2.29.293 3.156.868 16.946 11.242 27.918 26.824 33.551 46.285 1.567 5.398 3.156 10.797 4.746 16.195.274.023.57.043.848.043 1.398-4.996 2.902-9.95 4.152-14.992 2.137-8.7 4.47-17.317 9.594-24.856 2.563-3.77 5.527-7.18 9.953-9.23-4.785 7.472-9.976 14.734-12.304 23.394-2.31 8.598-4.301 17.258-6.165 26.086 6.696-5.504 13.704-6.988 21.372-3.472.043.277.066.57.105.847-1.102 0-2.203.063-3.3 0-6.653-.402-12.075 1.989-16.184 7.2-1.715 2.18-3.137 4.613-4.914 6.734-.848 1.016-2.414 2.328-3.329 2.117-1.035-.234-2.136-1.93-2.457-3.176-1.734-6.82-3.046-13.765-4.89-20.582-3.324-12.344-7.625-24.308-16.055-34.238-3.18-3.746-6.926-7.027-10.402-10.523-.254.171-.508.34-.762.507.89 3.157 2.074 6.27 2.625 9.489 1.906 11.242 3.645 22.507 5.277 33.793.254 1.754.7 2.793 2.372 3.597 6.078 2.985 10.652 7.559 13.769 13.594.273.508.441 1.078.613 1.652.043.149-.129.36-.34.887-5.824-7.387-12.39-13.465-22.324-13.781-4.535-.149-10.379 2.476-14.828 6.414 9.215-3.961 18.152-3.938 26.606 1.82 4.171 2.84 7.898 6.121 9.933 10.82-.234.317-.469.637-.699.954-1.547-.891-3.2-1.61-4.598-2.668-2.773-2.098-5.293-4.532-8.152-6.52-6.336-4.406-15.211-4.492-21.648-.191.824.867 1.59 1.734 2.394 2.539 5.207 5.336 10.379 10.715 15.672 15.965.594.593 1.863.828 2.773.785 4.641-.297 9.258-.91 13.899-1.102 3.367-.129 6.351 1.227 9.086 3.238 2.222 1.63 4.722 2.946 7.011 4.512.887.613 1.567 1.567 2.352 2.348-.89.848-1.719 1.781-2.691 2.5-.489.36-1.27.316-2.332.55 4.3 2.266 8.285 4.278 12.16 6.415.824.445 1.375 1.355 2.054 2.054-.933.743-1.843 2.032-2.84 2.098-2.203.125-4.445-.34-7.601-.68 1.988 2.352 3.578 4.043 4.914 5.95.633.933 1.375 2.648.973 3.261-.656.953-2.18 1.61-3.43 1.778-2.203.277-4.473.086-6.992.086-.211 19.562-12.942 26.507-30.16 29.898 4.234.738 7.558 1.332 10.886 1.902-.023.364-.062.723-.086 1.082-17.644 2.286-35.414 1.016-53.101 1.567-1.629 4.531-3.535 5.336-8.387 4.765-7.285-.87-14.617-1.632-21.965-1.863-13.515-.402-27.05-.617-40.586-.445-5.21.062-10.418 1.375-15.628 2.094-7.395.996-14.786 1.93-22.157 2.921-1.164.149-2.332.489-3.472.743-4.895 1.101-8.008-1.59-7.5-6.52.043-.488.105-.996.21-1.758-19.78-.593-39.628.91-59.285-1.547-.023-.382-.062-.761-.086-1.144 3.56-.527 7.118-1.035 10.676-1.567-15.93-3.726-28.277-10.84-28.574-30.511Zm87.543 38.938c.043.172.105.32.148.489 8.707-1.375 17.41-2.793 26.137-4.086 4.406-.657 8.856-1.375 13.281-1.442 11.926-.187 23.914.594 35.778-.187 22.386-1.461 44.754-3.578 67.101-5.739 8.09-.785 16.14-2.37 23.47-6.226 8.194-4.297 12.94-12.363 12.03-20.285-1.082-9.317-7.562-17.36-16.71-19.098-5.15-.973-10.7-.676-15.93.024-6.145.824-12.16 2.687-18.215 4.105 4.426 1.672 9.023 1.926 12.113 5.887-1.375.254-2.668.148-3.894-.192-8.157-2.265-16.438-3.511-24.657-.738-9.87 3.324-19.804 6.582-29.273 10.86-13.727 6.226-27.008 13.468-40.606 19.988-2.835 1.355-6.207 1.992-9.359 2.16-4.851.254-9.766.062-14.598-.422-10.336-1.02-17.343 4.445-23.445 11.664-.7.828-.762 3.027-.129 3.875.977 1.355 2.711 1.164 3.434.508-.594-2.18-1.738-4.043-1.274-5.293.828-2.266 5.317-3.113 7.797-1.863-1.781.636-3.472 1.101-5.02 1.882-.53.278-.679 1.293-1.019 1.973.723.04 1.485.23 2.164.063 1.672-.403 3.219-2.118 5.528-.086-1.825.847-3.329 1.503-4.852 2.18Zm11.227-109.675c3.793 18.78 2.988 36.269-7.098 52.277 21.797 16.367 63.82 16.305 85.152-.024-9.492-15.984-10.21-33.261-6.715-51.746-8.136 6.309-16.418 6.227-24.804 3.602-6.883-2.16-13.598-2.309-20.48-.149-8.942 2.793-17.626 2.88-26.055-3.96Zm34.93 86.41c-.68-.446-.977-.68-1.317-.828-14.043-6.266-27.895-13.02-42.192-18.653-14.593-5.738-29.695-9.062-45.328-3.43-.613.211-1.398-.042-2.097-.085-.063-.297-.125-.594-.211-.891 3.601-2.941 8.281-3.512 12.96-5.145-10.46-2.921-20.46-5.695-31.07-5.101-9.406.527-18.238 8.195-20.25 17.805-1.93 9.19 2.817 18.804 11.883 22.68 5.063 2.155 10.485 4.019 15.906 4.698 14.762 1.84 29.633 2.922 44.438 4.489 2.883.297 4.832-.465 6.758-2.582 3.941-4.32 8.855-7.114 14.761-7.602a90.02 90.02 0 0 1 11.926-.148c7.965.422 15.696.168 22.516-4.7.254-.148.55-.19 1.316-.507ZM153.5 136.8c-.23 2.836-.445 5.312-.676 7.77-.953 10.292-1.824 20.581-2.883 30.85-.675 6.712-2.117 13.36-2.285 20.071-.277 9.613 4.297 16.242 12.137 18.844 5.293 1.758 10.633 1.039 15.82-.613 7.328-2.352 14.532-2.266 21.965-.125 3.918 1.12 8.219 1.629 12.309 1.418 6.586-.34 11.332-3.961 13.808-10.164 1.97-4.934 1.887-10.102 1.313-15.266-1.863-16.559-3.875-33.117-5.57-49.695-.317-3.09-1.399-3.746-3.56-3.176-1.12 8.555-2.16 16.875-3.28 25.2-1.059 7.874-3.856 14.776-10.993 19.202-5.19 3.219-9.976 6.88-13.43 12.067-.402.617-1.124 1.058-1.78 1.652-.508-.402-.997-.633-1.25-.996-3.961-6.074-9.614-10.203-15.59-14.059-3.79-2.453-6.352-6.054-7.582-10.375-1.036-3.597-1.778-7.324-2.309-11.031-.996-7.133-1.734-14.313-2.605-21.703-.868 0-2.032.043-3.559.129Zm138.887 119.27c-2.117-2.372-3.918-4.618-5.953-6.65-8.364-8.362-16.817-16.644-25.16-25.026-1.145-1.145-2.247-2.649-2.606-4.149a403.099 403.099 0 0 1-4.195-20.117c-2.477-13.57-4.66-27.207-7.246-40.758-2.223-11.601-11.457-19.902-21.625-20.156-2.075-.063-2.88.488-2.649 2.668 1.02 10.27 1.844 20.578 2.945 30.847.465 4.383 1.418 8.723 2.141 13.086.316 0 .613-.02.93-.02.574-5.823 1.144-11.667 1.719-17.491.316.043.632.086.953.11 1.734 6.116 1.504 12.237-.024 18.417-.445 1.781-.89 3.793-.488 5.484 3.668 14.739 7.52 29.43 11.312 44.125 1.547 6.016 5 10.567 10.528 13.403 5.824 3.008 11.648 6.035 17.601 8.746 2.266 1.015 4.914 1.523 7.414 1.629 8.114.34 16.309-.656 24.317 1.566.57.172 1.523-.254 2.012-.719 5.296-4.953 6.585-5.144 13.152-2.351 1.93.828 4.004 1.273 5.996 1.887.062-.235.148-.489.21-.723-12.495-8.043-8.304-7.262-18.066-7.473-4.726-.086-9.382.168-13.218 3.664ZM149.605 139.53c-.933-.125-1.503-.273-2.078-.273-.78 0-1.59.043-2.37.168-9.555 1.715-15.634 7.472-18.473 16.535-1.29 4.129-1.84 8.512-2.668 12.789-3.22 16.559-6.461 33.137-9.551 49.715-.488 2.586-1.528 4.555-3.367 6.375-10.403 10.312-20.696 20.726-31.075 31.144-8.367-5.652-18.132-5.59-32.64 4.532 1.566 0 2.625.21 3.558-.043 1.715-.465 3.473-1.016 5-1.864 4.66-2.601 8.704-1.925 12.473 1.739.68.656 1.867 1.207 2.797 1.164 8.43-.36 16.84-.805 25.25-1.336 1.437-.082 2.965-.403 4.277-1.016 5.7-2.582 11.313-5.355 16.989-7.98 6.882-3.157 11.14-8.387 13.027-15.692 3.324-12.976 6.84-25.914 10.082-38.914.656-2.605 1.184-5.613.508-8.09-1.504-5.57-1.95-11.136-1.461-16.812.105-1.207.55-2.371.847-3.578.293 0 .614.023.91.023.72 6.031 1.462 12.09 2.18 18.121.278-.02.575-.02.848-.039 3.137-15.265 3.875-30.808 4.937-46.668Zm38.38 47.473c4.109-3.05 8.261-5.91 12.117-9.106 2.265-1.863 4.593-4.003 5.949-6.5 4.195-7.664 3.879-16.39 5.422-24.328h-21.18c2.012-.847 3.285-1.757 4.66-1.925 4.531-.532 9.11-.743 13.64-1.188 1.376-.125 3.262.063 3.243-2.16-.024-1.969.633-4.172-2.098-5.274-3.75-1.5-6.504-4.34-8.07-7.98-1.336-3.113-2.055-6.48-3.113-9.91-8.157 4.574-16.649 4.531-25.102-.317-1.035 10.524-2.86 13.297-11.035 18.61-1.121.722-1.375 3.242-1.418 4.933-.023.7 1.547 1.973 2.5 2.078 4.723.57 9.488.762 14.234 1.27 1.227.125 2.348.996 3.536 1.504-.106.125-.211.254-.317.379h-19.637c.848 5.633 1.653 11.328 2.586 16.98.848 5.063 2.922 9.508 7.157 12.64 4.406 3.282 8.875 6.5 13.199 9.638.36-1.993.824-4.407 1.27-6.82.382 0 .761.023 1.144.023.445 2.582.91 5.144 1.312 7.453Zm-1.778-68.54c9.297-.019 15.418-4.913 18.723-13.128 4.195-10.48 5.972-21.594 6.925-32.797.086-1.059-.91-2.414-1.757-3.324-2.586-2.73-6.059-4.89-7.836-8.024-2.203-3.875-5.13-5.25-9.13-5.867-4.491-.695-8.41-.105-11.839 3.176-5.234 5-11.227 8.852-18.238 10.926-1.739.508-2.309 1.504-2.184 3.261.805 11.032 2.734 21.872 6.524 32.27 3.156 8.66 10.148 13.445 18.812 13.508ZM103.789 265.09v.21c6.672 1.845 13.344 3.641 20.016 5.528 8.386 2.371 17.05 4.106 25.078 7.367 13.156 5.317 25.883 11.668 38.847 17.446 1.122.511 2.88.468 4.004-.04 3.98-1.8 7.793-3.94 11.711-5.886 14.957-7.434 30.121-14.313 46.387-18.57 6.398-1.672 12.711-3.747 19.7-5.844-7.817.594-14.93 1.375-22.071 1.652-9.426.36-18.344 1.906-26.965 6.246-9.805 4.934-20.394 7.75-31.496 8.215-15.863.637-30.332-4.129-44.246-11.242-2.16-1.102-4.574-2.16-6.95-2.395-8.406-.847-16.84-1.312-25.245-1.925l-8.77-.762Zm125.098-66.8c-.469 1.839-.828 3.218-1.168 4.636-2.942 12.512-5.57 25.027-3.832 38.004 1.039 7.793 3.41 15.078 7.605 21.746.528.824 1.801 1.777 2.668 1.734 11.016-.695 22.008-1.586 33-2.433.192-.02.36-.317.637-.57-5.235-2.712-10.297-5.4-15.422-7.985-7.094-3.578-11.48-9.211-13.43-16.918-3.218-12.598-6.605-25.133-10.058-38.215Zm-124.168 63.05c.785.215 1.062.34 1.336.363 10.78.867 21.586 1.777 32.386 2.496.891.063 2.29-.847 2.711-1.691 2.118-4.153 4.407-8.258 5.848-12.664 4.023-12.364 3.008-24.88.402-37.371-.933-4.403-2.097-8.743-3.347-13.91-3.559 13.359-6.97 25.746-10.168 38.195-1.969 7.73-6.48 13.277-13.535 16.812-5.02 2.586-10.102 5.04-15.633 7.77Zm98.027-210.438c.277.254.383.442.531.485 11.692 2.5 19.953 14.379 17.77 26.066-.91 4.848-2.711 9.527-4 14.313-1.484 5.441-.637 10.418 3.133 14.777a117.64 117.64 0 0 1 5.613 6.969c4.195 5.61 5.973 11.812 4.277 18.8-.23.973-.297 1.97-.445 2.965.766-.445 1.21-.976 1.504-1.566 3.074-6.227 2.691-12.43-.844-18.211-2.203-3.621-4.98-6.922-7.816-10.098-4.258-4.765-4.914-9.996-2.778-15.777.891-2.414 1.887-4.805 2.735-7.238 1.48-4.301 2.012-8.684 1.058-13.192-1.82-8.574-6.906-14.61-14.593-18.484-1.93-.996-4.13-2.055-6.145.191Zm-72.14 78.211c.675-3.386.613-6.543 1.949-8.89 2.457-4.34 5.25-8.703 8.765-12.22 8.2-8.19 12.055-17.253 9.407-29.046-1.887-8.363 2.328-12.832 10.886-13.023 1.25-.02 2.5-.211 3.77-.317-.02-.32-.02-.637-.043-.953-2.031-.148-4.067-.531-6.078-.426-7.793.426-11.414 4.512-11.121 12.367.043.997.297 1.97.34 2.942.19 3.453.761 6.945.382 10.355-.699 6.332-4.746 10.903-8.855 15.477-3.41 3.789-6.567 7.941-9.172 12.3-1.95 3.262-1.926 7.157-.23 11.434Zm26.007-72.218c.32.253.637.484.977.738.93-1.27 1.734-2.645 2.816-3.77 7.711-7.894 17.473-10.605 28.13-10.414 4.085.082 7.581 2.18 9.808 5.883.168.277.55.445.824.66.254-.148.531-.277.785-.426-.656-1.523-1.058-3.261-2.035-4.53-2.711-3.474-6.652-4.532-10.867-4.575-9.172-.082-17.387 3.008-24.461 8.64-2.48 1.989-4.004 5.165-5.977 7.794Zm-24.527 83.632c.277.125.574.235.848.36.359-.676.953-1.332 1.039-2.032.996-8.28 6.078-13.699 12.347-18.484 2.735-2.074 5.23-4.594 7.352-7.305 2.308-2.964 3.41-6.523 2.793-10.988-2.031 7.176-4.192 10.203-9.828 14.672-3.262 2.582-6.586 5.164-9.426 8.172-4.086 4.383-5.652 9.742-5.125 15.605ZM49.14 281.817c4.722-1.399 7.37-8.958 6.27-17.278-.934.34-1.778.637-2.626.953 1.524 6.117-1.504 10.945-3.644 16.324Zm268.367-17.743c0 1.778.086 3.406-.02 5.016-.32 4.488 1.356 8.344 3.875 11.879.532.719 1.59 1.082 2.395 1.59-2.586-5.739-5.086-11.118-3.73-17.598-.91-.297-1.778-.633-2.52-.887Zm12.222 17.172c-3.664-3.621-5.93-7.941-6.503-13.129-2.903 4.766 1.039 12.621 6.503 13.13Zm-286.773-.254c4.172.23 8.473-6.332 7.54-11.687-2.5 3.87-5 7.726-7.54 11.687ZM159.813 85.496c-2.477 3.961-1.293 10.27 1.992 12.09-.657-3.957-1.293-7.852-1.993-12.09Zm-120.52 185.5c5.652.55 8.746-1.101 10.715-5.695-3.578 1.906-6.926 3.683-10.715 5.695ZM210.48 97.82c3.157-2.668 4.426-9.402 2.348-12.363-.781 4.129-1.566 8.172-2.348 12.363ZM62.656 266.254c2.242-1.461 3.813-2.477 5.739-3.746a610.15 610.15 0 0 0-5.125-3.219c-.211 2.434-.383 4.316-.614 6.965Zm260.465-.637c1.145 3.832 5.484 6.246 10.04 5.719-3.411-1.95-6.544-3.727-10.04-5.719Zm-12.922.086c-.336-2.223-.59-3.851-.972-6.332-1.887 1.633-2.922 2.52-4.196 3.621 1.801.934 3.18 1.653 5.168 2.711Zm-249.324-3.281c-4.723 2.012-1.121 5.23-2.457 7.324.445.086.89.172 1.355.254.34-2.285.68-4.594 1.102-7.578Zm251.273.402c.614 2.668 1.125 4.91 1.633 7.156.254-.062.508-.128.781-.21-.019-2.438 2.29-5.528-2.414-6.946ZM316.215 144.105c-.656-2.964-1.399-5.93-1.906-8.933-.297-1.738-.997-2.5-2.86-2.711-2.754-.32-5.465-1.059-8.219-1.61 0-.359.024-.699.024-1.058 2.836-.613 5.656-1.336 8.516-1.82 1.609-.278 2.347-.828 2.582-2.586.382-2.88 1.164-5.715 1.78-8.575.337-.019.657-.062.993-.085.742 2.988 1.676 5.953 2.184 8.98.296 1.758.972 2.18 2.648 2.371 2.879.36 5.719 1.121 8.598 1.734.023.36.023.723.043 1.083-2.817.55-5.614 1.246-8.45 1.628-1.695.211-2.605.594-2.882 2.54-.446 3.113-1.356 6.14-2.055 9.21-.36-.062-.676-.105-.996-.168ZM82.016 123.082c.359 1.691.847 3.387 1.078 5.121.277 2.117 1.015 3.43 3.496 3.453 1.59.02 3.156.633 4.742.996 0 .274 0 .547.023.825-1.78.402-3.539.996-5.34 1.144-1.863.168-2.476 1.121-2.73 2.774-.34 2.03-.847 4.042-1.992 6.117-.465-1.989-1.102-3.957-1.332-5.969-.234-1.93-1.145-2.691-2.965-2.945-1.719-.23-3.414-.72-5.129-1.102-.02-.273-.062-.57-.082-.844 1.61-.363 3.195-.914 4.828-1.058 2.266-.192 3.242-1.317 3.516-3.473.21-1.695.719-3.367 1.082-5.039.273-.023.527-.023.805 0Zm0 0"/><path fill="#545454" d="M325.238 241.586c2.012-6.434 6.04-11.031 12.457-13.125 4.957-1.61 9.848-1.356 14.274 1.906-5.082.719-10.38.508-14.762 2.371-4.469 1.883-8.027 5.801-11.969 8.848ZM67.652 95.64c-.379-1.671-.972-3.347-1.101-5.038-.168-2.247-.953-3.43-3.344-3.622-1.398-.105-2.754-.785-4.195-1.23.254-.422.34-.676.422-.676 5.847-.21 8.113-3.707 7.71-9.676.36.149.72.317 1.083.465.402 1.633.93 3.239 1.14 4.89.278 2.184 1.317 3.282 3.54 3.454 1.355.106 2.69.527 4.171 1.543-1.504.445-3.008 1.188-4.555 1.293-2.011.129-2.687 1.082-2.941 2.902-.277 1.907-.828 3.79-1.273 5.672-.211 0-.446 0-.657.024ZM293.914 186.77c6.203 7.707 10.164 16.347 11.117 26.234.067.719-.57 1.504-.867 2.266-.637-.637-1.61-1.165-1.82-1.907-1.504-5.61-2.672-11.347-4.324-16.918-.973-3.343-2.711-6.457-4.106-9.675ZM319.074 212.54c-3.238-6.247-.168-17.345 5.508-21.028-1.82 7.031-3.578 13.68-5.508 21.027ZM319.457 171.418c0 2.625.063 5.25-.062 7.879-.024.484-.766.953-1.168 1.437-.403-.484-1.164-1.035-1.122-1.48.278-2.691.762-5.336 1.165-8.004.402.043.804.105 1.187.168ZM165.004 75.59c1.355-4.32 8.937-4.852 16.5-.742-1.59.675-2.691 1.547-3.707 1.48-2.16-.148-4.258-1.016-6.399-1.14-2.097-.149-4.234.23-6.394.402ZM176.715 100.105c6.926 3.094 13.324 3.114 19.445-1.628-.742 3.492-3.918 5.738-8.558 6.437-3.707.527-9.235-1.672-10.887-4.809ZM207.367 75.95c-5.277-2.923-10.465 1.609-15.93-.829 4.891-4.55 14.063-4.273 15.93.828Zm0 0"/><path fill="#545454" d="M179.469 104.215c6.672 2.37 6.672 2.37 13.09.316-.657 2.84-2.371 4.196-5.547 4.426-3.88.254-6.04-1.035-7.543-4.742ZM192.688 81.156c4.617 1.801 8.683 1.758 12.792-.93-1.082 3.622-3.855 5.122-8.07 4.762-2.14-.168-4.383-.297-4.722-3.832ZM167.29 81.305c3.73.402 7.648.847 11.542 1.27-.21 1.484-1.059 2.202-3.535 2.48-3.98.422-7.031-1.102-8.008-3.75Zm0 0"/></svg>