<svg xmlns="http://www.w3.org/2000/svg" width="500" height="500" version="1.0" viewBox="0 0 375 375"><defs><clipPath id="a"><path d="M10 11.484h353v351.75H10Zm0 0"/></clipPath></defs><g clip-path="url(#a)"><path fill="#545454" d="M294.078 363.223c3.762 0 10.395-.625 22.274-2.754 11.812-2.117 25.832-5.364 30.554-7.852 1.16-.61 1.965-1.527 2.41-2.762.008-.023.016-.046.028-.07 7.05-20.172 11.164-38.426 12.57-55.805 1.262-15.578.305-30.125-2.922-44.468-6.004-26.657-18.695-47.828-32.133-70.246-8.254-13.774-16.793-28.016-23.609-43.637-.57-1.29-1.113-2.559-1.633-3.8-.05-.134-.105-.263-.16-.395a165.303 165.303 0 0 1-1.344-3.32 18.17 18.17 0 0 0-.105-.262 177.075 177.075 0 0 1-3.192-8.88 186.762 186.762 0 0 1-1.261-4.136 148.131 148.131 0 0 1-2.758-10.266 174.97 174.97 0 0 1-1.145-5.336c-.011-.066-.027-.132-.039-.199-.172-.867-.336-1.73-.492-2.59l-.027-.16c-.184-1.012-.352-2.02-.512-3.02a4.294 4.294 0 0 0-.035-.25l-.004-.03a1.935 1.935 0 0 0-.023-.212 152.664 152.664 0 0 1-1.196-9.332c-.004-.023-.004-.043-.008-.062l-.035-.328c0-.035 0-.07-.004-.106a193.337 193.337 0 0 1 .055-35.36 31.393 31.393 0 0 0-9.387-25.308c-6.386-6.246-15.011-9.28-23.664-8.328l-.035.004c-.738.098-1.605.219-2.523.402-.79.157-1.637.336-2.47.575a28.68 28.68 0 0 0-9.32 4.465 28.72 28.72 0 0 0-3.906 3.41 28.803 28.803 0 0 0-3.226 4.058c-4.848-8.722-13.516-14.48-23.317-15.27a34.894 34.894 0 0 0-2.53-.113c-.833 0-1.587.051-2.384.106l-.164.008c-9.847.793-18.554 6.586-23.406 15.363a28.538 28.538 0 0 0-7.121-7.492 28.789 28.789 0 0 0-4.453-2.66 28.786 28.786 0 0 0-4.863-1.817c-.793-.226-1.57-.394-2.489-.578a37.597 37.597 0 0 0-2.52-.402l-.038-.004c-8.68-.957-17.328 2.094-23.73 8.375a31.415 31.415 0 0 0-4.407 5.371 31.077 31.077 0 0 0-3.113 6.207 31.344 31.344 0 0 0-1.801 13.688 193.337 193.337 0 0 1 .055 35.359v.008a173.602 173.602 0 0 1-3.516 21.566 153.645 153.645 0 0 1-2.766 10.344c-.18.625-.379 1.254-.574 1.86-.156.488-.312.972-.45 1.421a169.193 169.193 0 0 1-2.85 8.156c-.157.418-.313.836-.477 1.254l-.2.504c-.98 2.5-2.019 4.996-3.132 7.508-.032.078-.063.16-.082.242a.19.19 0 0 1-.012.028c-1.93 4.425-4.195 9.132-6.914 14.386a1.685 1.685 0 0 0-.188.934c-44.168 3.648-82.879 35.11-93.73 80.52C.125 288.34 35.12 345.164 91.773 358.66a103.916 103.916 0 0 0 29.473 2.73c2.133-.05 4.211-.214 6.29-.433 7.69-.836 15.198-2.504 22.523-5 7.324-2.5 14.285-5.77 20.882-9.809a264.926 264.926 0 0 0 7.028 12.899l.02.031.023.055c.078.191.175.375.289.55l.039.06c.578.792 2.324 3.198 27.265 3.468 1.086.012 2.188.016 3.31.016 11.226 0 23.55-.598 28.17-2.02l.075-.023a5.26 5.26 0 0 0 2.762-2.262c.008-.016.02-.027.027-.043 8.082-14.004 14.242-27.043 18.766-39.734 7.445 13.957 17.2 27.87 29.742 42.406.027.031.055.062.086.094.059.07.113.144.164.226.074.11.156.211.254.3.363.345 1.113 1.052 5.117 1.052Zm5.09-228.2-43.113 8.2c.004-.137.004-.274.007-.407.012-.347.016-.691.024-1.035.012-.57.02-1.136.023-1.699l.012-1.05v-1.688c0-.328-.004-.66-.008-.985-.004-.636-.015-1.27-.031-1.902l-.012-.723c-.023-.851-.05-1.699-.086-2.543-.007-.254-.023-.5-.035-.754a91.874 91.874 0 0 0-.09-1.808c-.015-.324-.039-.645-.058-.965a107.689 107.689 0 0 0-.18-2.57c-.016-.223-.031-.45-.05-.672l37.046-7.063c.309.985.625 1.961.95 2.938.113.355.234.715.351 1.074a171.08 171.08 0 0 0 2.508 6.922c.031.082.066.164.097.246.164.43.336.863.508 1.297.684 1.73 1.395 3.457 2.137 5.187Zm-50.777 48.235c-5.04-13.84-10.11-28.14-13.559-43.332a183.27 183.27 0 0 1-3.684-21.867c-.406-3.786-.656-7.262-.753-10.645-.282-7.293-.083-14.57.593-21.836a190.204 190.204 0 0 1 3.801-23.445A192.395 192.395 0 0 1 246 91.223c.203.652.363 1.343.516 2.007l.011.047c.196.746.403 1.493.61 2.243.203.726.406 1.457.593 2.183.004.02.012.04.016.059.266.898.492 1.836.707 2.765l.07.301.2.895.086.39c.824 3.825 1.445 7.23 1.89 10.422a.14.14 0 0 1 .008.043c.527 3.145.93 6.598 1.242 10.582a163.17 163.17 0 0 1 .668 16.582c-.015 1.82-.058 3.664-.129 5.54v.003c-.468 13.211-2.183 25.922-4.097 37.973Zm-73.633-14.73a104.306 104.306 0 0 0-8.387-5.044c.168-.312.234-.648.2-1-.633-5.964-1.044-11.566-1.25-17.117V145.281a172.273 172.273 0 0 1 .316-19.472c.07-.883.144-1.77.222-2.649l.004-.023c.305-3.895.711-7.332 1.246-10.535a163.419 163.419 0 0 1 4.707-21.352 192.352 192.352 0 0 1 11.282-29.23 185.41 185.41 0 0 1 3.832 23.554c.675 7.262.875 14.54.593 21.832-.16 3.63-.425 7.094-.808 10.594v.016a172.321 172.321 0 0 1-3.63 21.855 1.841 1.841 0 0 0-.034.203v.008c-1.95 8.543-4.516 17.344-8.293 28.445Zm-87.188 21.89a6.776 6.776 0 0 1-.554-2.832c-.004-.477.039-.95.12-1.422a8.074 8.074 0 0 1 1.005-2.66c.246-.406.527-.793.843-1.149.317-.359.664-.683 1.04-.98.378-.293.777-.55 1.199-.773a8.09 8.09 0 0 1 1.32-.543c.457-.141.922-.243 1.398-.297a2.38 2.38 0 0 0 .282-.055c.254-.066.511-.102.777-.098.48-.004.96.04 1.438.125.476.082.937.211 1.39.38.453.167.887.374 1.3.624a7.74 7.74 0 0 1 1.169.848 7.863 7.863 0 0 1 1.785 2.25c.23.426.414.867.563 1.328.148.457.25.926.312 1.406a7.994 7.994 0 0 1-1.313 5.496c-.269.399-.574.77-.914 1.114-.34.343-.707.656-1.101.933a8.097 8.097 0 0 1-2.61 1.203 8.028 8.028 0 0 1-1.425.227 8.08 8.08 0 0 1-1.442-.027 8.255 8.255 0 0 1-1.414-.29 7.905 7.905 0 0 1-3.621-2.29 7.943 7.943 0 0 1-1.512-2.441c-.011-.026-.023-.054-.035-.077Zm44.504-5.566a8.053 8.053 0 0 1 3.055.61c.484.198.945.444 1.379.737.437.29.84.621 1.21.992.372.368.704.774.993 1.207a8.065 8.065 0 0 1 1.195 2.875 8.046 8.046 0 0 1 0 3.114 7.976 7.976 0 0 1-.457 1.496c-.199.484-.445.945-.738 1.379a7.76 7.76 0 0 1-.992 1.21 7.905 7.905 0 0 1-2.59 1.727 8.065 8.065 0 0 1-1.496.457 8.046 8.046 0 0 1-3.117 0 8.065 8.065 0 0 1-1.496-.457 8.083 8.083 0 0 1-1.383-.734 8.406 8.406 0 0 1-1.207-.992 7.76 7.76 0 0 1-.993-1.211 7.669 7.669 0 0 1-.738-1.38 7.975 7.975 0 0 1-.457-1.495 7.977 7.977 0 0 1 4.778-8.926 8.053 8.053 0 0 1 3.054-.61Zm-21.984 26.34a8.016 8.016 0 0 1 3.058.605c.485.2.942.445 1.38.738a7.946 7.946 0 0 1 2.202 2.2c.29.437.536.894.739 1.378.199.485.351.985.453 1.496a8.046 8.046 0 0 1 0 3.114 7.964 7.964 0 0 1-4.774 5.812 7.733 7.733 0 0 1-1.5.457 7.987 7.987 0 0 1-4.613-.457 7.988 7.988 0 0 1-2.59-1.727 7.988 7.988 0 0 1-1.726-8.695c.199-.48.445-.941.738-1.375.29-.437.621-.84.992-1.21.371-.372.774-.7 1.207-.993.438-.289.899-.535 1.38-.738.484-.2.984-.352 1.5-.453a7.98 7.98 0 0 1 1.554-.156Zm52.023-85.145c-.039.539-.074 1.078-.105 1.621-.02.312-.043.625-.059.937-.035.622-.066 1.247-.094 1.868-.011.234-.023.464-.03.695-.036.855-.063 1.71-.087 2.57l-.011.63c-.016.66-.024 1.323-.032 1.991-.004.317-.004.63-.007.946v1.73c.003.336.003.676.007 1.016.008.574.016 1.152.028 1.734.007.332.011.664.02 1l.01.438-43.108-8.2c.863-2 1.69-4.03 2.488-6.09.086-.222.172-.449.262-.671l.093-.258a178.506 178.506 0 0 0 3.703-10.645l37.047 7.063c-.02.215-.035.43-.05.644-.024.325-.051.653-.075.98ZM128.027 107l35.356 6.754a126.551 126.551 0 0 0-.844 7.164l-36.367-6.93a157.91 157.91 0 0 0 1.855-6.988Zm3.79-21.754 36.062 6.875a165.907 165.907 0 0 0-4.008 18.164l-35.047-6.691a158.387 158.387 0 0 0 2.992-18.352Zm95.648 31.195H190.39c.234-2.382.414-4.765.547-7.21h36.019c.102 2.324.27 4.707.508 7.21Zm-.7-10.707h-35.683c.168-6.203.004-12.394-.504-18.578h36.692a152.805 152.805 0 0 0-.5 18.578Zm-36.738 14.207h37.75a174.624 174.624 0 0 0 3.055 18.575h-43.855a175.61 175.61 0 0 0 3.05-18.575Zm95.957-34.699a159.78 159.78 0 0 0 1.125 8.485l.012.109a589.148 589.148 0 0 0 .508 2.96c.176.993.351 1.942.543 2.888.082.414.168.836.254 1.261.043.215.09.426.133.64.136.661.277 1.333.425 2.005l-35.046 6.7c-1-6.13-2.336-12.185-4.012-18.169Zm5.664 28.742-36.378 6.934c-.23-2.574-.508-4.945-.84-7.164L289.78 107c.57 2.348 1.188 4.66 1.867 6.984Zm-39.445-95.687a27.58 27.58 0 0 1 2.211-.512c.73-.144 1.414-.246 2.277-.363 7.594-.832 15.18 1.851 20.813 7.36a27.98 27.98 0 0 1 3.933 4.777 27.97 27.97 0 0 1 4.278 11.535c.273 2.054.32 4.117.137 6.183a198.008 198.008 0 0 0-.192 34.47l-36.742 7.007a200.623 200.623 0 0 0-12.852-31.98c.036-.141.07-.282.11-.426.062-.246.12-.493.187-.743.078-.32.164-.644.246-.964l.164-.633c.094-.352.188-.711.286-1.067l.14-.523a81.54 81.54 0 0 1 .453-1.598c.121-.422.235-.847.336-1.273.035-.145.067-.293.098-.438.066-.28.129-.562.187-.843.036-.176.063-.352.094-.528.047-.254.094-.508.133-.761.031-.192.05-.383.078-.575.031-.238.067-.48.094-.722.023-.203.039-.403.055-.606.023-.23.043-.465.062-.699.012-.207.02-.418.031-.625.012-.227.024-.453.028-.676.004-.219.004-.433.007-.648v-.656c-.003-.22-.015-.446-.023-.665-.008-.21-.016-.425-.027-.636-.012-.227-.032-.453-.051-.684-.016-.203-.031-.406-.055-.613a42.042 42.042 0 0 0-.156-1.29c-.035-.237-.074-.472-.113-.71-.032-.192-.063-.383-.102-.578-.043-.239-.09-.473-.14-.711-.04-.192-.083-.38-.125-.567a37.825 37.825 0 0 0-.172-.71c-.051-.188-.098-.376-.153-.563a23.45 23.45 0 0 0-.199-.7 101.18 101.18 0 0 0-.176-.566c-.074-.226-.148-.453-.226-.68l-.211-.585c-.082-.211-.16-.426-.242-.637-.032-.078-.059-.156-.09-.23a25.352 25.352 0 0 1 10.844-10.512 25.35 25.35 0 0 1 4.765-1.836Zm-45.531-3.215.14-.008a30.94 30.94 0 0 1 2.149-.097c.75 0 1.508.05 2.266.105 9.566.773 17.93 6.961 21.832 16.168a27.474 27.474 0 0 1 2.046 7.324 26.85 26.85 0 0 1-.812 11.266c-.617 2.113-1.145 4.187-1.648 6.203-.04.156-.079.316-.118.473a195.637 195.637 0 0 0-4.859 27.144h-37.41a190.681 190.681 0 0 0-4.914-27.293c-.082-.363-.172-.719-.258-1.074l-.082-.332c-.352-1.41-.738-2.816-1.145-4.285l-.23-.832a27.056 27.056 0 0 1-1.055-9.356 27.067 27.067 0 0 1 2.192-9.152c3.894-9.254 12.297-15.48 21.902-16.254Zm-66.43 9.797c5.645-5.54 13.254-8.234 20.875-7.399.867.114 1.551.215 2.274.36.836.168 1.535.32 2.234.52a25.318 25.318 0 0 1 12.727 8.164 25.253 25.253 0 0 1 2.867 4.23c-.035.078-.063.164-.094.242a35.624 35.624 0 0 0-.453 1.246c-.067.196-.129.395-.195.59-.067.223-.137.441-.204.664-.058.2-.113.399-.168.598-.062.218-.117.441-.175.664-.051.199-.098.398-.145.601-.05.223-.097.446-.144.668-.04.203-.082.403-.118.606-.043.222-.078.445-.117.672l-.094.61a29.478 29.478 0 0 0-.152 1.285c-.023.222-.039.448-.055.675-.015.203-.03.406-.042.61-.012.23-.02.456-.028.683a20.225 20.225 0 0 0-.012 1.297c0 .2 0 .402.008.605.008.23.02.461.031.692.012.199.02.398.036.597.02.239.043.473.066.707.016.196.035.391.055.586.031.243.066.485.097.727.028.187.051.375.082.562.04.254.086.508.133.762.035.176.063.348.098.527.059.282.125.563.187.84.036.149.063.297.098.442.106.425.223.851.344 1.277l.226.816.371 1.356c.032.105.06.21.086.316.094.34.184.676.274 1.008.039.16.082.32.12.477.075.281.15.562.22.843l.129.524.129.531-.094.211a200.543 200.543 0 0 0-12.813 31.887l-36.754-7.012c.934-11.476.868-22.95-.195-34.418a27.747 27.747 0 0 1 1.602-12.16 27.95 27.95 0 0 1 2.765-5.52 27.805 27.805 0 0 1 3.918-4.77Zm-23.02 113.437 44.657 8.493c.18 4.207.473 8.457.894 12.882a107.992 107.992 0 0 0-22.683-7.898 108.07 108.07 0 0 0-23.867-2.7c-1.391 0-2.782.028-4.172.083 1.953-3.867 3.66-7.45 5.172-10.863ZM236.93 357.11a1.858 1.858 0 0 1-.914.77c-3.938 1.187-16.028 1.945-29.446 1.844-16-.125-23.902-1.32-25.398-2.102a3.25 3.25 0 0 0-.195-.363 261.924 261.924 0 0 1-6.266-11.422 106.951 106.951 0 0 0 24.2-21.61 107.741 107.741 0 0 0 3.991-5.144c1.278-1.758 2.5-3.55 3.668-5.383a105.982 105.982 0 0 0 6.325-11.375 107.723 107.723 0 0 0 4.898-12.062 106.97 106.97 0 0 0 1.887-6.23 106.5 106.5 0 0 0 3.351-19.216 106.288 106.288 0 0 0 .266-13.011 103.27 103.27 0 0 0-.461-6.496c-.219-2.16-.504-4.309-.852-6.454a106.507 106.507 0 0 0-2.879-12.691 106.917 106.917 0 0 0-17.472-34.707 105.888 105.888 0 0 0-4.094-5.066 106.715 106.715 0 0 0-9.066-9.344 108.73 108.73 0 0 0-10.137-8.172c3.508-10.367 5.965-18.758 7.86-26.86h45.527c3.757 16.075 9.238 31.094 14.543 45.633l1.047 2.864c0 .008.003.015.003.023.016.113.043.223.082.328 12.95 35.434 26.336 72.078 9.332 123.266a2.568 2.568 0 0 0-.058.234c-4.543 13.617-11 27.602-19.742 42.742Zm23.34-42.539c.097-.297.19-.593.285-.886.11-.344.222-.684.328-1.024.12-.379.234-.758.351-1.133.106-.34.207-.68.313-1.02.113-.378.223-.757.336-1.136.097-.336.199-.672.297-1.008.11-.383.215-.758.32-1.136.094-.336.188-.672.277-1.008.106-.38.207-.762.309-1.145l.262-.988c.097-.387.195-.766.289-1.149.086-.332.168-.66.25-.988.093-.383.183-.765.273-1.148l.235-.98c.085-.384.171-.766.253-1.145.075-.328.149-.656.22-.985l.241-1.144c.067-.328.137-.652.204-.98.078-.383.148-.766.222-1.149.063-.324.13-.648.188-.969.074-.387.14-.77.21-1.156.06-.32.118-.64.172-.965.067-.383.13-.765.192-1.148.055-.32.11-.645.16-.965l.176-1.149c.047-.32.097-.644.14-.964.055-.383.106-.77.16-1.153.044-.316.087-.637.13-.957l.14-1.152c.035-.32.078-.637.113-.953.043-.387.082-.774.125-1.16.036-.313.07-.633.098-.95.04-.386.074-.773.11-1.16.027-.316.058-.629.085-.941.032-.387.059-.778.09-1.164l.07-.942.07-1.152c.02-.316.044-.633.06-.95.019-.386.038-.769.054-1.156.016-.312.031-.632.043-.945.016-.387.027-.777.04-1.164.01-.312.023-.625.03-.937.008-.387.012-.774.02-1.157.008-.316.016-.632.016-.945.003-.387.003-.773.003-1.16 0-.317.004-.629.004-.942-.004-.382-.007-.769-.015-1.156-.004-.316-.004-.633-.012-.945-.008-.39-.02-.781-.031-1.176-.008-.305-.012-.613-.024-.922-.015-.398-.03-.793-.05-1.187-.012-.305-.024-.61-.04-.918-.015-.395-.042-.79-.066-1.18a72.838 72.838 0 0 0-.05-.922c-.024-.398-.055-.797-.087-1.199-.02-.3-.039-.602-.062-.902-.031-.41-.07-.82-.106-1.23-.027-.29-.046-.583-.074-.876-.039-.426-.086-.851-.129-1.281l-.082-.824c-.05-.473-.11-.942-.164-1.418-.027-.23-.05-.457-.078-.688-.086-.703-.18-1.406-.273-2.11-.09-.651-.184-1.3-.282-1.948-.011-.067-.02-.137-.03-.203-.087-.579-.18-1.16-.27-1.735l-.094-.543a85.595 85.595 0 0 0-.34-1.965c-.078-.449-.156-.898-.242-1.343l-.117-.614c-.082-.433-.164-.867-.25-1.297-.043-.222-.09-.44-.133-.66-.086-.414-.168-.832-.254-1.242-.043-.207-.09-.41-.133-.617-.09-.426-.18-.852-.273-1.277-.051-.227-.106-.454-.157-.68-.09-.399-.175-.8-.27-1.2l-.175-.738c-.086-.379-.176-.754-.266-1.132l-.187-.758c-.09-.367-.18-.735-.273-1.102l-.188-.746a91.315 91.315 0 0 0-.285-1.105c-.063-.246-.129-.489-.192-.73-.097-.372-.195-.743-.296-1.114l-.2-.727c-.101-.367-.199-.734-.3-1.097-.07-.254-.141-.504-.211-.754l-.305-1.07-.211-.727c-.105-.363-.207-.723-.316-1.082-.07-.246-.145-.492-.22-.742-.105-.348-.21-.703-.316-1.051-.078-.254-.152-.504-.23-.754a104.2 104.2 0 0 1-.313-1.035c-.078-.25-.16-.5-.238-.754-.105-.34-.21-.68-.32-1.02-.078-.254-.16-.507-.242-.761-.106-.336-.215-.668-.32-1-.087-.258-.169-.516-.25-.77-.106-.328-.215-.656-.32-.984-.087-.254-.169-.504-.255-.758-.11-.328-.215-.656-.324-.98-.086-.25-.168-.497-.25-.747a97.175 97.175 0 0 1-.332-.984c-.086-.246-.168-.492-.254-.738-.11-.328-.223-.653-.336-.98a55.517 55.517 0 0 0-.254-.743c-.113-.32-.222-.64-.336-.96-.086-.25-.172-.5-.261-.75-.11-.313-.22-.63-.329-.946-.09-.25-.175-.496-.265-.746-.11-.313-.223-.625-.332-.934-.082-.234-.164-.469-.25-.703-.117-.324-.23-.648-.348-.973l-.246-.683c-.113-.32-.23-.645-.348-.965-.093-.258-.183-.516-.277-.774-.105-.289-.21-.578-.313-.867-.101-.273-.199-.547-.3-.82l-.293-.813-.293-.792-.305-.848-.254-.692-.293-.796c2.242-13.567 4.461-28.051 5.098-43.254l44.683-8.496c6.81 15.316 15.16 29.261 23.247 42.754 26.234 43.761 51.007 85.101 22.195 167.527a1.504 1.504 0 0 1-.73.91l-.036.02c-3.61 1.906-15.379 4.921-28.62 7.34-15.669 2.855-23.65 3.175-25.306 2.702a4.746 4.746 0 0 0-.289-.34c-13.23-15.34-23.308-29.956-30.796-44.656Zm0 0"/></g></svg>