<svg xmlns="http://www.w3.org/2000/svg" width="500" height="500" version="1.0" viewBox="0 0 375 375"><defs><clipPath id="a"><path d="M118 95.113h25V120h-25Zm0 0"/></clipPath></defs><path fill="#545454" d="m374.563 244.355-.012-.007c-.004 0-.004 0-.004-.004l-94.813-52.82a.786.786 0 0 0-.394-.106H131.688l-.125 1.625H183.5c-1.852.2-3.844.648-4.844 1.617-.27.258-.465.55-.59.863h-46.699l-.61 7.813h29.141c1.254-2.914 4.157-4.965 7.528-4.965 3.375 0 6.277 2.05 7.531 4.965h3.836c.45 0 .812-.363.812-.813 0-.289.114-.53.356-.761 1.414-1.34 5.883-1.426 7.484-1.344a.316.316 0 0 0 .086 0c1.602-.082 6.074.004 7.485 1.344.242.23.355.472.355.761a.813.813 0 0 0 .813.813H229.8a7.975 7.975 0 0 1-.203-1.79 8.153 8.153 0 0 1 2.664-6.023H196.91a2.493 2.493 0 0 0-.586-.863c-1.004-.969-2.996-1.418-4.847-1.617h87.652l91.91 51.21H3.938l91.91-51.21h16.683l.13-1.625H95.636a.786.786 0 0 0-.395.105L.434 244.343l-.004.005-.016.007c-.004.004-.008.004-.012.008a.748.748 0 0 0-.183.149c-.008.008-.016.011-.02.02a.792.792 0 0 0-.125.195c-.008.011-.011.027-.015.039a.784.784 0 0 0-.059.222v.035a.86.86 0 0 0 .02.223c.003.008 0 .016.003.024 0 .003.004.003.004.007v.012l3.22 11.066a.812.812 0 0 0 .78.586h366.926c.36 0 .68-.238.777-.586l3.22-11.066v-.012c.003-.004.003-.004.003-.007.004-.008 0-.016.004-.024a.86.86 0 0 0 .02-.223v-.035a.927.927 0 0 0-.055-.222c-.008-.012-.012-.028-.02-.04a.792.792 0 0 0-.125-.195c-.004-.008-.011-.011-.02-.02a.682.682 0 0 0-.183-.148c-.004-.004-.008-.004-.012-.008Zm0 0"/><path fill="#545454" d="M100.938 194.531c-3.075.703-4.438 1.465-4.555 2.559-.082.77.515 1.336 1.101 1.61l1.903.745-36.84 24.989L46 228.21c-.66.168-6.469 1.71-7.992 4.55-.422.79-.492 1.641-.2 2.462 1.618 4.55 15.008 3.597 32.59-2.317h102.22v3.473c0 .187.066.371.187.516.144.175 3.703 4.34 14.683 4.34s14.54-4.165 14.688-4.34a.823.823 0 0 0 .183-.516v-3.473h102.223c17.578 5.914 30.969 6.871 32.586 2.317.293-.82.223-1.672-.2-2.461-1.523-2.84-7.331-4.383-8.007-4.555l-16.531-3.773-36.84-24.989 1.95-.765c.538-.254 1.14-.82 1.054-1.59-.117-1.094-1.477-1.856-4.555-2.559-6.101-1.386-12.207-.406-12.465-.363a.732.732 0 0 0-.133.031l-3.8 1.324h-14.329a8.153 8.153 0 0 1 2.665 6.024c0 .613-.075 1.21-.204 1.789h11.497a.808.808 0 0 0 .44-.129c.052-.031 5.157-3.207 14.821-.977l-.52 3.508a.811.811 0 0 0 .317.766l33.344 25.05-.7-.23a.83.83 0 0 0-.257-.043h-44.926c.082-.531.137-1.074.137-1.629 0-5.91-4.797-10.699-10.711-10.699-5.918 0-10.711 4.79-10.711 10.7 0 .554.055 1.097.137 1.628h-37.094a.812.812 0 0 0-.813.813v3.949c-.828.766-4.46 3.566-13.246 3.566-8.793 0-12.425-2.808-13.242-3.562v-3.953a.815.815 0 0 0-.816-.813H70.262a.83.83 0 0 0-.258.043c-.234.078-.465.153-.7.23l33.344-25.05a.811.811 0 0 0 .317-.766l-.516-3.508c3.875-.894 7.028-.91 9.414-.613l.594-7.578c-1.984-.23-6.754-.59-11.52.492Zm0 0"/><g clip-path="url(#a)"><path fill="#545454" d="M142.762 107.484a12.236 12.236 0 0 1-.926 4.664 12.259 12.259 0 0 1-2.645 3.954 12.241 12.241 0 0 1-1.847 1.511 12.44 12.44 0 0 1-2.11 1.13c-.742.304-1.504.534-2.289.69a12.16 12.16 0 0 1-4.757 0 12.364 12.364 0 0 1-2.29-.69 12.44 12.44 0 0 1-2.109-1.13 12.241 12.241 0 0 1-1.848-1.511 12.267 12.267 0 0 1-2.644-3.954 12.236 12.236 0 0 1-.926-4.664 12.236 12.236 0 0 1 .926-4.66 12.259 12.259 0 0 1 4.492-5.469 12.15 12.15 0 0 1 4.398-1.816 12.16 12.16 0 0 1 4.758 0 12.15 12.15 0 0 1 7.762 5.18c.445.664.82 1.367 1.129 2.105a12.236 12.236 0 0 1 .926 4.66Zm0 0"/></g><path fill="#545454" d="M113.418 216.52c-.29 3.726 2.5 6.98 6.23 7.273.18.012.356.02.532.02 3.504 0 6.472-2.696 6.75-6.243l2.437-31.242c.055-.695 0-1.394-.16-2.074l-2.469-10.496-11.5-16.418a5.723 5.723 0 0 1-1.015-2.817l-1.813-21.902a5.68 5.68 0 0 1 1.34-4.184 5.718 5.718 0 0 1 4.39-2.03c2.965 0 5.477 2.312 5.72 5.265l1.05 12.695c.653-3.926 1.461-7.633 2.078-10.773 1.555-5.387-.48-11.836-5.105-12.989-4.63-1.152-11.336 1.356-14.067 9.286-3.687 10.922-4.48 18.03-3.078 30.062 1.059 5.45 3.793 7.84 6.91 8.852l4.13 17.523Zm0 0"/><path fill="#545454" d="M122.457 131.79a4.336 4.336 0 0 0-8.645.715l1.813 21.901c.063.766.328 1.5.77 2.13l13.964 19.937a4.332 4.332 0 0 0 3.555 1.847 4.33 4.33 0 0 0 3.55-6.813l-13.292-18.98ZM152.152 207.465c.54.222 1.051.496 1.54.82a8.9 8.9 0 0 1 3.273 3.985c.222.539.39 1.093.504 1.667.117.57.172 1.149.172 1.731 0 .586-.055 1.164-.172 1.734a8.919 8.919 0 0 1-.504 1.668 8.918 8.918 0 0 1-.82 1.535 8.912 8.912 0 0 1-3.993 3.27c-.539.223-1.093.39-1.668.504a8.648 8.648 0 0 1-1.734.172 8.591 8.591 0 0 1-1.734-.172 8.832 8.832 0 0 1-3.207-1.324 8.9 8.9 0 0 1-3.782-5.653 8.88 8.88 0 0 1-.168-1.734c0-.582.055-1.16.168-1.73a8.843 8.843 0 0 1 .508-1.668 8.776 8.776 0 0 1 1.926-2.88 8.9 8.9 0 0 1 4.555-2.433 8.88 8.88 0 0 1 1.734-.168c.582 0 1.16.055 1.734.168a9.139 9.139 0 0 1 1.668.508ZM228.824 214.5c.192.629.32 1.27.383 1.922a10.069 10.069 0 0 1-.383 3.89 10.083 10.083 0 0 1-1.847 3.446c-.418.508-.883.969-1.391 1.387a9.906 9.906 0 0 1-1.633 1.09c-.582.308-1.187.558-1.816.75a10.007 10.007 0 0 1-3.895.379 9.777 9.777 0 0 1-1.926-.384 9.843 9.843 0 0 1-1.816-.753 9.955 9.955 0 0 1-4.113-4.113 9.792 9.792 0 0 1-.75-1.813 9.777 9.777 0 0 1-.383-1.926 10.069 10.069 0 0 1 .383-3.887 10.082 10.082 0 0 1 1.847-3.445 9.927 9.927 0 0 1 1.391-1.387 9.94 9.94 0 0 1 3.45-1.84 9.872 9.872 0 0 1 1.929-.382 10.318 10.318 0 0 1 1.965 0c.656.066 1.297.195 1.926.386a9.989 9.989 0 0 1 1.816.75 10.01 10.01 0 0 1 1.633 1.094 9.906 9.906 0 0 1 2.48 3.02c.313.582.563 1.183.75 1.816ZM240.297 195.484c.398.164.777.368 1.137.606.359.238.687.512.992.816.308.305.578.633.816.992a6.47 6.47 0 0 1 .98 2.363 6.383 6.383 0 0 1 0 2.56 6.47 6.47 0 0 1-1.796 3.355 6.413 6.413 0 0 1-2.13 1.422c-.398.164-.808.289-1.23.375a6.689 6.689 0 0 1-2.562 0 6.777 6.777 0 0 1-1.23-.375 6.432 6.432 0 0 1-1.133-.606 6.443 6.443 0 0 1-.996-.816 6.573 6.573 0 0 1-1.797-5.914 6.573 6.573 0 0 1 1.797-3.355c.304-.305.636-.579.996-.817a6.432 6.432 0 0 1 1.132-.606c.399-.164.809-.289 1.23-.375a6.689 6.689 0 0 1 2.563 0c.422.086.832.211 1.23.375ZM169.941 200.492a6.573 6.573 0 0 1 3.926 4.778c.082.421.125.847.125 1.28 0 .43-.043.856-.125 1.278a6.573 6.573 0 0 1-1.797 3.355 6.573 6.573 0 0 1-5.922 1.797 6.608 6.608 0 0 1-2.367-.98 6.443 6.443 0 0 1-.996-.816 6.453 6.453 0 0 1-1.422-2.125 6.778 6.778 0 0 1-.375-1.23 6.679 6.679 0 0 1-.125-1.278c0-.434.043-.86.125-1.281a6.573 6.573 0 0 1 1.797-3.355c.305-.306.637-.58.996-.817a6.608 6.608 0 0 1 3.649-1.106c.43 0 .855.043 1.277.125.426.086.836.211 1.234.375Zm0 0"/></svg>