<svg xmlns="http://www.w3.org/2000/svg" width="500" height="500" version="1.0" viewBox="0 0 375 375"><defs><clipPath id="a"><path d="M62.648 0h222.75v369.75H62.648Zm0 0"/></clipPath></defs><g clip-path="url(#a)"><path fill="#545454" d="M285.273 185.648c0-1.253-.074-2.468-.113-3.574-.07-1.105-.144-2.285-.293-3.5a137.153 137.153 0 0 0-.887-6.742c-.406-2.434-.886-4.644-1.402-6.82-.332-1.25-.629-2.356-.922-3.352a49.412 49.412 0 0 0-1.074-3.281c-.332-.883-.7-1.77-1.289-2.91l-.445-.883c-.293-.59-.59-1.18-.848-1.77.11-.039.219-.074.293-.109a.666.666 0 0 0 .445-.777c-.258-1.29-.703-2.54-1.144-3.684l-.258-.738c-.113-.328-.262-.66-.371-1.031-.11-.258-.184-.442-.258-.625-.11-.223-.184-.407-.297-.555-.219-.367-.441-.625-.7-.809-.147-.11-.296-.183-.444-.258a6.495 6.495 0 0 0-.149-.921 29.057 29.057 0 0 0-.738-3.243 35.97 35.97 0 0 0-2.324-6.043 66.462 66.462 0 0 0-3.25-5.898l-.922-1.508c-.332-.555-.63-1.07-.961-1.62-.629-1.071-1.254-2.142-1.883-3.208-4.875-8.437-9.453-17.21-13.883-25.684l-.183-.37c-3.88-7.442-7.903-15.106-12.223-22.735.184-.074.406-.184.59-.258 1.07-.441 1.957-.812 2.77-1.105.777-.297 1.59-.59 2.398-.848l1.219-.441a304.35 304.35 0 0 1 3.695-1.328 136.442 136.442 0 0 0 5.61-2.137c1.995-.813 3.769-1.586 5.39-2.395 1.957-.96 3.656-1.879 5.207-2.875.887-.554 1.7-1.105 2.437-1.66.407-.293.813-.59 1.145-.883.406-.332.777-.59 1.11-.883.663-.59 1.288-1.218 1.808-1.917.59-.774 1.07-1.547 1.402-2.32.406-.888.63-1.696.774-2.47a8.75 8.75 0 0 0 .113-1.328c0-.441-.04-.847-.074-1.215a8.537 8.537 0 0 0-.332-1.402 6.772 6.772 0 0 0-.516-1.14c-.262-.442-.52-.848-.851-1.215-.368-.446-.7-.813-1.036-1.18-.996-1.07-2.066-2.102-3.062-3.133l-.664-.629c-.297-.293-.59-.59-.887-.883l-.039-.035c-.367-.37-.773-.777-1.144-1.18-.184-.183-.333-.37-.516-.554l-.555-.59a182.901 182.901 0 0 0-2.324-2.469 216.082 216.082 0 0 0-4.836-4.754c-1.406-1.324-2.992-2.761-4.914-4.53a140.486 140.486 0 0 0-4.797-4.2c-3.805-3.207-7.09-5.527-10.375-7.371-.445-.258-.96-.555-1.516-.813-.48-.257-.96-.476-1.515-.699a30.311 30.311 0 0 0-1.031-.441l-.149-.074c-.59-.258-1.293-.555-1.922-.883a46.794 46.794 0 0 1-1.476-.778c-.407-.257-.848-.515-1.293-.808l-.516-.332a.738.738 0 0 1-.223-.149.612.612 0 0 0 .114-.367c0-.223-.114-.441-.297-.515-1.402-.922-2.918-1.622-4.356-2.211-.332-.149-.664-.258-.96-.407l-1.329-.55a15.106 15.106 0 0 1-1.109-.48 8.862 8.862 0 0 0-1.145-.442 2.844 2.844 0 0 0-.554-.149c.074-.11.113-.258.148-.441a1.22 1.22 0 0 0-.11-.887 1.855 1.855 0 0 0-.515-.7A6.039 6.039 0 0 0 217 .923l-.55-.442c-.114-.074-.223-.187-.372-.257-.148-.075-.293-.149-.441-.188-.075-.035-.149-.035-.223-.035h-.109c-.149 0-.262.035-.297.035a1.34 1.34 0 0 0-.555.258c-.148.113-.293.223-.406.371a5.89 5.89 0 0 0-.813 1.031c-.183.293-.367.59-.55.957-.223-.035-.446-.074-.704-.109-.148-.04-.257-.04-.406-.074l-.183-.035c-.114-.04-.258-.04-.407-.075-.297-.039-.554-.039-.812-.039-.59 0-1.11.075-1.59.184a5.21 5.21 0 0 0-1.437.629c-.372.258-.665.55-.887.883h-.04a2.772 2.772 0 0 0-1.105 0 2.527 2.527 0 0 0-.96.406c-.298.183-.516.406-.739.664-.441.516-.738 1.18-.96 1.914-.036.113-.036.188-.075.297h-.11c-.37 0-.664.035-.921.11a3.668 3.668 0 0 0-.778.296 2.804 2.804 0 0 0-.738.55c-.074.11-.184.224-.258.333-.11.148-.183.258-.222.367-.11-.035-.258-.035-.368-.074-.445-.035-.925 0-1.332.148a2.964 2.964 0 0 0-1.07.664c-.184.184-.293.332-.406.48-.11.184-.219.368-.332.59a3.954 3.954 0 0 0-.332 1.325c-.035.441 0 .887.074 1.328a2.46 2.46 0 0 0-.48.55c-.11.15-.184.298-.22.481 0 .035 0 .035-.038.075h-.036c-.261.035-.48.109-.703.183-.297.11-.554.258-.773.406-.262.184-.48.368-.703.551-.223.223-.406.406-.555.63a3.414 3.414 0 0 0-.441.66 4.758 4.758 0 0 0-.332.812c0 .074-.04.148-.04.222h-.183c-.184 0-.406 0-.629.07-.258.075-.441.15-.625.223a.838.838 0 0 0-.336.223.812.812 0 0 0-.258.258c-.148.144-.293.367-.441.59a2.298 2.298 0 0 0-.332.918 2.654 2.654 0 0 0-.04.922c.04.332.15.664.263.921.035.149.109.258.183.407-.148.035-.332.109-.48.183-.516.223-.961.48-1.328.774-.188.148-.332.332-.48.48-.15.184-.298.367-.407.59a4.74 4.74 0 0 0-.297.664c-.074.258-.11.441-.11.66-.038.48.075.922.258 1.363.223.516.555.961.997 1.364a2.66 2.66 0 0 1-.149.148l-.144.184-.04-.035c-1.66-1.805-3.656-3.243-5.167-4.313-.52-.367-1.036-.7-1.551-1.066l-.332-.223c-.446-.293-.887-.59-1.367-.883-.704-.406-1.293-.738-1.883-.996a12.563 12.563 0 0 0-1.996-.664 9.033 9.033 0 0 0-2.176-.258h-.113c-.813 0-1.512.075-2.176.223-.961.219-1.922.55-2.844.883-.445.148-.996.367-1.516.515l-.773.223c-.04-.039-.074-.113-.11-.148-.148-.149-.296-.293-.445-.368a1.829 1.829 0 0 0-.48-.257c-.223-.075-.406-.149-.59-.149-.184-.039-.371 0-.59.035-.258.04-.445.149-.629.258-.074.04-.148.113-.222.149a.614.614 0 0 0-.22.222c-.187.184-.296.403-.405.66-.04.149-.114.262-.149.407-.039.113-.074.257-.074.406-.04.148-.04.293-.04.48-.737.403-1.401.848-1.991 1.325-.774.628-1.442 1.363-2.032 2.136a12.214 12.214 0 0 0-1.586 2.875 14.87 14.87 0 0 0-.886 3.172c-.184 1.106-.297 2.246-.258 3.352 0 1.14.11 2.246.332 3.316.184 1.106.48 2.176.848 3.207.257.7.48 1.29.703 1.805.293.7.554 1.254.812 1.77.625 1.18 1.293 2.171 2.031 2.984-.148.258-.222.625-.148 1.031.035.258.11.555.219.848.113.293.262.625.406.957.297.629.668 1.289 1.145 2.027.148.258.336.516.52.813l-85.59 85.601h-.185c-.034 0-.074 0-.074.035-.074.04-.148.04-.222.11l-.035.039-.035.035-.075.074-.039.074c0 .035-.035.035-.035.075-.223.183-.406.367-.629.59-.148.148-.332.331-.48.515l-.223.258a10.93 10.93 0 0 1-.664.625c-.219.183-.48.37-.7.554-.593.442-1.257.848-1.956 1.254l-.075.036c-.628.406-1.292.773-1.921 1.253-.368.258-.625.477-.887.7-.293.222-.516.48-.738.699-.477.48-.922.957-1.29 1.437a9.598 9.598 0 0 0-1 1.586c-.292.551-.515 1.106-.699 1.621a12.264 12.264 0 0 0-.629 3.536c-.035 1.18.04 2.468.258 3.87l.04.15c.034.144.034.292.074.44v.075c0 .074.035.148.035.218.039.149.074.297.11.407.112.297.222.59.37.847.332.59.738 1.145 1.254 1.77.52.625 1.145 1.215 1.809 1.805.703.629 1.441 1.18 2.18 1.734a29.45 29.45 0 0 0 2.437 1.508c.887.48 1.7.847 2.512 1.18.886.332 1.699.554 2.472.699.848.148 1.59.148 2.254.039.738-.149 1.402-.406 1.918-.848.297-.223.52-.48.738-.812a4.36 4.36 0 0 0 .407-.7c.148-.293.257-.55.37-.808.259-.59.442-1.254.59-1.883.149-.625.223-1.29.258-1.914.075-1.254-.035-2.617-.293-3.941a22.25 22.25 0 0 0-1.144-3.872 20.581 20.581 0 0 0-1.738-3.5 15.88 15.88 0 0 0-1.032-1.546 33.706 33.706 0 0 0-1.109-1.477c0-.035-.035-.074-.074-.11a14.476 14.476 0 0 0-.996-1.214c-.184-.184-.371-.406-.555-.59l-.555-.59c-.183-.223-.406-.406-.625-.629-.039-.035-.074-.07-.113-.07.074-.113.148-.258.258-.406.336-.407.738-.774 1.144-1.145l.223-.184c.113-.109.258-.218.371-.332l.219-.183a.998.998 0 0 0 .297-.258.57.57 0 0 0 .222-.441.755.755 0 0 0-.148-.48l85.293-85.235c.074.074.148.187.184.261l.222.293c.149.184.258.368.406.59l.149.223c.293.441.664.957 1.144 1.398a2.7 2.7 0 0 0 .7.516c.148.074.296.148.48.184.11.039.223.074.445.074.293 0 .551-.035.774-.149.183-.07.332-.183.48-.257v.039c.258.293.516.55.774.808l.37.371c.184.184.368.368.516.551.149.184.297.332.446.516l.773.922c.555.664 1.11 1.328 1.664 1.988l-.336.223a26.523 26.523 0 0 0-2.507 2.062c-.446.371-.852.773-1.258 1.145l-.996.921a5.544 5.544 0 0 1-.555.477c-.184.148-.367.297-.59.48l-.11.075c-.406.332-.812.625-1.183.992-.258.223-.48.48-.7.777a2.731 2.731 0 0 0-.296.442c-.074.109-.11.257-.148.406-.075.328-.11.625-.075.918.04.297.149.555.262.812.293.59.738 1.07 1.106 1.438.257.258.554.516.812.773l.148.149c.11.11.258.219.368.332.113.11.222.219.332.328l.332.332c.261.223.445.406.668.59.144.113.293.222.441.297-.035.476-.074.957-.11 1.472-.038 1.586.036 3.282.259 5.012.222 1.695.554 3.39.96 5.047a37.117 37.117 0 0 0 1.512 4.828c.297.773.59 1.477.887 2.137.332.738.664 1.402.996 2.027.813 1.547 1.848 3.024 2.992 4.496 1.07 1.328 2.324 2.653 3.692 3.945a60.678 60.678 0 0 0 4.097 3.536c.664.554 1.367 1.07 2.07 1.62.368.298.774.59 1.145.887l.957.735a31.078 31.078 0 0 1 3.656 3.316A47.15 47.15 0 0 1 194 122.97c1.402 1.804 2.695 3.719 3.95 5.527l.515.774c.738 1.105 1.625 2.43 2.55 3.683.7.996 1.145 1.621 1.626 2.211a27.568 27.568 0 0 0 1.734 2.027c.7.739 1.402 1.438 2.14 2.063.223 3.098.59 5.86 1.22 8.476.222.883.406 1.66.628 2.395.11.406.258.813.407 1.215.144.37.257.703.367.996.297.664.629 1.328.996 1.992l.039.11c.293.55.664 1.289.96 1.988.11.297.22.554.333.887v.035c.035.074.035.148.074.222a.567.567 0 0 1 .035.22c.074.628.074 1.292.035 1.917-.035.406-.035.809-.07 1.254-.039.293-.039.59-.074.848-.04.55-.074 1.175-.04 1.804.04.516.075.883.184 1.29-.035.074-.109.183-.144.292-.074.188-.188.332-.262.52-.183.402-.332.734-.406 1.105-.11.368-.184.735-.258 1.14-.035.368-.074.7-.11 1.071-.034.367-.034.735-.074 1.14v.15c0 .331-.035.663-.074.956-.183 1.547-.664 3.059-1.219 4.422-.218.516-.406 1.07-.625 1.586l-.074.184c-.148.406-.332.808-.48 1.215-.332.886-.703 1.879-.996 2.91a19.21 19.21 0 0 0-.371 1.586c-.149.625-.223 1.14-.297 1.62-.184 1.145-.332 2.212-.367 3.243-.11 1.77-.04 3.355.183 4.863.223 1.403.59 2.914 1.11 4.57.332 1.07.738 2.137 1.07 3.098l.258.7c0 .074-.036.109-.036.183-.187.738-.37 1.438-.519 2.25-.11.516-.223 1.031-.293 1.547a54.05 54.05 0 0 1-.629 2.91l-.074.332c-.074.293-.149.59-.184.883-.074.406-.148.738-.187 1.031-.11.738-.145 1.363-.11 1.953 0 .664.075 1.254.184 1.809.113.55.262 1.14.48 1.73.075.184.149.368.223.555a55.32 55.32 0 0 1-1.07 3.61 38.683 38.683 0 0 1-.59 1.843l-.555 1.73a66.217 66.217 0 0 0-.922 2.95c-.222.7-.445 1.512-.629 2.394a14.632 14.632 0 0 0-.332 2.434c-.039.441 0 .848 0 1.215.036.367.075.738.11 1.066.11.703.258 1.363.48 1.992-.074.258-.11.516-.148.809-.149.996-.184 2.027-.149 3.133 0 .332.04.59.04.847a4.986 4.986 0 0 0-.813.297c-.48.22-.96.551-1.367.918-.7.703-1.293 1.66-1.7 2.875-.257.813-.48 1.66-.59 2.657-.034.293-.073.515-.073.773-.075.035-.11.035-.184.07-.555.223-1.035.446-1.402.664-.52.258-.961.516-1.368.813-.441.293-.847.625-1.218.957-.48.441-.961.922-1.442 1.437-.476.555-.996 1.106-1.586 1.844-.996 1.18-1.957 2.469-2.918 3.793-1.918 2.656-3.656 5.418-5.277 7.996l-1.219 1.918c-.445.738-.926 1.438-1.367 2.176l-.406.66c-.297.48-.63.961-.922 1.477-.445.699-.887 1.437-1.332 2.136a287.854 287.854 0 0 0-5.059 8.696c-1.437 2.617-2.988 5.527-4.761 8.843-.774 1.477-1.551 2.985-2.325 4.461l-.445.883c-.223.442-.48.922-.703 1.363l-.219.481c-.222-.04-.406-.074-.59-.113-.222-.035-.445-.035-.703-.035h-.074c-.258 0-.441.035-.664.035-.258.039-.516.113-.703.187-.258.11-.48.219-.664.367a2.39 2.39 0 0 0-.59.625c-.149.258-.258.48-.297.704-.035.109-.074.257-.074.367v.406c0 .11 0 .184.039.293a2.47 2.47 0 0 0-.887.738c-.035.074-.11.149-.148.219a8.543 8.543 0 0 0-.848-.55 9.573 9.573 0 0 0-1.773-.813 7.89 7.89 0 0 0-2.067-.368 10.04 10.04 0 0 0-2.14.149c-.704.144-1.368.332-1.996.625-.63.297-1.254.625-1.81 1.07-.554.403-1.07.922-1.55 1.438-.848.957-1.625 2.136-2.363 3.574a29.91 29.91 0 0 0-.922 1.953c-.148.332-.297.66-.406.992l-.075.149c-.113.257-.222.554-.332.847-.257.774-.406 1.586-.52 2.395a16.8 16.8 0 0 0-.073 2.394c.039.813.074 1.66.148 2.47.074.776.113 1.55.149 2.323.039 1.032.039 2.028.039 2.801v2.836c0 1.07-.04 1.988-.04 2.836 0 .445-.035.922-.035 1.367-.039.403-.074.809-.113 1.215a26.578 26.578 0 0 0-.515 1.547 32.79 32.79 0 0 0-.555 2.101c-.149.665-.293 1.29-.442 1.954l-.074.332c-.074.367-.148.734-.258 1.105l-.257 1.106c-.668 2.91-1.368 6.261-1.442 9.652 0 .848 0 1.66.074 2.434.036.44.075.882.11 1.324.039.406.11.777.183 1.18l.04.257c.222 1.328.44 2.692.773 4.055.187.773.371 1.473.555 2.101.257.774.515 1.473.777 2.098.184.406.332.738.516 1.035.148.258.296.551.48.809.293.48.664.996 1.105 1.473.446.445.852.812 1.333 1.035.292.144.59.293.886.367.293.074.59.148.883.183.188 0 .332.04.594.04h.48c.258.109.477.218.739.328.367.148.738.257 1.07.37.7.184 1.437.368 2.215.477.367.075.773.114 1.18.149.37.039.702.074 1.035.074h.296c.551 0 1.07-.035 1.551-.148a6.636 6.636 0 0 0 1.586-.59c.48-.258.961-.59 1.367-.992a11.08 11.08 0 0 0 1.22-1.329 20.71 20.71 0 0 0 2.214-3.609c1.293-2.617 2.066-5.344 2.844-8.184l.218-.847c.297-1.067.594-2.172.926-3.242l.293-.997c.113-.367.223-.773.332-1.14.262-.848.446-1.586.63-2.32l.183-.739c.074-.222.113-.48.187-.699.477-.258.922-.48 1.29-.773.48-.371.886-.774 1.218-1.22.445-.589.738-1.214.96-1.878.11-.367.185-.664.224-.992.035-.371.074-.738.074-1.035 0-.551-.04-1.106-.113-1.766 1.109-.813 2.289-1.695 3.433-2.656 1.332-1.067 2.66-2.211 4.027-3.387 2.512-2.21 4.985-4.57 7.383-7.039a164.098 164.098 0 0 0 6.793-7.336 110.363 110.363 0 0 0 3.25-3.832c1.293-1.547 2.29-2.762 3.14-3.906a144.661 144.661 0 0 0 5.907-8.07c3.36-4.938 6.793-10.465 10.45-16.95a439.432 439.432 0 0 0 4.062-7.37 881.767 881.767 0 0 0 4.91-9.212l1.18-2.21c.52-.997 1.074-1.989 1.59-2.95l1.218-2.285c.075-.11.11-.219.184-.367.371-.7.738-1.364 1.11-2.063.405-.773.812-1.512 1.253-2.285l.184-.367c.297-.516.629-1.106.926-1.695.773-1.477 1.511-3.024 2.324-4.793.664-1.508 1.293-3.02 2.066-4.829l.188-.441c.554-1.363 1.218-2.875 1.843-4.383.332-.773.664-1.512 1-2.25.258-.55.477-1.031.7-1.437-.11.96-.223 1.992-.368 3.133-.113.847-.222 1.66-.332 2.507l-.074.66a131.966 131.966 0 0 0-.777 6.083c-.184 1.843-.332 3.464-.367 4.937-.04.887-.04 1.695-.04 2.469 0 .812.04 1.66.075 2.433.039.664.074 1.325.11 1.989-.997 4.644-1.845 9.324-2.805 14.925-.258 1.438-.481 2.727-.704 3.98-.257 1.325-.476 2.653-.738 3.977-.516 2.692-1.07 5.383-1.55 7.926l-.294 1.547c-.925 4.68-1.922 9.508-2.77 14.297a240.531 240.531 0 0 0-1.292 7.96l-.555 4.017a184.913 184.913 0 0 0-.441 3.98c-.184 1.879-.406 4.09-.446 6.262-.59.812-1.18 1.625-1.808 2.469l-.625.886c-.52.7-.961 1.324-1.406 1.914-.22.297-.442.59-.7.922l-.039.074c-.148.223-.332.407-.48.63a5.169 5.169 0 0 0-.442.699c-.109.218-.222.44-.296.699a6.88 6.88 0 0 0-.145.812c0 .258 0 .551.035.774.035.257.11.515.184.773-.625.367-1.254.664-1.844.848-.406.11-.777.183-1.11.219h-.183c-.258 0-.516 0-.777-.036-.258-.039-.516-.074-.813-.148-.367-.11-.773-.219-1.289-.406l-.629-.22c-.258-.073-.48-.183-.738-.257a17.831 17.831 0 0 0-1.11-.332l-.886-.223a16.83 16.83 0 0 0-1.55-.332c-.626-.109-1.18-.183-1.696-.183-.594-.035-1.184.039-1.664.11a4.263 4.263 0 0 0-1.438.589c-.262.188-.445.371-.629.555-.11.11-.183.257-.297.367a5.52 5.52 0 0 0-.257.441c-.149.371-.258.739-.258 1.07 0 .333 0 .626.074.958.035.222.11.406.184.59-.11.406-.149.886-.11 1.363.035.59.184 1.219.442 1.879.257.629.554 1.293.96 2.027.442.773.922 1.547 1.477 2.324.516.735 1.11 1.508 1.735 2.281a33.749 33.749 0 0 0 1.773 2.028c.555.629 1.11 1.144 1.625 1.62.223.224.441.407.703.63.219.183.402.332.59.476.184.114.367.258.59.407.297.183.59.332.847.48.63.332 1.332.625 1.997.883 1.18.441 2.511.812 4.132 1.18.594.148 1.258.257 2.106.441l.777.148 1.106.223.925.184c.848.144 1.809.367 2.77.515.773.11 1.437.22 2.027.258.739.074 1.367.11 1.957.11h.114c.738 0 1.367-.036 1.918-.149.296-.035.628-.11.96-.184a.502.502 0 0 0 .223-.074l1.403.258c.257.04.554.113.847.113.555.036 1.07 0 1.477-.113.261-.07.445-.184.629-.293.183-.11.332-.258.48-.441.258-.332.441-.739.555-1.22.11-.44.148-.956.11-1.581 0-.332-.036-.664-.075-1.031v-.114c-.035-.402-.074-.808-.11-1.214l-.038-.516c-.11-1.438-.258-2.95-.293-4.422v-.555c.257.04.515.04.773.075.52.039.887.074 1.258.074H246.395c.476 0 1.07 0 1.66-.074.515-.075 1.105-.184 1.625-.442.183-.074.293-.183.406-.258.074-.074.184-.148.293-.293.113-.148.187-.257.223-.37.074-.145.109-.294.148-.442.11-.55.148-1.18.184-1.586l.039-.441v-.184l.074-.516c0-.148.035-.297.035-.441.035-.48.11-.961.148-1.438v-.109c.075-.887.184-1.918.333-2.875.664-4.02 1.843-7.887 2.878-11.129a563.753 563.753 0 0 0 1.477-4.496l.371-1.105c.293-.922.625-1.844.922-2.766.148-.441.297-.918.441-1.363l.114-.403c.074-.297.183-.59.257-.847a34.51 34.51 0 0 1 .887-2.543c.48-1.22.996-2.508 1.402-3.575l.63-1.55c.663-1.621 1.328-3.352 1.882-5.121.63-1.989 1.031-3.758 1.254-5.38.223-1.511.297-3.058.371-4.53l.035-.188c.371-1.363.739-2.8 1.036-4.234.332-1.512.628-3.098.921-4.754.704-4.164 1.22-8.442 1.59-11.645.145-1.293.293-2.582.442-3.832l.035-.262c.297-2.578.555-5.082.887-7.55.593-4.68 1.144-8.22 1.812-11.536.219-1.144.441-2.062.664-2.949l.664-2.8c.442-1.954.922-3.907 1.367-5.86l.07-.332c.813-3.5 1.739-7.48 2.66-11.348 1.145-4.68 2.067-8.254 2.993-11.609.219-.773.441-1.508.625-2.246l.074-.223c.297-.957.555-1.914.813-2.91a93.613 93.613 0 0 0 1.035-4.09c.332-.957.629-1.918.848-2.836.48-1.77.851-3.613 1.183-5.566.149-1.031.293-2.102.442-3.133a54.83 54.83 0 0 0 .332-3.46c.257-2.544.332-4.977.296-7.263Zm-66.351-135.09c-.11.11-.223.149-.371.184h-.11l-1.144.035c-2.879.075-5.39.188-7.754.371l-1.477.11c-.441.035-.886.074-1.367.148-.847.11-1.625.258-2.289.442-.738.183-1.476.441-2.176.738-.668.258-1.367.59-2.07.957-.625.332-1.328.7-2.105 1.18-.22.148-.442.293-.664.441a.58.58 0 0 1-.333.11c-.074 0-.109 0-.183-.036a.533.533 0 0 1-.332-.406c-.04-.293-.11-.59-.184-.848a19.001 19.001 0 0 0-.48-1.511c-.332-.848-.703-1.696-1.07-2.543l-.262-.625a34.392 34.392 0 0 1-1.29-3.207c-.038-.145-.038-.332.075-.442.07-.148.219-.218.406-.218.184 0 .332-.04.442-.075.148-.039.332-.074.441-.148.148-.074.223-.149.297-.223.074-.074.11-.183.148-.258.035-.144.075-.293.075-.402 0-.187 0-.332-.04-.48a7.93 7.93 0 0 0-.367-1.29c-.222-.59-.48-1.144-.812-1.769-.297-.59-.59-1.145-.926-1.695a31.846 31.846 0 0 0-1.29-2.028c-.26-.367-.48-.625-.702-.922-.223-.257-.442-.515-.664-.699-.223-.183-.406-.332-.59-.406-.149-.074-.262-.074-.262-.074a.553.553 0 0 1-.515-.367c-.036-.11-.075-.184-.075-.293-.074-.258-.183-.516-.257-.739-.11-.258-.184-.441-.297-.59-.11-.183-.07-.44.074-.625l.187-.187c.22-.258.442-.477.7-.734.554-.59 1.035-1.07 1.515-1.547.149-.149.442-.223.625-.114.262.149.555.258.887.372.777.293 1.59.476 2.402.699l.407.11c.664.183 1.402.331 2.066.589.184.074.406.148.59.223l.664.293c.445.183.851.37 1.293.515.851.332 1.515.555 2.105.7.739.222 1.403.37 2.067.445.738.11 1.441.144 2.07.11.441-.036.813-.036 1.145-.11.367-.04.699-.114 1.07-.223 1.625-.367 2.918-.773 4.097-1.289.036-.039.11-.039.149-.074a.736.736 0 0 1 .406-.11c.149.036.258.11.332.258l.7 1.14c.406.63.777 1.29 1.183 1.919.441.664.773 1.18 1.145 1.695.332.477.738.957 1.144 1.473l.406.48c.075.075.11.184.11.293 0 .184.039.367.039.516.074.812.183 1.586.293 2.469v.113c.113.883.222 1.621.297 2.394l.37 3.649c.036.59.11 1.18.145 1.766.04.113-.035.257-.11.37Zm18.758-3.023a38.801 38.801 0 0 0-1.11-3.316c-.515-1.324-1.07-2.617-1.734-3.832a39.77 39.77 0 0 0-2.254-3.797 21.83 21.83 0 0 0-1.254-1.766 17.831 17.831 0 0 0-1.328-1.62c-1.625-1.884-3.473-3.65-5.246-5.384l-.774-.734c-1.109-1.07-2.105-2.027-3.066-3.059-.406-.445-.812-.886-1.219-1.328a.474.474 0 0 1-.144-.367c0-.148 0-.297.035-.441.039-.223.074-.407.148-.59 0 0 0-.04.036-.04.039-.073.074-.148.113-.183.035-.035.074-.11.148-.148l.035-.035c.036-.04.075-.04.149-.075.035 0 .035-.035.074-.035.074-.039.11-.039.184-.039h.406c.184.04.367.074.629.184.406.183.812.406 1.289.738.406.258.812.55 1.293.957.37.297.777.629 1.219.957l.296.258c.149.113.258.223.407.332.11.074.183.148.332.258l.222.187c.293.219.551.442.848.66a54.332 54.332 0 0 1 3.285 2.914 59.229 59.229 0 0 1 3.028 3.13 47.781 47.781 0 0 1 2.77 3.355 64.927 64.927 0 0 1 3.175 4.496 32.21 32.21 0 0 1 1.516 2.504c.48.886.921 1.77 1.292 2.691l.145.406c.04.036.04.11.04.145l.034.48c.149.04.258.149.297.297.074.22.184.442.258.625.223.48.371.848.555 1.18a.512.512 0 0 1-.04.516c-.109.148-.257.257-.44.257h-.665c-.074 0-.113 0-.184-.039h-.148c-.629-.035-1.258-.07-1.883-.109l-.812-.074c-.555-.035-1.11-.074-1.59-.074-.11-.07-.293-.22-.367-.442Zm0 0"/></g></svg>