<svg xmlns="http://www.w3.org/2000/svg" width="500" height="500" version="1.0" viewBox="0 0 375 375"><defs><clipPath id="a"><path d="M233 26h129.621v349H233Zm0 0"/></clipPath></defs><g clip-path="url(#a)"><path fill="#545454" d="M355.512 26.41c-3.883 0-7.059 3.176-7.059 7.059v19.46l-110.601 78.848v-4.3a2.356 2.356 0 0 0-2.352-2.352 2.356 2.356 0 0 0-2.352 2.352v180.57h4.704v-85.05l34.32 7.155 76.281 15.91v163.461h14.117V33.47c0-3.883-3.175-7.059-7.058-7.059Zm-52.996 67.774v19.656l-10.368 5.605v-18.41Zm0 70.28v21.388l-10.368 1.046v-20.03Zm0-24.007v21.387l-10.368 2.566V144.38Zm0-24.008v21.399l-10.368 4.086V121.89Zm-10.368 72.895 10.368-.88v21.395l-10.368-.472Zm-19.976-75.106v16.012l-6.961 3.766V118.84Zm0 76.801v17.43l-6.961-.32v-16.52l6.96-.59.45-.039Zm0-19.547v17.418l-6.961.703v-16.511l6.96-1.61.45-.105Zm0-19.558v17.421l-6.961 1.723v-16.512l6.96-2.632.45-.172Zm0-19.559v17.43l-6.961 2.746v-16.52l6.96-3.656.45-.234Zm-7.762-13.008v15.082l-6.191 3.348v-14.34Zm-18.664 58.242v13.965l-4.52.457v-13.379Zm0-15.683v13.969l-4.52 1.117v-13.375Zm0-1.703-4.52 1.78v-13.386l4.52-2.37Zm-4.52 33.441 4.52-.383v13.973l-4.52-.207Zm10.094-17.348v14.696l-4.992.504v-14.043Zm0-16.496v14.696l-4.992 1.234v-14.043Zm0-16.5v14.703l-4.992 1.97V145.94Zm-4.992 49.91 4.992-.421v14.703l-4.992-.23Zm11.18-18.343v15.504l-5.547.558v-14.781Zm0-17.407v15.504l-5.547 1.371v-14.777Zm0-17.406v15.512l-5.547 2.187v-14.789Zm-5.547 52.68 5.547-.473v15.516l-5.547-.258Zm6.258-2.438V174.72l6.191-1.43v16.406Zm0-17.507V157.21l6.191-2.344v16.406Zm0-17.504v-15.606l6.191-3.25v16.414Zm0 36.918 6.191-.528v16.418l-6.191-.285Zm-.711-68.293v14.25l-5.547 3v-13.582Zm-6.188 4.09v13.507l-4.992 2.7V131.32Zm-5.574 3.683v12.84l-4.52 2.441v-12.293Zm-5.047 3.336v12.23l-2.847 1.54v-11.887Zm-2.847 44.395 2.847-.657v13.305l-2.847.29Zm0-1.586V164.91l2.847-1.074v13.309Zm0-14.516v-12.941l2.847-1.496v13.316Zm0 30.617 2.847-.242v13.316l-2.847-.128Zm0 14.524 2.847.175v13.309l-2.847-.547Zm3.375.21 4.52.278v13.969l-4.52-.871Zm5.101.313 4.992.309V224l-4.992-.96Zm5.633.352 5.547.34v15.503l-5.547-1.066Zm6.258.386 6.191.383v16.403l-6.191-1.192Zm6.992 16.942v-16.512l6.96.43.45.031-.45-.027v17.418Zm7.863-16.024v-97.011l7.883-5.207V125.5l-7.883 4.262v2.14l7.883-4.136v18.578l-7.883 3.105v2.145l7.883-2.98v18.566l-7.883 1.949v2.152l7.883-1.824v18.57l-7.883.793v2.14l7.883-.667v18.578l-7.883-.36v2.141l7.883.489v18.566l-7.883-1.52Zm8.906.551v-103.45l8.993-5.94v18.269l-8.993 4.863v2.282l8.993-4.72v19.888l-8.993 3.546v2.282l8.993-3.399V164.7l-8.993 2.227v2.293l8.993-2.082v19.879l-8.993.906v2.285l8.993-.766v19.891l-8.993-.414v2.285l8.993.555v19.879l-8.993-1.735Zm10.168.629 10.368.64v21.383l-10.368-1.992Zm11.73.727V93.28l12.071-7.976v21.27l-12.07 6.527v2.632l12.07-6.336v23.153l-12.07 4.758v2.632l12.07-4.562v23.14l-12.07 2.989v2.644l12.07-2.797V184.5l-12.07 1.215v2.633l12.07-1.024v23.153l-12.07-.555v2.637l12.07.746v23.136l-12.07-2.32Zm13.673.843V84.246l14.242-9.414v23.172l-14.242 7.703v2.852l14.242-7.477v25.227l-14.242 5.609v2.852l14.242-5.383v25.21l-14.242 3.524v2.863l14.242-3.293v25.211l-14.242 1.434v2.851l14.242-1.207v25.223l-14.242-.652v2.851l14.242.883v25.207l-14.242-2.738Zm16.137 26.457V73.582l14.765-9.762v25.176l-14.765 7.984v3.106l14.765-7.746v27.402l-14.765 5.817v3.109l14.765-5.582v27.387l-14.765 3.656v3.121l14.765-3.418v27.39l-14.765 1.489v3.11l14.765-1.255v27.403l-14.765-.676v3.11l14.765.91v27.386Zm0 0"/></g><path fill="#545454" d="M117.012 148.184a11.501 11.501 0 0 0 4.578 5.078l32.355 19.25-15.332 46.66c-1.996 6.07 1.309 12.605 7.383 14.598 1.2.394 2.414.582 3.613.582 4.864 0 9.391-3.09 10.993-7.961l18.226-55.47a11.568 11.568 0 0 0-5.074-13.55l-26.094-15.523a11.535 11.535 0 0 0 8.309-4.946l33.066-48.101 48.547-21.133c5.86-2.55 8.54-9.367 5.988-15.223-2.55-5.855-9.37-8.535-15.23-5.988l-51.582 22.457a11.549 11.549 0 0 0-4.918 4.055l-20.16 29.324-11.38 30.098a10.332 10.332 0 0 1-5.445 5.797 10.315 10.315 0 0 1-7.949.246 10.427 10.427 0 0 1-5.93-5.743 10.36 10.36 0 0 1-.117-7.644l14.653-38.75c-1.797-1.277-4.137-2.734-6.832-3.95l1.047-2.644c3.8 1.695 6.976 3.867 9.187 5.602l-15.402 40.746a7.508 7.508 0 0 0 .086 5.554 7.514 7.514 0 0 0 4.312 4.18 7.553 7.553 0 0 0 9.738-4.394l17.247-45.614a7.555 7.555 0 0 0-1.575-7.859c-.398-.418-7.324-7.637-18.027-12.258a47.938 47.938 0 0 0-7.93-2.656 24.012 24.012 0 0 1-9.718 12.789c-5.383 3.527-11.813 4.75-18.114 3.441a24.273 24.273 0 0 1-4.62-1.453l-8.813 5.778-30.79 1.246L17.98 56.113a7.555 7.555 0 0 0-10.597 1.383c-2.547 3.305-1.926 8.05 1.383 10.594l39.5 30.36a7.55 7.55 0 0 0 4.605 1.566c.102 0 .207 0 .309-.004l31.394-1.274Zm0 0"/><path fill="#545454" d="M118.219 39.492c.531.45 1.035.926 1.52 1.43.484.5.94 1.023 1.37 1.57.434.543.836 1.11 1.211 1.696a21.305 21.305 0 0 1 1.898 3.71c.255.645.477 1.305.665 1.973.191.672.347 1.348.469 2.031.125.688.214 1.375.27 2.07.054.692.077 1.387.062 2.083a21.467 21.467 0 0 1-1.027 6.152c-.216.66-.462 1.309-.739 1.95a21.915 21.915 0 0 1-2.035 3.637c-.395.57-.82 1.12-1.274 1.647-.449.532-.925 1.04-1.425 1.52-.504.484-1.028.941-1.575 1.371-.546.434-1.109.836-1.695 1.211a21.272 21.272 0 0 1-3.71 1.895c-.65.253-1.31.476-1.977.667-.672.188-1.348.344-2.036.47a21.653 21.653 0 0 1-4.152.331 23.192 23.192 0 0 1-2.082-.14 21.467 21.467 0 0 1-2.055-.344 21.337 21.337 0 0 1-3.965-1.285 20.803 20.803 0 0 1-3.636-2.032 19.35 19.35 0 0 1-1.653-1.273c-.53-.45-1.039-.926-1.52-1.426a22.724 22.724 0 0 1-1.374-1.57A21.24 21.24 0 0 1 83.18 55.27c.015-.696.062-1.391.14-2.082a21.48 21.48 0 0 1 2.555-7.887c.34-.606.71-1.196 1.105-1.766a21.087 21.087 0 0 1 2.704-3.172c.5-.48 1.027-.941 1.57-1.37a21.607 21.607 0 0 1 3.508-2.25 21.272 21.272 0 0 1 1.902-.856 22.177 22.177 0 0 1 1.977-.668 22.5 22.5 0 0 1 2.03-.469c.688-.121 1.376-.21 2.071-.266a20.6 20.6 0 0 1 2.086-.062 20.55 20.55 0 0 1 2.078.14 21.316 21.316 0 0 1 6.023 1.625c.637.278 1.262.586 1.868.926.61.34 1.2.707 1.77 1.106.57.398 1.12.82 1.652 1.273ZM272.129 48.79c-7.89 0-14.309 6.417-14.309 14.304 0 7.886 6.418 14.3 14.309 14.3 7.89 0 14.308-6.414 14.308-14.3 0-7.887-6.417-14.305-14.308-14.305Zm12.605 14.202c-1.246-1.96-2.714-2.976-3.308-3.328a9.972 9.972 0 0 0-5.203-5.594 34.797 34.797 0 0 1 2.476-1.715c3.586 2.204 5.996 6.137 6.035 10.637Zm-4.488 9.727c-.176-1.121-.387-2.364-.59-3.184.246-.289.485-.59.696-.902.199.754.464 1.937.664 3.39-.246.243-.504.473-.77.696Zm-1.664 1.18c-.16-.989-.344-2.047-.539-2.864.289-.215.562-.445.824-.687.188.902.38 2.082.528 3.027-.262.188-.536.36-.813.523Zm-6.453-1.837a8.896 8.896 0 0 1-5.04-1.558c.044-.133.102-.328.18-.578 1.352.156 2.668.25 3.93.25 2.781 0 5.336-.39 7.653-1.16a8.95 8.95 0 0 1-6.723 3.046Zm8.96-8.68c-.359.083-.73.165-1.109.247-1.37-4.152-4.152-7.543-5.757-9.25 3.941.945 6.882 4.488 6.882 8.715 0 .097-.011.191-.015.289Zm-2.66.556c-2.421-4.868-6.097-8.391-7.605-9.708.426-.066.86-.109 1.305-.109.183 0 .363.02.543.027 1.043 1.012 4.746 4.852 6.375 9.672-.203.04-.41.078-.617.117Zm-4.597-10.602c.531-.594 1.461-1.473 2.676-2.047.433.16.851.344 1.262.547a34.457 34.457 0 0 0-2.586 1.828 9.61 9.61 0 0 0-1.352-.328Zm-1.121-.129c-.195-.012-.387-.027-.582-.027-.406 0-.8.03-1.195.078.55-.668 1.558-1.668 3.086-2.61.421.063.832.145 1.238.25a10.257 10.257 0 0 0-2.547 2.309Zm-3.055 1.27c.676.554 5.059 4.28 7.801 9.64-.527.094-1.059.184-1.59.266-2.531-4.504-6.62-8.258-7.793-9.281a9.131 9.131 0 0 1 1.582-.625Zm5.203 10.058c-2.277.328-4.425.531-5.906.504a69.88 69.88 0 0 1 2.29-5.418c1.25 1.418 2.562 3.11 3.616 4.914Zm-7.652-8.933c.094.078.316.273.629.558l-.227-.168c-1.59 2.168-2.843 4.856-3.746 7.215-.238-.086-.48-.168-.699-.258a8.954 8.954 0 0 1 4.043-7.347Zm-3.672 8.492c-.14.39-.27.765-.39 1.125-1.895-.63-3.04-1.43-3.614-1.93 0-.066-.008-.129-.008-.195 0-.285.024-.563.04-.84.84.5 2.175 1.195 3.972 1.84Zm-3.922.449c.723.508 1.778 1.09 3.246 1.578-.171.559-.308 1.05-.418 1.465a18.337 18.337 0 0 1-2.586-1.66 12.472 12.472 0 0 1-.242-1.383Zm8.715-7.93c.242.23.52.496.817.79-2.758 4.484-4.438 9.656-4.852 11.007a13.98 13.98 0 0 1-.984-.398c.562-2.262 2.28-7.633 5.02-11.399Zm1.504 1.485c.234.242.477.496.727.765-2.211 4.551-3.77 9.39-4.27 11.028a9.053 9.053 0 0 1-1.11-1.145c.36-1.183 1.973-6.226 4.653-10.648Zm10.023 9.539c-3.472 1.441-7.609 1.898-12.296 1.37.109-.331.23-.702.37-1.109 1.048.098 2.032.149 2.958.149 3.32 0 6.047-.586 9.508-1.461-.153.363-.34.71-.54 1.05Zm.907-2.121c-4.575 1.171-7.774 1.859-12.516 1.457.113-.32.234-.657.36-1 .214.007.437.015.675.015 3.16 0 8.313-.855 11.719-1.617-.055.39-.133.774-.238 1.145Zm-8.235-15.004c-1.996 1.457-2.863 2.851-2.957 3.011a9.939 9.939 0 0 0-4.836 2.985c.215-1.653.618-3.25.875-4.18a12.497 12.497 0 0 1 6.52-1.84c.137 0 .266.02.398.024Zm-8.109 2.633c-.32 1.3-.68 3.074-.766 4.761h.04a9.812 9.812 0 0 0-1.454 4.66 18.848 18.848 0 0 1-2.558-1.355 12.569 12.569 0 0 1 4.738-8.066Zm-4.117 14.265c1.05.703 2.55 1.555 4.293 2.098a9.832 9.832 0 0 0 6.156 3.394c-.93.48-2.328 1.07-4.148 1.5a12.647 12.647 0 0 1-6.301-6.992Zm7.734 7.59c2.422-.727 3.938-1.668 4.434-2.008a9.859 9.859 0 0 0 4.738-1.398c.18.844.356 1.902.496 2.785a12.489 12.489 0 0 1-5.574 1.316c-1.434 0-2.809-.254-4.094-.695Zm13.8-3.875c-.323-2.008-.733-3.355-.827-3.64a9.823 9.823 0 0 0 .844-6.352c.824.68 1.941 1.84 2.765 3.617a12.556 12.556 0 0 1-2.781 6.375Zm0 0"/></svg>