<svg xmlns="http://www.w3.org/2000/svg" width="500" viewBox="0 0 375 375" height="500" version="1.0"><defs><clipPath id="a"><path d="M2.68 5.355h369.75V375H2.68Zm0 0"/></clipPath></defs><g clip-path="url(#a)"><path d="M187.555 5.277C85.578 5.277 2.605 88.25 2.605 190.23c0 101.985 82.965 184.958 184.95 184.958 101.98 0 184.945-82.973 184.945-184.958 0-101.98-82.973-184.953-184.945-184.953Zm158.691 247.504-27.16-.148c-.867-14.828-4.785-50.012-22.063-79.418l25.72-51.63 22.206 2.802c8.512 20.273 13.227 42.515 13.227 65.84-.008 22.082-4.27 43.164-11.93 62.554Zm-225.34-179.93c10.383.403 47.465 3.11 76.742 20.465l9.204 67.48-48.743 48.74-67.48-9.184c-17.313-29.207-20.055-66.348-20.473-76.762Zm96.082 98.075 67.469 9.195c17.313 29.215 20.055 66.363 20.465 76.758l-50.758 50.758c-10.375-.41-47.45-3.117-76.726-20.469l-9.204-67.492Zm120.586-61.903-15.656-1.976-51.2-51.188-1.972-15.656c29.059 15.785 53.035 39.762 68.828 68.82ZM253.38 32.836l2.8 22.207-51.609 25.719c-29.39-17.278-64.566-21.196-79.402-22.063l-.148-27.164c19.382-7.66 40.464-11.926 62.543-11.926 23.308 0 45.542 4.723 65.816 13.227ZM28.87 127.684l27.133.14c.867 14.836 4.781 50.028 22.07 79.434l-25.703 51.594-22.203-2.809c-8.508-20.258-13.23-42.488-13.23-65.813 0-22.074 4.265-43.164 11.933-62.546Zm8.66 143.742 15.66 1.98 51.184 51.196 1.977 15.66c-29.055-15.801-53.032-39.778-68.82-68.836Zm84.192 76.199-2.809-22.203 51.594-25.711c29.406 17.281 64.59 21.203 79.414 22.07l.152 27.14c-19.375 7.661-40.457 11.927-62.535 11.927-23.309.007-45.547-4.715-65.816-13.223Zm0 0"/></g></svg>