<svg xmlns="http://www.w3.org/2000/svg" width="500" viewBox="0 0 375 375" height="500" version="1.0"><defs><clipPath id="a"><path d="M98 234h89v88.734H98Zm0 0"/></clipPath><clipPath id="b"><path d="M188 52h180.906v180H188Zm0 0"/></clipPath></defs><g clip-path="url(#a)"><path fill="#545454" d="m166.383 247.941-6.41 3.676L152.78 256s-44.984 44.504-45.312 44.422c-.293-.043-1.614.742-3.39 1.777-1.778 1.031-4.384 3.758-5.5 6.692-.829 2.273 3.308 6.902 4.507 8.183 0 0 .039.043.164.164.082.125.164.168.164.168 1.281 1.196 5.914 5.328 8.188 4.504 2.933-1.117 5.664-3.68 6.699-5.496 1.031-1.777 1.86-3.059 1.777-3.39-.043-.29 44.445-45.29 44.445-45.29l4.383-7.191 3.68-6.402 13.809-13.97-6.04-6.03Zm0 0"/></g><g clip-path="url(#b)"><path fill="#545454" d="M368.184 97.566a47.501 47.501 0 0 0-1.364-5.953c-.125-.37-.207-.742-.332-1.113a51.778 51.778 0 0 0-3.097-7.727 46.445 46.445 0 0 0-1.739-3.183c-.164-.29-.37-.621-.539-.91a50.78 50.78 0 0 0-6.902-8.883c-.25-.25-.457-.496-.703-.746-.25-.246-.496-.496-.746-.742a53.16 53.16 0 0 0-7.73-6.614c-.29-.207-.579-.41-.868-.578a56.238 56.238 0 0 0-5.914-3.469 47.678 47.678 0 0 0-4.504-1.984c-.332-.125-.703-.25-1.078-.414-2.977-1.074-6.074-1.902-9.258-2.395a56.455 56.455 0 0 0-3.765-.496 147.12 147.12 0 0 0-1.364-.125 47.452 47.452 0 0 0-4.215-.082c-.457 0-.953.04-1.406.04-.828.042-1.695.081-2.523.167-3.102.29-5.996.907-8.477 1.735-.37.125-.703.246-1.074.37-.164.083-.328.126-.496.208a68.718 68.718 0 0 0-8.227 4.05c-.289.165-.62.372-.91.536-2.562 1.531-5.086 3.265-7.691 5.25-.29.207-.535.414-.825.617a148.883 148.883 0 0 0-7.03 5.953 11.17 11.17 0 0 0-.743.703c-2.11 1.899-4.3 4.008-6.656 6.281-.25.247-.496.454-.746.7-1.735 1.695-3.555 3.515-5.496 5.414-.332.332-.664.703-1.036 1.035-.246.246-.453.496-.703.742a81.713 81.713 0 0 0-5.828 7.11c-.207.289-.414.535-.62.824-1.74 2.398-3.43 5-5.126 7.812-.168.29-.375.617-.539.906a196.365 196.365 0 0 0-1.86 3.184c-.91 1.652-1.863 3.387-2.769 5.164-.168.332-.332.621-.496.953-1.406 2.809-2.812 5.7-4.176 8.758-.168.332-.293.664-.457.992a256.24 256.24 0 0 0-3.68 8.719c-.038.125-.124.29-.163.414-.125.332-.29.703-.415 1.035-.746 1.86-1.406 3.676-2.066 5.453-.289.743-.539 1.489-.828 2.23l-.621 1.735c-.121.375-.246.703-.371 1.078-3.39 9.711-5.25 16.57-5.25 16.692l-.371 1.406-1.2 2.52-1.28 2.73-7.032 14.71-13.602 29.38-11.699 15.25-.828.785 5.996 5.992.785-.828 15.254-11.695 16.953-7.89.04.038.085-.082 12.278-5.703 17.613-8.016 2.644-1.199h.043l1.364-.37c.082-.044 6.988-1.86 16.703-5.25.37-.122.703-.247 1.074-.372 1.45-.496 2.977-1.074 4.55-1.652l2.356-.868c.828-.332 1.696-.66 2.524-.992.328-.125.703-.289 1.031-.414.125-.039.289-.125.414-.164 3.02-1.2 5.914-2.437 8.723-3.68.332-.164.664-.289.992-.453a194.864 194.864 0 0 0 8.765-4.172c.333-.168.622-.332.954-.496 1.777-.91 3.511-1.82 5.168-2.77a277.498 277.498 0 0 0 3.183-1.859c.29-.168.617-.37.906-.539 2.813-1.691 5.418-3.386 7.817-5.12.289-.208.578-.415.828-.622 2.644-1.941 5-3.887 7.11-5.828.25-.246.495-.453.745-.703.372-.328.7-.66 1.032-1.031 1.902-1.942 3.722-3.762 5.418-5.496.246-.25.496-.496.703-.743 2.273-2.355 4.383-4.546 6.281-6.656.25-.246.457-.496.703-.742 2.192-2.438 4.176-4.754 5.953-7.023.207-.293.414-.54.621-.829 1.985-2.605 3.723-5.125 5.25-7.687.168-.29.375-.617.54-.906a68.718 68.718 0 0 0 4.05-8.227c.082-.164.125-.328.207-.496.125-.328.25-.7.371-1.074.828-2.477 1.45-5.371 1.739-8.469a49.72 49.72 0 0 0 .164-2.523c.043-.454.043-.95.043-1.403v-1.57c.082-2.48-.125-5.043-.54-7.645Zm-5.043.825c.164 1.074.332 2.148.414 3.183l-3.39-3.39 2.48-2.438c.164.91.332 1.82.496 2.645Zm-40.559-40.496c1.82.289 3.805.746 5.996 1.406.371.125.742.207 1.113.328a47.555 47.555 0 0 1 10.75 5.125c.29.207.579.371.872.578a50.078 50.078 0 0 1 7.769 6.531l.043.04.043.042c.246.246.453.453.7.703.25.247.495.497.702.743 2.813 2.976 5.047 5.992 6.825 9.007.164.29.37.622.535.91 2.234 4.008 3.597 7.895 4.465 11.325l-2.891 2.851-7.899-7.894 6.368-6.281c-.164-.29-.332-.621-.54-.91l-6.53 6.449-7.895-7.895 7.523-7.601c-.25-.25-.457-.497-.703-.747l-7.691 7.563-7.895-7.89 7.028-6.946c-.29-.207-.579-.371-.868-.578l-6.906 6.82-7.894-7.894 4.09-4.008a12.024 12.024 0 0 0-1.114-.332l-3.68 3.637-5.457-5.454c1.032.04 2.067.164 3.141.372Zm-53.625 78.722 6.535-6.449 7.895 7.894-6.532 6.446Zm7.195 8.637-6.53 6.445-7.9-7.894 6.532-6.446Zm.043-15.785 6.532-6.45 7.894 7.895-6.531 6.445Zm36.215-19.961-6.531 6.406-7.899-7.894 6.536-6.446Zm-7.191-8.637 6.531-6.445 7.895 7.89-6.532 6.45Zm-.043 15.785-6.531 6.446-7.899-7.891 6.531-6.445Zm-7.278 7.149-6.53 6.449-7.9-7.895 6.536-6.445Zm-6.53 7.851 7.894 7.895-6.532 6.445-7.894-7.894Zm.741-.703 6.536-6.445 7.894 7.894-6.531 6.446Zm7.239-7.148 6.53-6.446 7.9 7.891-6.536 6.45Zm7.273-7.149 6.535-6.445 7.895 7.89-6.531 6.45Zm7.238-7.148 6.532-6.445 7.898 7.89-6.535 6.45Zm7.235-7.149 6.531-6.445 7.898 7.89-6.492 6.446Zm7.277-7.148 6.531-6.45 7.899 7.895-6.535 6.446Zm-.746-.746-7.895-7.89 6.532-6.45 7.898 7.895Zm-.703.746-6.531 6.445-7.899-7.933 6.535-6.446Zm-15.172-2.234-7.898-7.891 6.535-6.445 7.894 7.933Zm-.746.746-6.531 6.445-7.895-7.89 6.531-6.489Zm-7.234 7.148-6.532 6.406-7.898-7.894 6.535-6.445Zm-7.235 7.149-6.531 6.445-7.899-7.89 6.532-6.446Zm-7.277 7.148-6.531 6.406-7.899-7.894 6.535-6.446Zm-7.235 7.148-6.53 6.45-7.9-7.895 6.532-6.445Zm-7.277 7.153-6.492 6.402-7.895-7.89 6.532-6.45Zm-7.234 7.148-6.532 6.446-7.898-7.895 6.531-6.445Zm1.363 15.785-6.531 6.446-7.899-7.895 6.535-6.445Zm.746.703 7.895 7.891-6.532 6.445-7.898-7.89Zm.742-.703 6.532-6.449 7.898 7.895-6.531 6.445Zm7.235-7.148 6.535-6.45 7.894 7.895-6.53 6.446Zm15.175 2.187 7.895 7.895-6.531 6.445-7.899-7.89Zm.704-.703 6.53-6.445 7.9 7.894-6.536 6.446Zm7.277-7.148 6.531-6.445 7.895 7.894-6.532 6.445Zm7.234-7.149 6.532-6.445 7.898 7.89-6.492 6.45Zm7.278-7.148 6.53-6.445 7.895 7.89-6.53 6.45Zm7.234-7.148 6.531-6.446 7.899 7.89-6.535 6.446Zm7.234-7.149 6.532-6.445 7.898 7.89-6.531 6.446Zm7.278-7.148 6.531-6.45 7.898 7.895-6.535 6.445Zm-1.407-15.785 6.532-6.45 7.898 7.895-6.531 6.445Zm-.703-.747-7.937-7.89 6.531-6.45 7.938 7.934Zm-8.64-8.636-7.899-7.89 6.535-6.45 7.895 7.894Zm-.746.746-6.532 6.445-7.894-7.933 6.531-6.446Zm-15.13-2.192-7.898-7.894 6.532-6.445 7.898 7.894Zm-.745.704-6.532 6.445-7.898-7.89 6.535-6.45Zm-7.235 7.148-6.531 6.445-7.898-7.89 6.53-6.45Zm-7.277 7.148-6.531 6.446-7.899-7.934 6.531-6.445Zm-7.234 7.149-6.532 6.445-7.898-7.89 6.531-6.446Zm-7.278 7.148-6.531 6.45-7.899-7.938 6.532-6.445Zm-7.234 7.149-6.531 6.449-7.899-7.895 6.531-6.445Zm-7.278 7.152-6.53 6.445-7.9-7.894 6.532-6.445Zm-7.234 7.148-6.535 6.446-7.895-7.895 6.532-6.445Zm1.363 15.786-6.53 6.445-7.9-7.89 6.532-6.45ZM253 150.914l-6.531 6.445-7.899-7.933 6.532-6.446Zm.742.703 7.899 7.89-6.532 6.45-7.898-7.894Zm8.602 8.637 7.894 7.89-6.531 6.45-7.855-7.895Zm8.64 8.637 7.895 7.89-6.488 6.446-7.899-7.891Zm.743-.703 6.535-6.446 7.894 7.89-6.531 6.446Zm7.238-7.149 6.531-6.45 7.899 7.895-6.536 6.446Zm15.172 2.188 7.898 7.894-6.492 6.445-7.938-7.89Zm.746-.7 6.531-6.449 7.895 7.895-6.532 6.445Zm7.234-7.152 6.531-6.445 7.899 7.894-6.535 6.446Zm7.278-7.148 6.53-6.446 7.895 7.895-6.53 6.445Zm7.234-7.149 6.531-6.445 7.899 7.89-6.536 6.45Zm7.234-7.148 6.532-6.446 7.898 7.891-6.531 6.45Zm7.278-7.149 6.53-6.445 7.9 7.89-6.536 6.446Zm7.234-7.148 6.531-6.45 7.899 7.895-6.493 6.445Zm7.277-7.149 6.532-6.449 7.898 7.895-6.535 6.445ZM344.246 96.7l6.531-6.449 7.899 7.895-6.492 6.445Zm-42.172-37.273c.746-.332 1.613-.621 2.563-.871.375-.082.746-.207 1.16-.29 2.11-.495 4.59-.867 7.36-.992.495 0 .991-.039 1.488-.039 1.03 0 2.066.04 3.183.082l6.285 6.282-6.492 6.488-7.898-7.895 4.96-4.918c-.495 0-.992 0-1.488.043l-4.215 4.133-3.183-3.183c-.414.082-.785.207-1.16.289l3.597 3.597-6.488 6.446-6.078-6.075c2.066-1.156 4.176-2.148 6.406-3.097Zm-7.36 3.594L301 69.3l-6.531 6.446-7.528-7.52c2.649-1.984 5.168-3.718 7.774-5.206Zm-16.37 12.437c.246-.246.496-.453.742-.703 2.48-2.23 4.797-4.172 7.031-5.91l7.606 7.605-6.493 6.446-8.144-8.141c-.246.207-.496.457-.742.703l8.144 8.14-6.531 6.446-8.312-8.305c2.398-2.312 4.59-4.422 6.699-6.281Zm-12.899 12.398c1.942-1.94 3.762-3.718 5.496-5.414l8.313 8.305-6.535 6.45-8.309-8.31c.371-.37.703-.702 1.035-1.03Zm-1.695 1.778 8.27 8.262-6.536 6.449-7.566-7.524c1.945-2.683 3.887-5.082 5.832-7.187Zm-6.41 8.015 7.402 7.395-6.535 6.45-5.953-5.954c1.695-2.852 3.39-5.496 5.086-7.89Zm-5.621 8.801 5.746 5.746-6.531 6.446-3.766-3.762a173.442 173.442 0 0 1 4.55-8.43Zm-5.004 9.383 3.515 3.512-6.535 6.445-1.113-1.117c1.363-3.098 2.727-6.074 4.133-8.84Zm-4.59 9.832.828.828-2.066 2.024c.41-.95.824-1.899 1.238-2.852Zm-4.504 11.117c.121-.289.246-.62.328-.91.125-.328.25-.703.414-1.031.332-.828.66-1.653.992-2.524.043-.12.083-.203.125-.328l.165-.332s-.04.125-.165.332c.125-.332.29-.703.415-1.035l3.8-3.758 7.899 7.89-6.492 6.45-6.739-6.738c-.125.332-.289.703-.414 1.035l6.41 6.402-6.535 6.45-2.687-2.688c.703-3.594 1.656-6.777 2.484-9.215Zm-2.687 10.453 2.187 2.192-2.809 2.77c.125-1.735.372-3.391.622-4.962Zm17.652 47.11c-.332.164-6.367 2.933-13.89 6.363l-2.731 1.242c-12.238 5.578-26.707 12.23-26.707 12.23s-2.274.95-2.649.415c-.082-.082-.12-.168-.207-.25-.082-.082-.164-.121-.246-.207-.539-.371.414-2.645.414-2.645s5.871-12.851 11.246-24.543c.414-.87.786-1.777 1.2-2.605 3.886-8.473 7.234-15.785 7.398-16.117.414-.868.54-2.024 2.606-1.942 2.066.082 2.19 2.852 2.19 2.852.083.457.497 1.199 1.118 2.11.164.288.371.577.578.866 2.028 2.89 5.293 6.899 6.946 8.844h.043c.246.207.496.41.785.66 2.355 1.985 6.367 5.207 8.968 6.86.332.207.622.414.91.539.458.246.872.453 1.16.492 0 0 2.77.168 2.852 2.191.082 2.024-1.117 2.23-1.984 2.645Zm-5.79-18.762-.702-.7-8.598-8.597-2.812-2.808c-.496-3.305-.579-6.57-.414-9.711l3.64-3.598 7.895 7.894-8.309 8.184.703.7 8.309-8.18 7.898 7.89-8.312 8.184.703.742 8.312-8.18 7.895 7.891-8.309 8.184Zm10.75 10.785-2.108-2.105 8.312-8.184 7.895 7.895-2.934 2.89c-3.555.25-7.36.168-11.164-.496Zm12.778.375 2.067-2.066 1.57 1.57c-1.2.207-2.399.371-3.637.496Zm8.68-1.531c-1.2.289-2.48.578-3.805.828l-2.066-2.066 6.535-6.446 5.457 5.453c-2.152.786-4.176 1.528-6.121 2.23Zm9.633-3.637c-.867.332-1.696.664-2.52.992-.168.082-.332.125-.539.207.164-.082.332-.125.54-.207l-5.747-5.742 6.531-6.449 7.895 7.895-1.32 1.324c-1.57.66-3.184 1.32-4.84 1.98Zm26.793-12.89c-.29.164-.621.37-.91.535a171.312 171.312 0 0 1-8.395 4.547c-.328.164-.66.332-.95.496a197.07 197.07 0 0 1-8.847 4.133l-.082-.083 6.531-6.449 2.399 2.399c.332-.164.66-.332.949-.496l-2.602-2.606 6.489-6.445 4.508 4.504c.332-.164.62-.371.91-.535l-4.672-4.672 6.531-6.446 6.035 6.036c-2.394 1.691-5.043 3.386-7.894 5.082Zm8.765-5.664-6.16-6.157 6.531-6.445 6.82 6.816a101.162 101.162 0 0 1-7.19 5.786Zm8.93-7.52c-.332.332-.703.66-1.035 1.035l-6.82-6.82 6.53-6.445 6.782 6.777.371-.371-.371.37c-1.738 1.692-3.516 3.556-5.457 5.454Zm6.16-6.2-6.738-6.734 6.531-6.445 6.492 6.488c-1.902 2.106-4.011 4.297-6.285 6.692Zm6.945-7.437-6.449-6.445 6.531-6.445 5.872 5.867a150.906 150.906 0 0 1-5.954 7.023Zm6.575-7.851-5.746-5.742 6.53-6.45 4.427 4.422c-1.532 2.606-3.227 5.125-5.211 7.77Zm8.765-15.125c-.91 2.234-1.945 4.34-3.058 6.406l-4.219-4.215 6.531-6.445 1.656 1.652c-.289.992-.62 1.86-.91 2.602Zm-.043-4.918 1.778-1.735c-.164 1.036-.328 2.028-.578 2.934Zm1.985-3.387-2.688 2.645-7.894-7.891 6.53-6.45 4.259 4.259c.125 2.683.043 5.164-.207 7.437Zm0 0"/></g><path fill="#545454" d="M276.398 308.688c-1.113-2.938-3.68-5.665-5.496-6.696-1.777-1.035-3.058-1.86-3.39-1.777-.29.043-45.313-44.422-45.313-44.422l-7.195-4.383-6.41-3.676-23.192-22.933-11.703-15.25-13.683-29.297-7.028-14.711-1.281-2.727-1.2-2.523-.374-1.402c-.04-.086-1.86-6.985-5.25-16.696-.125-.37-.246-.703-.371-1.074l-.621-1.738c-.246-.742-.536-1.485-.825-2.23-.664-1.778-1.324-3.594-2.07-5.454-.121-.332-.289-.703-.414-1.035-.039-.121-.121-.289-.164-.41-1.2-3.02-2.438-5.91-3.68-8.723-.164-.328-.289-.66-.453-.988a196.68 196.68 0 0 0-4.176-8.762c-.168-.332-.332-.62-.496-.949-.91-1.777-1.82-3.516-2.77-5.168-.62-1.074-1.241-2.148-1.863-3.18-.164-.289-.37-.62-.535-.91-1.695-2.808-3.39-5.414-5.129-7.812-.207-.29-.414-.578-.617-.825a83.01 83.01 0 0 0-5.832-7.109c-.246-.246-.453-.496-.703-.742-.328-.371-.66-.703-1.031-1.035-1.945-1.899-3.766-3.719-5.5-5.41-.25-.25-.496-.496-.746-.704-2.356-2.273-4.547-4.382-6.657-6.28-.246-.25-.496-.458-.742-.704-2.441-2.191-4.754-4.172-7.027-5.95-.293-.206-.54-.413-.828-.62-2.606-1.985-5.13-3.719-7.692-5.25-.289-.164-.62-.371-.91-.535a69.311 69.311 0 0 0-8.226-4.051c-.164-.082-.332-.121-.496-.207a47.48 47.48 0 0 0-1.075-.371c-2.48-.824-5.375-1.446-8.476-1.735a49.72 49.72 0 0 0-2.524-.164c-.453-.043-.949-.043-1.402-.043-1.406-.043-2.812 0-4.219.082-.453.043-.91.082-1.363.125-1.242.125-2.523.29-3.762.496a54.196 54.196 0 0 0-9.261 2.395c-.372.125-.704.25-1.075.414a48.314 48.314 0 0 0-4.507 1.984 56.272 56.272 0 0 0-5.915 3.473c-.289.203-.578.371-.867.578-2.726 1.942-5.332 4.133-7.73 6.61l-.746.746c-.246.246-.496.496-.703.742-2.645 2.77-4.961 5.746-6.903 8.887-.164.289-.37.578-.539.906a48.308 48.308 0 0 0-1.734 3.183 51.964 51.964 0 0 0-3.102 7.727c-.125.371-.207.742-.332 1.117a49.82 49.82 0 0 0-1.363 5.95c-.414 2.601-.66 5.163-.703 7.726v1.57c0 .457.043.953.043 1.407.039.824.082 1.695.164 2.52.289 3.1.91 5.991 1.734 8.472.125.37.25.703.375 1.074.082.164.125.332.207.496 1.2 2.89 2.52 5.578 4.051 8.223.164.289.371.62.54.91 1.526 2.562 3.265 5.082 5.25 7.683.206.29.413.54.616.829a151.487 151.487 0 0 0 5.957 7.023c.207.25.453.496.703.746 1.899 2.106 4.008 4.297 6.282 6.652.25.247.457.497.703.743 1.695 1.738 3.515 3.554 5.418 5.496.328.332.703.664 1.031 1.035.25.246.496.453.746.703a81.57 81.57 0 0 0 7.11 5.824c.289.207.539.414.828.621 2.398 1.735 5.004 3.43 7.812 5.125.293.164.621.371.91.535 1.035.622 2.11 1.243 3.184 1.86 1.656.91 3.39 1.86 5.168 2.77.332.163.62.331.953.495a212.35 212.35 0 0 0 8.766 4.172c.328.168.66.293.992.457a245.757 245.757 0 0 0 8.722 3.676c.125.043.29.125.415.168.328.121.703.29 1.03.41.872.332 1.696.664 2.524.992l2.356.868c1.57.582 3.101 1.117 4.547 1.656.375.121.703.246 1.078.371 9.715 3.387 16.578 5.246 16.703 5.246l1.363.375h.043l2.645 1.195 17.613 8.02 12.238 5.7.082.085.04-.043 16.952 7.895 15.258 11.691 22.945 23.184 3.68 6.406 4.383 7.187s44.527 44.961 44.445 45.293c-.086.329.742 1.61 1.778 3.387 1.03 1.777 3.761 4.383 6.695 5.496 2.273.828 6.906-3.305 8.187-4.504 0 0 .043-.039.164-.164.125-.082.168-.168.168-.168 1.489-1.445 5.622-6.074 4.793-8.344Zm-136.02-145.5-2.812 2.808-8.312-8.18 7.898-7.894 3.637 3.594c.168 3.101.086 6.363-.41 9.672Zm-19.1-13.223-6.536-6.45 7.899-7.89 6.53 6.445Zm8.64-7.192 6.531 6.446-7.937 7.894-6.532-6.449Zm-75.29-39.96 6.532 6.449-7.937 7.933-6.532-6.449Zm-8.64 7.234-6.531-6.45 7.895-7.89 6.53 6.445Zm30.387 12.808-6.531-6.445 7.898-7.894 6.531 6.445Zm8.64-7.19 6.536 6.448-7.938 7.89-6.535-6.444Zm-15.917.042-6.532-6.445 7.899-7.895 6.531 6.445Zm-7.235-7.148-6.531-6.45 7.898-7.89 6.532 6.445Zm0 1.402 6.535 6.45-7.898 7.89-6.531-6.446Zm7.235 7.148 6.535 6.45-7.899 7.933-6.53-6.445Zm7.277 7.153 6.535 6.445-7.898 7.89-6.532-6.445Zm7.238 7.148 6.532 6.445-7.899 7.895-6.531-6.45Zm.742-.703 7.899-7.894 6.531 6.449-7.898 7.89Zm15.172-.746 6.535 6.45-7.898 7.89-6.574-6.446Zm7.239 7.152 6.53 6.446-7.937 7.89-6.535-6.445Zm.742-.746 7.898-7.89 6.531 6.445-7.937 7.89Zm-.742-.703-6.536-6.445 7.899-7.89 6.531 6.444Zm-7.278-7.148-6.531-6.446 7.895-7.894 6.53 6.449Zm-7.234-7.149-6.535-6.445 7.898-7.895 6.531 6.45Zm-7.238-7.148-6.532-6.446 7.899-7.894 6.531 6.445Zm-7.274-7.149-6.535-6.445 7.898-7.895 6.532 6.446Zm-7.238-7.148-6.531-6.45 7.898-7.89 6.531 6.406Zm-7.274-7.149-6.535-6.449 7.899-7.89 6.531 6.445Zm-.703.7-7.898 7.894-6.531-6.445 7.894-7.895Zm-15.175.785-6.532-6.445 7.895-7.891 6.535 6.445Zm-.704.703-7.894 7.894-6.574-6.406 7.894-7.89Zm-8.64 8.637-7.895 7.894-6.535-6.449 7.899-7.89Zm.703.703 6.531 6.445-7.894 7.895-6.532-6.407Zm7.277 7.148 6.532 6.446-7.938 7.894-6.531-6.445Zm7.235 7.149 6.53 6.449-7.894 7.89-6.53-6.445Zm7.234 7.148 6.535 6.45-7.898 7.89-6.532-6.445Zm7.277 7.152 6.532 6.446-7.895 7.89-6.531-6.445Zm7.235 7.149 6.535 6.445-7.899 7.895-6.53-6.45Zm7.277 7.148 6.535 6.446-7.898 7.894-6.531-6.45Zm.703-.703 7.899-7.894 6.53 6.449-7.898 7.89Zm15.176-.785 6.531 6.445-7.898 7.895-6.531-6.445Zm7.273 7.148 6.536 6.446-7.942 7.894-6.531-6.445Zm.704-.703 7.898-7.89 6.531 6.445-7.894 7.895Zm16.539-17.972-6.532-6.45 7.895-7.89 6.535 6.445Zm-7.235-7.153-6.535-6.445 7.899-7.89 6.53 6.445Zm-7.277-7.148-6.492-6.445 7.898-7.895 6.531 6.45Zm-7.234-7.149-6.536-6.445 7.899-7.894 6.531 6.449Zm-7.239-7.148-6.531-6.445 7.898-7.895 6.532 6.445Zm-7.273-7.148-6.535-6.446 7.898-7.894 6.531 6.445Zm-7.238-7.149-6.532-6.45 7.899-7.89 6.531 6.446Zm-7.274-7.148-6.535-6.45 7.898-7.89 6.532 6.445Zm-7.238-7.149-6.531-6.449L66 62.65l6.531 6.445Zm-.742.7-7.899 7.894-6.531-6.406 7.937-7.89Zm-15.176.785-6.488-6.446 7.894-7.89 6.535 6.445Zm-.7.703-7.898 7.933-6.531-6.445 7.894-7.894Zm-8.644 8.636-7.894 7.895-6.532-6.406 7.895-7.895Zm-8.64 8.637-7.895 7.895-6.535-6.45 7.898-7.89Zm-7.895 9.34 6.531 6.445-7.937 7.895-6.532-6.45Zm7.234 7.148 6.532 6.446-7.895 7.894-6.535-6.445Zm7.278 7.149 6.53 6.445-7.894 7.895-6.535-6.446Zm7.234 7.148 6.531 6.45-7.894 7.89-6.535-6.445Zm7.277 7.149 6.532 6.449-7.895 7.89-6.535-6.445Zm7.235 7.152 6.531 6.445-7.895 7.891-6.53-6.402Zm7.234 7.149 6.535 6.445-7.898 7.89-6.531-6.445Zm7.277 7.148 6.532 6.445-7.895 7.895-6.574-6.406Zm7.235 7.148 6.535 6.446-7.898 7.894-6.532-6.406Zm.746-.703 7.894-7.89 6.536 6.445-7.899 7.89Zm15.172-.785 6.535 6.446-7.898 7.894-6.575-6.406Zm7.234 7.149 6.535 6.445-7.898 7.894-6.531-6.445Zm.746-.703 7.899-7.891 6.531 6.445-7.898 7.895Zm8.602-8.637 7.894-7.89 6.532 6.444-7.895 7.895Zm15.172-.785 8.308 8.183-7.894 7.934-8.313-8.18Zm12.156-6.57-2.813-2.766 2.192-2.192c.289 1.61.496 3.266.621 4.957Zm-3.309-15.415c.828 2.442 1.778 5.621 2.438 9.219l-2.688 2.684-6.53-6.446 6.41-6.406c.163.371.288.66.37.95Zm-1.859-4.793c-.086-.207-.168-.328-.168-.328l.168.328c.04.125.082.207.121.332.332.868.664 1.696.992 2.52l-6.738 6.738-6.531-6.45 7.894-7.89 3.805 3.758c.168.332.332.664.457.992Zm-1.406-3.43-2.067-2.023.825-.828c.414.91.828 1.86 1.242 2.852Zm-1.656-3.925-1.114 1.117-6.535-6.445 3.516-3.516c1.363 2.852 2.77 5.79 4.132 8.844Zm-4.63-9.793-3.761 3.762-6.531-6.446 5.746-5.746a202.205 202.205 0 0 1 4.547 8.43Zm-5.085-9.297-5.953 5.95-6.532-6.446 7.399-7.399a99.86 99.86 0 0 1 5.086 7.895Zm-5.664-8.719-7.524 7.52L103 97.648l8.27-8.265c1.945 2.11 3.847 4.504 5.789 7.191Zm-7.524-8.969c.328.332.66.704 1.031 1.036l-8.308 8.304-6.531-6.445 8.308-8.309c1.778 1.696 3.598 3.516 5.5 5.414Zm-6.203-6.113-8.309 8.305-6.535-6.445 8.188-8.141c2.066 1.898 4.3 3.965 6.656 6.281Zm-7.441-6.984-8.145 8.14-6.531-6.445 7.605-7.605a102.699 102.699 0 0 1 7.07 5.91Zm-7.856-6.531L80.512 75.5l-6.535-6.45 6.285-6.28a78.222 78.222 0 0 1 7.773 5.207Zm-15.133-8.758c2.235.906 4.344 1.941 6.41 3.054l-6.078 6.079-6.53-6.45 3.593-3.593c.992.289 1.863.578 2.605.91Zm-3.718-1.2L66 61.2l-4.219-4.129a37.06 37.06 0 0 1 7.403.95Zm-8.891-.992 4.96 4.918-7.894 7.89-6.535-6.444 6.285-6.282c1.118-.082 2.192-.082 3.184-.082Zm-7.898.621c1.078-.168 2.152-.332 3.183-.414l-5.457 5.453-3.68-3.636a45.218 45.218 0 0 1 5.954-1.403Zm-7.067 1.735 4.09 4.008-7.938 7.933-6.902-6.816a46.62 46.62 0 0 1 10.75-5.125ZM25.895 71.695l.043-.039c2.519-2.605 5.167-4.793 7.769-6.531l7.031 6.945-7.898 7.89-7.649-7.562c.207-.246.457-.453.704-.703Zm-1.446 1.407 7.649 7.562-7.899 7.934-6.531-6.489c1.734-2.972 3.969-6.03 6.781-9.007Zm-7.32 9.96 6.367 6.239-7.894 7.894-2.895-2.851a43.971 43.971 0 0 1 4.422-11.281Zm-5.25 15.083c.125-.829.289-1.735.496-2.645l2.48 2.438-3.39 3.386c.082-1.031.25-2.105.414-3.18Zm-.54 4.75 4.263-4.254 6.53 6.445-7.898 7.894-2.687-2.644c-.29-2.273-.371-4.754-.207-7.441Zm.376 9.093 1.777 1.735-1.199 1.199a19.9 19.9 0 0 1-.578-2.934Zm1.734 6.653a17.072 17.072 0 0 1-.867-2.563l1.652-1.652 6.536 6.445-4.22 4.215a58.28 58.28 0 0 1-3.1-6.445Zm3.598 7.355 4.383-4.422 6.53 6.446-5.745 5.746a70.679 70.679 0 0 1-5.168-7.77Zm5.789 8.594 5.871-5.867 6.531 6.445-6.449 6.45a100.857 100.857 0 0 1-5.953-7.028Zm6.613 7.812 6.492-6.488 6.532 6.445-6.739 6.735a363.437 363.437 0 0 1-6.285-6.692Zm12.406 12.852a662.12 662.12 0 0 1-5.417-5.496l6.78-6.778 6.532 6.446-6.82 6.82a7.759 7.759 0 0 1-1.075-.992Zm1.778 1.734 6.82-6.82 6.531 6.45-6.16 6.155c-2.687-1.941-5.086-3.843-7.191-5.785Zm8.02 6.364 6.035-6.032 6.535 6.446-4.672 4.668a99.621 99.621 0 0 1-7.899-5.082Zm8.804 5.62 4.508-4.503 6.531 6.445-2.601 2.602a156.746 156.746 0 0 1-8.438-4.543Zm18.191 9.133c-3.058-1.363-6.035-2.726-8.847-4.132l2.398-2.399 6.535 6.45Zm7.692 3.223a292.45 292.45 0 0 1-4.836-1.984l-1.324-1.32 7.898-7.895 6.531 6.445-5.746 5.746c-.828-.289-1.656-.664-2.523-.992Zm9.633 3.637a729.559 729.559 0 0 1-6.078-2.23l5.457-5.458 6.535 6.446-2.067 2.066c-1.367-.246-2.648-.496-3.847-.824Zm5.086 1.031 1.57-1.57 2.066 2.066a48.625 48.625 0 0 1-3.636-.496Zm16.37.125c-3.8.66-7.605.742-11.16.496l-2.937-2.894 7.898-7.891 8.31 8.18Zm-5.456-11.035 7.898-7.89 8.309 8.183-7.895 7.89Zm56.847 38.805c-.082.082-.164.125-.246.207-.082.082-.125.164-.207.246-.37.539-2.644-.41-2.644-.41s-14.473-6.657-26.711-12.235l-2.727-1.238c-7.484-3.43-13.562-6.2-13.894-6.363-.868-.414-2.024-.54-1.942-2.606.082-2.066 2.852-2.187 2.852-2.187.289-.043.664-.25 1.16-.496.289-.168.578-.332.91-.54 2.602-1.652 6.57-4.917 8.969-6.859.289-.246.539-.453.785-.66h.043c1.613-1.941 4.918-5.91 6.945-8.844.207-.289.414-.578.578-.867.579-.91.993-1.652 1.118-2.11 0 0 .164-2.769 2.191-2.85 2.027-.083 2.148 1.073 2.605 1.944.165.372 3.512 7.645 7.399 16.114.414.867.785 1.738 1.2 2.605a13126.562 13126.562 0 0 1 11.245 24.543s.91 2.274.371 2.606ZM206.031 112.895a19.661 19.661 0 0 1-.375 3.824 19.523 19.523 0 0 1-1.117 3.672c-.246.593-.52 1.172-.82 1.738a19.326 19.326 0 0 1-2.137 3.195c-.406.492-.836.969-1.289 1.422-.453.453-.93.883-1.426 1.293-.496.406-1.012.785-1.543 1.145-.535.355-1.086.683-1.652.988a19.94 19.94 0 0 1-3.547 1.469c-.617.187-1.238.34-1.867.464a19.421 19.421 0 0 1-7.645 0 18.893 18.893 0 0 1-1.867-.464 20.016 20.016 0 0 1-3.55-1.47 20.664 20.664 0 0 1-1.65-.987 20.206 20.206 0 0 1-1.542-1.145 20.208 20.208 0 0 1-2.719-2.715 19.28 19.28 0 0 1-1.144-1.547 18.961 18.961 0 0 1-.989-1.648 19.523 19.523 0 0 1-1.473-3.547 19.587 19.587 0 0 1-.746-3.766 18.514 18.514 0 0 1-.097-1.921c0-.641.031-1.282.098-1.918a19.587 19.587 0 0 1 1.394-5.575c.246-.593.52-1.172.824-1.738.301-.566.633-1.117.989-1.648a19.28 19.28 0 0 1 3.863-4.262c.496-.406 1.008-.79 1.543-1.145a20.663 20.663 0 0 1 1.648-.988 20.016 20.016 0 0 1 3.55-1.469 19.411 19.411 0 0 1 5.688-.844 19.661 19.661 0 0 1 3.825.376c.629.129 1.25.28 1.867.468a19.94 19.94 0 0 1 3.547 1.47c.566.304 1.117.632 1.652.987a19.94 19.94 0 0 1 1.543 1.145c.496.41.973.84 1.426 1.293.453.453.883.926 1.289 1.422a19.326 19.326 0 0 1 2.137 3.195 20.158 20.158 0 0 1 1.469 3.547 19.112 19.112 0 0 1 .75 3.766c.062.636.093 1.277.093 1.918Zm0 0"/></svg>