<svg xmlns="http://www.w3.org/2000/svg" width="500" viewBox="0 0 375 375" height="500" version="1.0"><defs><clipPath id="a"><path d="M2.95 49h369v213h-369Zm0 0"/></clipPath><clipPath id="b"><path d="M2.95 270h369v38.426h-369Zm0 0"/></clipPath></defs><path fill="#545454" d="M267.8 176.555c0 19.953 16.208 36.187 36.13 36.187 19.925 0 36.132-16.234 36.132-36.187 0-19.953-16.207-36.188-36.132-36.188-19.922 0-36.13 16.235-36.13 36.188Zm0 0"/><g clip-path="url(#a)"><path fill="#545454" d="M363.75 245.133c-12.082 0-17.629-3.938-24.648-8.922-7.887-5.602-16.825-11.953-34.133-11.953-10.082 0-17.278 2.18-23.125 5.086-17.125-29.86-65.676-114.551-65.676-114.551a5.351 5.351 0 0 1-.145-4.805 5.326 5.326 0 0 1 3.707-3.008l65.672-13.226c11.282-2.473 18.88-13.387 17.29-24.844-1.727-12.453-13.84-21.363-26.551-18.773l-95.036 21.37c-8.464 1.731-15.273 6.688-19.175 13.962-4.02 7.492-4.38 16.629-.965 25.125l24.863 56.504-98.691 59.797c-4.723-1.586-10.282-2.637-17.23-2.637-17.302 0-26.239 6.351-34.126 11.953-7.015 4.984-12.558 8.922-24.633 8.922-4.527 0-8.199 3.676-8.199 8.215 0 4.535 3.672 8.21 8.2 8.21 17.3 0 26.238-6.351 34.124-11.953 7.016-4.984 12.559-8.921 24.633-8.921 12.078 0 17.621 3.937 24.64 8.921 7.884 5.606 16.821 11.954 34.126 11.954 17.305 0 26.238-6.352 34.121-11.954 7.016-4.984 12.555-8.921 24.633-8.921s17.62 3.937 24.64 8.921c7.883 5.606 16.825 11.954 34.13 11.954 17.304 0 26.242-6.352 34.128-11.95 7.02-4.988 12.563-8.925 24.645-8.925 12.082 0 17.625 3.937 24.644 8.925 7.887 5.598 16.828 11.95 34.137 11.95 4.527 0 8.2-3.676 8.2-8.211 0-4.54-3.673-8.215-8.2-8.215Zm0 0"/></g><g clip-path="url(#b)"><path fill="#545454" d="M363.75 291.805c-12.082 0-17.629-3.942-24.648-8.926-7.887-5.598-16.825-11.95-34.133-11.95-17.309 0-26.242 6.352-34.133 11.95-7.016 4.988-12.563 8.926-24.64 8.926-12.079 0-17.626-3.942-24.641-8.926-7.887-5.602-16.825-11.95-34.13-11.95-17.3 0-26.238 6.352-34.12 11.95-7.016 4.984-12.555 8.926-24.63 8.926-12.077 0-17.62-3.942-24.64-8.926-7.883-5.602-16.82-11.95-34.125-11.95s-26.242 6.352-34.125 11.95c-7.02 4.984-12.558 8.926-24.637 8.926-4.527 0-8.199 3.675-8.199 8.21 0 4.536 3.672 8.215 8.2 8.215 17.304 0 26.242-6.351 34.124-11.953 7.016-4.984 12.559-8.922 24.637-8.922 12.078 0 17.621 3.938 24.637 8.922 7.887 5.602 16.824 11.953 34.129 11.953 17.3 0 26.234-6.351 34.117-11.953 7.016-4.984 12.559-8.922 24.633-8.922 12.078 0 17.625 3.938 24.64 8.922 7.887 5.602 16.825 11.953 34.13 11.953 17.308 0 26.242-6.351 34.132-11.953 7.016-4.984 12.559-8.922 24.64-8.922 12.083 0 17.626 3.938 24.65 8.922 7.882 5.602 16.823 11.953 34.132 11.953 4.527 0 8.2-3.68 8.2-8.214 0-4.536-3.673-8.211-8.2-8.211Zm0 0"/></g></svg>