<svg xmlns="http://www.w3.org/2000/svg" width="500" viewBox="0 0 375 375" height="500" version="1.0"><defs><clipPath id="a"><path d="M6 66h368.645v216.883H6Zm0 0"/></clipPath></defs><g clip-path="url(#a)"><path fill="#545454" d="m150.379 266.379-34.652-2.125c-3.598-.324-3.598-.98-3.598-4.574v-5.72c0-1.796 1.473-3.105 4.414-1.796l1.633.652v-3.593c-.164-8.008 5.886-10.786 14.222-8.825l30.403 8.497c.328.164.816.164 1.144.328 17.164 4.738 51.325 5.554 72.575-.493-17.98 1.961-37.27 2.29-49.528.329l23.863-2.454c10.625-1.14.165-35.457-2.777-43.14 6.703 10.95 12.586 32.52 12.422 42 8.336-.82 5.07-9.969.328-26.637-4.902-16.504-11.441-26.473-19.941-29.906-3.27-.652-9.48-2.125-10.461-7.188l-5.559-29.906c7.52-11.273 21.25-18.3 36.942-16.34 12.75.489 21.902 5.883 27.789 16.504l4.414 27.781c.98 4.739-.164 4.903-2.617 6.7-5.23 2.449-7.52 5.718-6.864 10.129l2.614 20.101c4.742 20.426 5.066 26.309 21.902 25.82 11.117.325 32.039-1.472 40.867-5.394-8.992 5.883-35.637 8.824-57.375 8.988 7.52 1.145 65.711 1.309 64.73-9.969-.164-1.468-1.308-3.27-4.906-5.39-.816-.82-1.96-1.473-3.593-2.453-2.782-1.309 7.355-.653 8.988.164l11.605 6.21c-1.304-12.745 4.578-21.245 7.356-11.113-2.942-1.472-5.23 3.594-3.594 13.891 6.21 2.777 3.594 9.64 3.43 13.89-10.621 4.41-74.043 11.11-89.739 12.583-45.93 3.757-76.988 4.738-96.113-1.309l-27.95-6.863c6.864 2.941 20.595 7.844 27.626 10.62Zm60.316-176.973c2.125 3.43 3.43 7.352 3.758 11.274.328-4.082 0-8.168-.652-12.09-1.637-11.278-9.645-19.121-20.762-21.735-10.133-1.472-20.266 2.125-27.133 9.805-6.375 10.457-7.191 23.367-2.125 34.645 1.145 1.14 2.617 2.449 3.922 3.43h-2.289l-2.45 4.738c-30.566 5.394-45.44 17.976-44.296 37.586l.324 10.129-5.39-10.13h-22.23c-2.618 0-5.888 3.43-5.56 5.227l4.575 32.195c.82 5.063.164 7.844-2.121 9.313l-2.782-20.262c-.164-.328-1.796-.492-4.086-.328-.164-1.144-.492-2.289-.816-3.27-.98-2.449-2.781-4.41-5.066-5.718-2.454-1.305-5.07-1.797-7.52-1.469-2.617.324-4.906 1.633-6.867 3.594-6.54 7.027-.324 18.629 1.96 26.965.821 3.101 1.474 5.882 2.29 8.332-2.125 2.289-2.613 5.066-2.613 9.316v3.594H58.68c-.985-8.008-2.617-17.32-13.57-17.16h-4.903c.164 1.472-.652 3.105-.816 4.578-.657-1.637-1.637-3.27-2.782-4.578h-.324c.817 3.597 1.145 7.355.488 10.949 0-4.086-1.632-8.008-4.574-10.95h-.82c1.308 3.434 1.637 7.028.82 10.462-.328-3.922-1.965-7.68-4.742-10.461h-.488c.652 3.597.816 7.191.488 10.785 0-4.082-1.797-7.844-4.738-10.621h-.328c1.96 7.191 2.289 14.383 1.144 21.57-.328-6.047-1.96-12.09-4.742-17.648 1.309 5.066 1.637 10.297 1.145 15.363-1.31-10.785-3.758-15.527-7.356-14.547-.652.98-1.145 1.8-1.145 1.8-6.539 17.485-6.046 36.602 1.31 53.763 2.288 2.941 5.066 5.066 8.335 6.699l28.934-.164c3.43-.653 5.882-3.106 7.52-7.68l20.593.816c.652 7.516 2.617 15.36 10.789 15.36h25.664c6.047 0 6.863-6.371 6.7-11.438 70.124 5.883 132.89-.164 202.527-9.968 4.902 8.5 9.152 9.316 21.086 9.48h8.171c20.106 0 20.43-14.707 21.086-31.375.489-16.832-2.617-37.258-19.453-36.441-2.125.164-17 0-17.652.164-2.617-9.317-5.883-13.567-16.348-14.055.328 1.633.328 8.172 0 9.805-.652-1.797-2.125-8.008-3.43-9.317.817 3.434 1.633 11.606.981 15.035 0-4.25-2.617-13.074-6.047-15.851 1.633 3.433 2.613 11.93 1.961 15.523-.328-3.922-2.617-12.254-5.559-14.867.817 3.43 2.454 11.602 1.961 15.031 0-3.757-3.105-12.09-6.21-14.543 1.96 5.067 3.921 14.707 2.94 21.407-.327-4.41-1.796-9.641-3.593-12.746 0 .492.652 11.113-.328 14.382-.492-5.066-1.145-9.48-2.29-11.605.493 3.922-.163 8.008-.163 12.094-4.414-28.106-11.77-17.813-13.567 4.086l-13.238-.164c.324-1.31.653-2.778 1.14-4.25 1.31-5.391 2.782-7.352 1.638-13.235-.817-4.902-7.192-6.535-13.895-3.594 1.637-4.902-7.191-37.914-6.703-52.293-.16-3.593-.817-6.863-1.961-9.64-1.961-.328-3.922.652-5.719 1.633-1.144.492-1.96 1.144-5.887-1.633 0 0 1.473-1.633 4.086-4.738-1.468.816-2.285 1.144-3.757 2.125-2.125 1.632-2.778.98-5.883-1.145 0 0 1.14-1.145 3.594-3.434-2.125-.164-3.594.493-5.23 1.637-1.798 1.14-2.454.16-4.74-1.144 2.286-2.29 4.41-3.922 6.7-4.739-2.45.16-5.23.817-8.008 1.961-8.172-3.922-10.137-4.25-18.472-5.883.164-.164.328-.164.492-.328 1.308-4.574 2.613-6.21 3.105-11.93-1.797 5.231-28.933 4.087-40.047 0-4.906-2.288-12.75-17.156-8.664-20.261 3.106-1.473 10.625 1.797 20.922 1.797h1.637c7.355.652 14.875 1.144 22.23.98Zm12.094 57.684L229 175.195h4.25l1.8 8.5h-17.98l-1.965-8.5h4.907l-3.598-17.32-5.559 2.613-1.468-7.68 6.375-5.718Zm109.68 67.488c3.433-1.144 5.722 3.434 6.703 13.399.652-4.739.328-9.641-.98-14.215 2.613 5.23 4.085 10.785 4.413 16.504 1.145-6.864.653-13.727-1.308-20.59 3.105 2.613 4.902 6.375 4.902 10.297.328-3.598.164-7.028-.652-10.461 3.105 2.617 4.902 6.21 5.066 10.133.817-3.594.328-7.356-1.308-10.786 3.597 2.614 5.558 6.864 5.558 11.274.657-3.43.492-7.024-.488-10.457 1.469 1.308 2.45 3.433 3.105 5.23 1.47-7.355-.164-8.336-10.136-8.008-3.434 0-6.375.329-8.989 1.145-2.78.816-5.23 3.43-5.886 6.535ZM93.656 163.43l6.703 35.625-3.433-33.828c.164 0 .164-.16.328-.16l6.539 33.824-3.598-34.48h.328l6.54 34.644-3.598-34.645h.492l6.535 34.645-3.594-34.645h.329l6.699 34.645a29797.27 29797.27 0 0 0-3.922-38.403H95.62c-1.308.328-2.125 1.309-1.965 2.614-.16 0 0 0 0 .164Zm-17.488 43.468-2.941-21.57c0-.328 1.468-.98 3.757-1.308-.164-.817-.328-1.47-.652-2.286-.492-1.472-1.637-2.78-3.105-3.597-1.309-.817-3.106-1.145-4.579-.817-1.632.164-3.105.817-4.25 2.125-4.414 4.739 1.309 16.832 2.942 22.715.656 2.45 1.308 4.738 1.96 6.863 1.802-.816 4.09-1.472 6.868-2.125Zm91.535-119.78c.82 0 1.637 1.308 1.637 2.777 0 1.472-.817 2.617-1.637 2.617-.324 0-.652-.164-.98-.492h.164c.816 0 1.472-.98 1.472-2.286 0-1.144-.656-2.125-1.308-2.289.328-.164.328-.328.652-.328ZM78.945 240.07c-.98 7.192-.652 14.871.98 23.043 1.145 4.41 2.454 3.758 3.434 0 0 6.043-2.453 6.535-4.086 1.469-2.125-6.535-2.125-14.707-.328-24.512Zm97.75-83.504c-6.539 2.454-10.46.817-11.933-5.066 2.617 3.922 7.191 5.883 11.933 5.066Zm24.844 53.11c-6.863.816-15.2 3.594-21.086 16.668-.324.816-3.922 8.66-9.48 9.804 10.136-26.472 22.722-29.085 30.566-26.472Zm-28.93-5.23c-5.23-1.305-10.625-.16-15.039 2.94 6.211-1.468 12.75-.488 18.145 2.942-4.742.164-7.848.328-9.645.82 3.27 4.247 5.72 7.188 7.356 8.66-4.742 5.555-8.828 9.313-12.422 11.438l-9.156-16.996 9.48 9.805-15.363-21.407 5.23 2.454c-4.902-5.883-6.375-11.278-4.25-15.688-1.797 1.797-2.617 4.41-1.96 7.027l-6.868-3.921c1.309-5.23 4.906-9.645 10.79-12.91 4.25-1.962 8.5-1.962 12.75.163l4.577 20.262-5.07 1.469c5.395-.16 9.156.82 11.445 2.941Zm-42.664-31.212c-4.578.98-7.027-1.304-7.191-7.187-2.942-13.89 3.27-28.11 15.363-35.461-4.25 6.371-6.699 13.89-7.027 21.734a16.108 16.108 0 0 1 15.855 0c-6.539.325-12.422 3.758-16.183 9.149 4.25-1.145 8.336-2.285 12.425-3.43-.492 2.45-1.8 4.738-3.761 6.371 3.922.492 7.52-2.125 8.336-6.047-.164 4.414-1.309 8.825-3.434 12.586-4.902 0-9.64.817-14.383 2.285Zm27.297 2.778-3.922-.325c-2.777-3.921-3.597-8.988-2.125-13.562 1.309-4.578 4.903-8.336 9.317-10.133-3.434 2.45-5.883 6.047-6.703 10.133-.817 4.082.984 10.457 3.433 13.887Zm-70.285 46.246c1.961 6.539 2.45 13.402 1.309 19.937-.329-5.394-1.801-10.949-4.414-15.851 1.144 4.574 1.632 9.316 1.144 13.89-1.144-9.64-3.433-13.89-6.703-12.91.652-2.941 2.613-5.39 5.559-6.535 5.394-1.637 13.074-2.289 23.375-1.473 1.14 1.797 1.468 3.922.98 6.047-.82-2.289-2.289-3.758-4.742-4.086.328 1.637-.328 3.27-.653 4.903-.492-1.797-1.472-3.43-2.78-4.575.82 3.43.98 6.864.491 10.293 0-4.246-2.125-8.332-5.558-10.945 1.637 3.266 2.125 7.024 1.472 10.621-.328-3.758-2.124-7.355-5.066-9.804.652 3.43.98 6.863.652 10.292-.328-3.757-1.96-7.351-5.066-9.804Zm-8.336 15.363c2.285-6.375 5.23.488 5.23 14.543-.328-11.601-3.105-16.668-5.23-14.543Zm-38.742-8.5 20.27 10.95c5.558-2.29 9.972-3.27 15.367-.981-8.012-.328-11.118.98-15.04 3.922l-23.046-9.313c1.304 2.778 9.48 6.371 23.21 11.438-4.413-1.309-19.288-3.106-23.538-5.555-.164 3.43 19.613 7.68 22.558 8.496-4.414-.652-17.328-1.473-22.558-3.27-.164 1.637 20.757 6.864 22.394 7.356-2.289-.328-18.797-.656-22.559-2.289.817 2.29 10.626 3.922 21.415 6.535-3.598-.324-15.204-.16-20.434-1.14 1.637 1.96 11.77 2.613 20.27 4.574-3.758-.328-14.06.328-20.106-.492.98 1.96 9.316 2.289 19.453 3.921-5.722-.16-26.808 2.29-24.683-2.285.328-13.726.328-26.965.328-26.965.324-7.187 3.105-7.843 11.605-8.332h10.461c-8.5 1.633-13.078 2.286-15.367 3.43Zm232.601-29.738c-7.683.98-14.382 6.699-15.199 14.379-.492-11.602 4.739-17.32 15.2-14.38Zm-40.375-66.672c-21.574-7.191-45.44 1.305-57.37 20.59l-5.07-2.781c12.589-21.73 40.21-29.41 62.44-17.81Zm-59.332 31.21c-6.375 2.45-10.464.817-11.933-5.066 2.613 3.922 7.355 5.883 11.933 5.067Zm1.961-3.597c-6.375 2.29-10.46.656-11.933-5.062 2.613 3.758 7.191 5.883 11.933 5.062ZM9.148 227.16c2.618-6.863 5.723.492 5.723 15.363-.328-12.257-3.434-17.648-5.723-15.363Zm.493 2.453c-1.145 7.68-.817 16.012.98 24.676 1.309 4.738 2.617 3.922 3.598 0 0 6.371-2.617 6.863-4.25 1.305-2.29-6.864-2.29-15.524-.328-25.98Zm0 0" fill-rule="evenodd"/></g></svg>