<svg xmlns="http://www.w3.org/2000/svg" width="500" height="500" version="1.0" viewBox="0 0 375 375"><defs><clipPath id="a"><path d="M47 9.313h319V328H47Zm0 0"/></clipPath></defs><g clip-path="url(#a)"><path d="M365.734 206.926v-72.684h-62.472V71.785h-62.457V9.313h-72.696L59.734 226.07l-12.672 12.66 89.243 89.243 12.656-12.66Zm-246.796 67.96-18.782-18.777 43.633-54.523 29.695 29.672Zm-27.766-27.75L72.594 228.56l32.726-65.454 29.48 29.485Zm36.738 36.739 54.535-43.629 29.48 29.48-65.448 32.727Zm225.203-84.734L223.828 263.77l-31.45-31.45 106.794-85.457h53.941ZM290.63 84.406v53.117l-107.25 85.809-31.68-31.676 85.809-107.25Zm-62.461-62.472V75.87l-85.453 106.797-31.45-31.45 64.641-129.284Zm0 0"/></g><path d="M24.762 261.031c-24.598 24.598-24.598 64.645 0 89.242 24.597 24.598 64.644 24.598 89.242 0l13.39-13.378-89.242-89.243Zm0 0"/></svg>